{"glyphs":{"0":{"ha":749,"x_min":58,"x_max":692,"o":"m 692 490 q 670 274 692 368 q 606 115 648 180 q 504 17 564 50 q 366 -17 443 -17 q 235 15 292 -17 q 138 109 178 47 q 79 261 99 171 q 58 467 58 351 q 80 692 58 594 q 142 856 101 789 q 245 955 184 922 q 386 989 307 989 q 692 490 692 989 m 578 479 q 380 895 578 895 q 172 472 172 895 q 376 78 172 78 q 578 479 578 78 z "},"1":{"ha":749,"x_min":155,"x_max":491,"o":"m 491 0 l 380 0 l 380 840 q 342 811 367 827 q 287 778 317 794 q 221 747 256 762 q 155 725 187 733 l 155 838 q 232 865 191 848 q 313 904 273 882 q 388 948 353 925 q 449 994 423 972 l 491 994 l 491 0 z "},"2":{"ha":749,"x_min":74,"x_max":674,"o":"m 524 718 q 510 795 524 762 q 472 851 496 829 q 415 884 448 873 q 345 895 382 895 q 281 886 312 895 q 220 861 250 877 q 163 824 191 846 q 112 776 136 802 l 112 895 q 217 965 159 941 q 358 989 275 989 q 469 971 418 989 q 557 921 519 954 q 615 839 594 888 q 637 727 637 790 q 624 623 637 669 q 584 534 610 576 q 516 455 557 493 q 420 378 475 417 q 308 294 352 329 q 237 230 263 260 q 200 169 211 199 q 190 100 190 139 l 674 100 l 674 0 l 74 0 l 74 48 q 87 158 74 111 q 132 248 101 205 q 214 334 163 291 q 338 430 264 376 q 426 503 391 468 q 484 572 462 537 q 514 642 505 606 q 524 718 524 677 z "},"3":{"ha":749,"x_min":83,"x_max":646,"o":"m 646 275 q 622 156 646 210 q 552 63 597 102 q 444 4 507 25 q 304 -17 380 -17 q 83 36 165 -17 l 83 155 q 309 78 182 78 q 400 91 359 78 q 471 128 441 104 q 516 187 500 153 q 532 265 532 222 q 261 456 532 456 l 180 456 l 180 550 l 257 550 q 497 729 497 550 q 314 895 497 895 q 121 825 211 895 l 121 933 q 342 989 214 989 q 452 972 403 989 q 537 924 502 955 q 592 851 572 894 q 611 757 611 808 q 417 510 611 565 l 417 507 q 509 483 467 502 q 581 435 551 465 q 629 365 612 405 q 646 275 646 324 z "},"4":{"ha":749,"x_min":9,"x_max":701,"o":"m 576 972 l 576 330 l 701 330 l 701 229 l 576 229 l 576 0 l 467 0 l 467 229 l 9 229 l 9 325 q 138 478 73 397 q 263 644 203 560 q 373 812 322 728 q 458 972 423 896 l 576 972 m 135 330 l 467 330 l 467 806 q 370 648 416 718 q 284 521 325 578 q 205 418 243 464 q 135 330 168 372 z "},"5":{"ha":749,"x_min":111,"x_max":657,"o":"m 657 297 q 633 168 657 226 q 563 69 608 111 q 454 5 518 28 q 313 -17 391 -17 q 111 24 177 -17 l 111 142 q 314 78 210 78 q 409 94 367 78 q 481 137 452 109 q 527 204 511 165 q 543 290 543 243 q 479 439 543 385 q 294 493 416 493 q 253 492 275 493 q 210 491 231 492 q 167 488 188 490 q 130 485 146 487 l 163 972 l 612 972 l 612 872 l 259 872 l 239 587 q 286 589 261 588 q 329 590 310 590 q 467 570 406 590 q 571 512 528 549 q 635 419 613 474 q 657 297 657 365 z "},"6":{"ha":749,"x_min":75,"x_max":693,"o":"m 693 309 q 670 178 693 237 q 606 75 647 118 q 509 7 566 31 q 387 -17 453 -17 q 256 14 314 -17 q 158 101 198 44 q 96 241 117 159 q 75 428 75 324 q 103 658 75 555 q 183 835 132 762 q 309 949 235 909 q 472 989 382 989 q 633 961 572 989 l 633 856 q 475 895 558 895 q 357 865 410 895 q 268 783 305 836 q 211 654 231 730 q 191 487 191 579 l 193 487 q 415 608 260 608 q 530 587 479 608 q 617 525 581 565 q 673 431 654 486 q 693 309 693 376 m 579 294 q 566 386 579 345 q 529 455 553 427 q 470 499 505 484 q 390 514 435 514 q 313 498 349 514 q 252 456 278 483 q 212 394 227 429 q 197 318 197 358 q 212 224 197 268 q 252 148 226 180 q 313 97 277 115 q 392 78 349 78 q 469 94 434 78 q 528 138 503 110 q 566 207 552 167 q 579 294 579 246 z "},"7":{"ha":749,"x_min":66,"x_max":685,"o":"m 685 908 q 631 812 663 869 q 564 682 600 754 q 492 528 529 610 q 424 357 456 445 q 368 178 392 269 q 333 0 344 87 l 214 0 q 251 177 226 87 q 309 355 277 268 q 377 523 341 442 q 447 671 413 604 q 509 791 481 739 q 554 872 537 843 l 66 872 l 66 972 l 685 972 l 685 908 z "},"8":{"ha":749,"x_min":61,"x_max":692,"o":"m 61 271 q 73 349 61 310 q 108 422 85 388 q 164 484 131 456 q 241 528 198 511 q 140 618 178 563 q 103 741 103 673 q 124 840 103 794 q 181 918 144 885 q 268 970 218 951 q 376 989 318 989 q 486 970 435 989 q 572 918 536 951 q 629 839 609 884 q 650 741 650 793 q 612 618 650 673 q 513 528 575 563 q 589 484 555 511 q 645 422 622 456 q 680 349 667 388 q 692 271 692 310 q 669 155 692 208 q 604 64 646 102 q 504 5 562 26 q 376 -16 446 -16 q 250 5 307 -16 q 150 64 192 26 q 84 155 108 102 q 61 271 61 208 m 182 281 q 196 199 182 235 q 235 136 210 162 q 297 97 260 111 q 377 83 333 83 q 456 97 420 83 q 518 137 492 111 q 558 199 544 163 q 573 281 573 236 q 559 357 573 321 q 519 420 545 393 q 458 463 494 447 q 377 478 422 478 q 299 464 335 478 q 238 423 264 449 q 197 360 212 397 q 182 281 182 324 m 216 732 q 229 668 216 697 q 263 616 241 638 q 315 582 286 594 q 377 569 344 569 q 440 582 410 569 q 491 617 469 595 q 526 668 513 639 q 538 732 538 698 q 526 797 538 767 q 492 848 513 827 q 440 883 470 870 q 377 895 411 895 q 312 882 341 895 q 261 847 282 869 q 228 795 239 825 q 216 732 216 766 z "},"9":{"ha":749,"x_min":64,"x_max":681,"o":"m 681 545 q 654 307 681 411 q 577 131 628 203 q 453 21 526 58 q 286 -17 380 -17 q 117 17 190 -17 l 117 123 q 289 78 197 78 q 407 105 355 78 q 494 184 458 132 q 549 312 530 236 q 568 486 568 388 l 566 486 q 349 361 503 361 q 234 383 286 361 q 144 445 182 405 q 85 541 106 486 q 64 664 64 597 q 87 795 64 736 q 152 898 111 855 q 251 965 194 941 q 376 989 309 989 q 506 959 450 989 q 602 873 563 930 q 661 734 640 817 q 681 545 681 651 m 561 644 q 546 747 561 701 q 506 826 532 793 q 445 877 480 859 q 367 895 409 895 q 292 879 327 895 q 232 834 258 863 q 192 765 207 805 q 178 679 178 726 q 192 587 178 627 q 231 518 205 546 q 293 475 257 490 q 374 460 330 460 q 447 474 412 460 q 506 514 481 489 q 546 572 532 538 q 561 644 561 606 z "},"\r":{"ha":0,"x_min":0,"x_max":0,"o":""}," ":{"ha":380,"x_min":0,"x_max":0,"o":""},"!":{"ha":395,"x_min":122,"x_max":273,"o":"m 254 972 l 241 274 l 150 274 l 138 972 l 254 972 m 197 -12 q 144 9 166 -12 q 122 62 122 31 q 144 116 122 94 q 197 138 166 138 q 250 116 228 138 q 273 62 273 94 q 250 9 273 31 q 197 -12 228 -12 z "},"\"":{"ha":545,"x_min":100,"x_max":444,"o":"m 219 972 l 199 669 l 121 669 l 100 972 l 219 972 m 444 972 l 424 669 l 346 669 l 326 972 l 444 972 z "},"#":{"ha":821,"x_min":22,"x_max":791,"o":"m 791 700 l 775 628 l 598 628 l 555 425 l 746 425 l 728 353 l 541 353 l 481 83 l 396 83 l 454 353 l 285 353 l 228 83 l 143 83 l 200 353 l 22 353 l 36 425 l 216 425 l 257 628 l 69 628 l 83 700 l 271 700 l 328 972 l 414 972 l 357 700 l 528 700 l 586 972 l 669 972 l 612 700 l 791 700 m 514 628 l 343 628 l 298 425 l 471 425 l 514 628 z "},"$":{"ha":749,"x_min":110,"x_max":663,"o":"m 418 5 l 418 -142 l 347 -142 l 347 0 q 113 58 203 0 l 113 176 q 220 118 152 142 q 347 95 288 95 l 347 442 q 154 575 198 514 q 110 718 110 635 q 177 888 110 817 q 347 974 244 960 l 347 1096 l 418 1096 l 418 977 q 602 939 551 972 l 602 823 q 418 882 532 878 l 418 524 q 611 394 559 456 q 663 251 663 331 q 598 89 663 155 q 418 5 533 24 m 347 562 l 347 878 q 257 827 290 866 q 224 732 224 788 q 251 637 224 674 q 347 562 278 600 m 418 407 l 418 100 q 549 241 549 129 q 418 407 549 335 z "},"%":{"ha":1137,"x_min":54,"x_max":1085,"o":"m 274 485 q 114 551 174 485 q 54 728 54 617 q 117 918 54 848 q 288 987 180 987 q 449 923 391 987 q 506 742 506 859 q 442 555 506 625 q 274 485 378 485 m 283 913 q 182 865 219 913 q 144 734 144 817 q 181 606 144 652 q 281 560 218 560 q 380 608 345 560 q 416 739 416 655 q 381 867 416 821 q 283 913 345 913 m 925 972 l 301 -7 l 204 -7 l 827 972 l 925 972 m 853 -15 q 693 52 753 -15 q 633 228 633 118 q 697 419 633 349 q 867 489 761 489 q 1027 424 970 489 q 1085 241 1085 359 q 1021 55 1085 125 q 853 -15 957 -15 m 863 412 q 761 365 798 412 q 724 233 724 317 q 760 107 724 153 q 860 61 797 61 q 960 109 924 61 q 996 240 996 157 q 960 368 996 323 q 863 412 924 412 z "},"&":{"ha":1112,"x_min":81,"x_max":1084,"o":"m 980 -16 q 912 -5 941 -16 q 857 25 882 5 q 809 72 832 44 q 760 135 785 100 q 697 79 732 106 q 618 31 661 52 q 523 -3 574 9 q 411 -16 471 -16 q 277 3 338 -16 q 172 57 216 21 q 105 144 129 92 q 81 264 81 197 q 140 442 81 368 q 307 562 199 515 q 266 597 286 577 q 230 643 245 617 q 204 699 214 668 q 194 766 194 730 q 213 861 194 820 q 267 931 233 903 q 347 974 300 960 q 446 989 393 989 q 543 974 499 989 q 618 932 587 960 q 667 867 650 905 q 685 783 685 829 q 638 647 685 701 q 499 555 592 593 q 584 511 546 537 q 654 452 622 484 q 714 382 686 419 q 769 304 742 345 q 852 473 824 381 q 880 667 880 566 q 877 715 880 692 q 868 760 873 738 l 976 760 q 982 718 981 738 q 985 670 983 698 q 972 546 985 608 q 937 425 959 484 q 887 313 916 366 q 826 216 858 260 q 869 160 850 184 q 909 119 889 136 q 950 95 929 103 q 999 87 972 87 q 1040 93 1019 87 q 1084 106 1061 98 l 1084 3 q 1033 -11 1059 -6 q 980 -16 1006 -16 m 411 81 q 506 92 463 81 q 586 122 549 103 q 652 165 623 140 q 707 217 682 190 q 630 327 665 281 q 560 406 595 373 q 484 463 524 439 q 391 507 444 487 q 312 470 348 490 q 250 421 276 449 q 209 355 224 393 q 194 268 194 318 q 211 186 194 222 q 257 128 228 151 q 326 93 287 104 q 411 81 366 81 m 581 773 q 568 831 581 807 q 536 870 555 854 q 493 893 517 886 q 446 900 469 900 q 340 864 380 900 q 300 766 300 828 q 308 714 300 739 q 332 669 317 690 q 368 631 347 648 q 411 604 388 615 q 538 673 496 633 q 581 773 581 713 z "},"'":{"ha":319,"x_min":100,"x_max":219,"o":"m 219 972 l 199 669 l 121 669 l 100 972 l 219 972 z "},"(":{"ha":419,"x_min":95,"x_max":406,"o":"m 404 -221 l 305 -221 q 95 371 95 19 q 305 972 95 724 l 406 972 q 193 372 193 715 q 404 -221 193 33 z "},")":{"ha":419,"x_min":15,"x_max":327,"o":"m 115 -221 l 16 -221 q 228 372 228 33 q 15 972 228 715 l 115 972 q 327 371 327 724 q 115 -221 327 19 z "},"*":{"ha":579,"x_min":52,"x_max":529,"o":"m 529 749 l 343 711 l 472 546 l 397 494 l 292 674 l 184 494 l 110 546 l 239 711 l 52 749 l 82 833 l 260 766 l 244 972 l 338 972 l 322 766 l 500 833 l 529 749 z "},"+":{"ha":950,"x_min":157,"x_max":795,"o":"m 795 359 l 521 359 l 521 86 l 431 86 l 431 359 l 157 359 l 157 450 l 431 450 l 431 724 l 521 724 l 521 450 l 795 450 l 795 359 z "},",":{"ha":301,"x_min":26,"x_max":214,"o":"m 214 155 l 106 -179 l 26 -179 l 106 155 l 214 155 z "},"-":{"ha":555,"x_min":98,"x_max":468,"o":"m 468 343 l 98 343 l 98 431 l 468 431 l 468 343 z "},".":{"ha":301,"x_min":76,"x_max":228,"o":"m 151 -15 q 98 7 120 -15 q 76 61 76 30 q 98 115 76 92 q 151 138 120 138 q 205 115 183 138 q 228 61 228 92 q 205 7 228 30 q 151 -15 183 -15 z "},"/":{"ha":541,"x_min":-19,"x_max":551,"o":"m 551 972 l 85 -161 l -19 -161 l 446 972 l 551 972 z "},":":{"ha":301,"x_min":76,"x_max":228,"o":"m 151 559 q 98 581 120 559 q 76 635 76 604 q 98 688 76 666 q 151 709 120 709 q 205 688 183 709 q 228 635 228 666 q 205 581 228 604 q 151 559 183 559 m 151 -15 q 98 7 120 -15 q 76 61 76 30 q 98 115 76 92 q 151 138 120 138 q 205 115 183 138 q 228 61 228 92 q 205 7 228 30 q 151 -15 183 -15 z "},";":{"ha":301,"x_min":26,"x_max":229,"o":"m 153 559 q 99 581 121 559 q 77 635 77 604 q 99 688 77 666 q 153 709 121 709 q 207 688 184 709 q 229 635 229 666 q 207 581 229 604 q 153 559 184 559 m 214 155 l 106 -179 l 26 -179 l 106 155 l 214 155 z "},"<":{"ha":950,"x_min":184,"x_max":768,"o":"m 768 86 l 184 379 l 184 419 l 768 746 l 768 644 l 332 403 l 332 400 l 768 187 l 768 86 z "},"=":{"ha":950,"x_min":157,"x_max":795,"o":"m 795 505 l 157 505 l 157 594 l 795 594 l 795 505 m 795 216 l 157 216 l 157 305 l 795 305 l 795 216 z "},">":{"ha":950,"x_min":184,"x_max":768,"o":"m 768 379 l 184 86 l 184 187 l 621 399 l 621 403 l 184 644 l 184 746 l 768 419 l 768 379 z "},"?":{"ha":623,"x_min":89,"x_max":554,"o":"m 227 270 q 216 316 221 288 q 212 372 212 344 q 229 450 212 415 q 272 515 246 485 q 328 574 298 546 q 385 631 359 602 q 428 691 410 660 q 445 761 445 723 q 432 819 445 793 q 398 861 420 844 q 348 886 376 878 q 288 895 319 895 q 89 804 173 895 l 89 924 q 304 989 193 989 q 401 975 355 989 q 480 935 446 962 q 534 868 515 908 q 554 775 554 828 q 536 686 554 725 q 492 613 519 646 q 434 552 465 581 q 376 495 403 524 q 332 437 349 467 q 314 370 314 406 q 321 313 314 338 q 336 270 329 288 l 227 270 m 288 -12 q 235 9 258 -12 q 213 62 213 31 q 235 115 213 94 q 288 138 258 138 q 341 115 319 138 q 363 62 363 94 q 341 9 363 31 q 288 -12 318 -12 z "},"@":{"ha":1326,"x_min":117,"x_max":1213,"o":"m 789 285 l 786 285 q 591 123 736 123 q 442 192 498 123 q 385 376 385 260 q 464 631 385 530 q 669 732 542 732 q 756 707 718 732 q 806 644 795 682 l 808 644 q 815 722 810 663 l 900 722 q 868 342 868 349 q 949 201 868 201 q 1070 281 1022 201 q 1119 486 1119 360 q 1001 791 1119 673 q 674 909 883 909 q 341 768 473 909 q 210 415 210 627 q 335 79 210 207 q 672 -49 460 -49 q 958 7 840 -49 l 958 -77 q 665 -127 841 -127 q 268 21 418 -127 q 117 411 117 170 q 275 823 117 659 q 680 986 433 986 q 1061 849 910 986 q 1213 492 1213 712 q 1133 227 1213 330 q 939 123 1053 123 q 789 285 790 123 m 668 654 q 532 574 584 654 q 480 375 480 494 q 515 249 480 295 q 608 203 550 203 q 742 287 692 203 q 791 509 791 370 q 668 654 791 654 z "},"A":{"ha":896,"x_min":15,"x_max":880,"o":"m 880 0 l 754 0 l 651 273 l 239 273 l 142 0 l 15 0 l 388 972 l 506 972 l 880 0 m 614 375 l 461 789 q 446 854 454 810 l 444 854 q 428 789 437 813 l 277 375 l 614 375 z "},"B":{"ha":796,"x_min":127,"x_max":726,"o":"m 127 0 l 127 972 l 404 972 q 604 911 530 972 q 678 750 678 849 q 633 606 678 667 q 510 519 589 545 l 510 517 q 667 443 608 505 q 726 279 726 380 q 637 77 726 155 q 411 0 547 0 l 127 0 m 241 869 l 241 555 l 358 555 q 505 601 452 555 q 559 728 559 646 q 372 869 559 869 l 241 869 m 241 453 l 241 103 l 396 103 q 552 151 496 103 q 607 281 607 198 q 372 453 607 453 l 241 453 z "},"C":{"ha":860,"x_min":64,"x_max":789,"o":"m 789 41 q 521 -16 682 -16 q 189 117 313 -16 q 64 468 64 251 q 204 845 64 701 q 560 989 345 989 q 789 949 699 989 l 789 827 q 559 886 685 886 q 287 774 391 886 q 183 475 183 662 q 280 192 183 297 q 536 86 378 86 q 789 151 682 86 l 789 41 z "},"D":{"ha":974,"x_min":127,"x_max":910,"o":"m 127 0 l 127 972 l 396 972 q 910 498 910 972 q 767 137 910 273 q 385 0 625 0 l 127 0 m 241 869 l 241 103 l 387 103 q 684 205 578 103 q 791 496 791 308 q 393 869 791 869 l 241 869 z "},"E":{"ha":703,"x_min":127,"x_max":643,"o":"m 643 0 l 127 0 l 127 972 l 621 972 l 621 869 l 241 869 l 241 546 l 593 546 l 593 444 l 241 444 l 241 103 l 643 103 l 643 0 z "},"F":{"ha":678,"x_min":127,"x_max":621,"o":"m 621 869 l 241 869 l 241 533 l 593 533 l 593 431 l 241 431 l 241 0 l 127 0 l 127 972 l 621 972 l 621 869 z "},"G":{"ha":953,"x_min":64,"x_max":854,"o":"m 854 66 q 529 -16 708 -16 q 192 118 321 -16 q 64 473 64 252 q 207 844 64 699 q 568 989 349 989 q 835 937 727 989 l 835 811 q 555 886 717 886 q 288 773 392 886 q 183 481 183 661 q 280 192 183 297 q 543 86 377 86 q 741 132 657 86 l 741 404 l 528 404 l 528 507 l 854 507 l 854 66 z "},"H":{"ha":986,"x_min":127,"x_max":859,"o":"m 859 0 l 745 0 l 745 444 l 241 444 l 241 0 l 127 0 l 127 972 l 241 972 l 241 546 l 745 546 l 745 972 l 859 972 l 859 0 z "},"I":{"ha":370,"x_min":33,"x_max":336,"o":"m 336 972 l 336 875 l 241 875 l 241 98 l 336 98 l 336 0 l 33 0 l 33 98 l 127 98 l 127 875 l 33 875 l 33 972 l 336 972 z "},"J":{"ha":496,"x_min":14,"x_max":376,"o":"m 376 349 q 303 80 376 176 q 107 -16 230 -16 q 14 0 50 -16 l 14 113 q 109 86 50 86 q 262 347 262 86 l 262 972 l 376 972 l 376 349 z "},"K":{"ha":806,"x_min":127,"x_max":804,"o":"m 804 0 l 646 0 l 270 445 q 244 479 249 470 l 241 479 l 241 0 l 127 0 l 127 972 l 241 972 l 241 515 l 244 515 q 270 549 254 530 l 633 972 l 775 972 l 358 506 l 804 0 z "},"L":{"ha":654,"x_min":127,"x_max":632,"o":"m 632 0 l 127 0 l 127 972 l 241 972 l 241 103 l 632 103 l 632 0 z "},"M":{"ha":1247,"x_min":127,"x_max":1119,"o":"m 1119 0 l 1006 0 l 1006 652 q 1015 842 1006 730 l 1013 842 q 983 747 996 776 l 651 0 l 595 0 l 264 742 q 235 842 250 774 l 232 842 q 237 651 237 783 l 237 0 l 127 0 l 127 972 l 278 972 l 576 294 q 621 178 611 216 l 625 178 q 672 297 654 258 l 977 972 l 1119 972 l 1119 0 z "},"N":{"ha":1039,"x_min":127,"x_max":911,"o":"m 911 0 l 772 0 l 271 775 q 240 836 252 804 l 236 836 q 241 703 241 805 l 241 0 l 127 0 l 127 972 l 275 972 l 762 210 q 802 144 793 162 l 804 144 q 798 288 798 186 l 798 972 l 911 972 l 911 0 z "},"O":{"ha":1047,"x_min":64,"x_max":983,"o":"m 519 -16 q 188 120 313 -16 q 64 475 64 256 q 191 849 64 709 q 536 989 317 989 q 860 853 737 989 q 983 498 983 718 q 857 122 983 260 q 519 -16 731 -16 m 528 886 q 279 775 374 886 q 183 485 183 665 q 276 196 183 305 q 519 86 370 86 q 772 191 680 86 q 864 483 864 295 q 774 781 864 675 q 528 886 685 886 z "},"P":{"ha":778,"x_min":127,"x_max":722,"o":"m 241 368 l 241 0 l 127 0 l 127 972 l 395 972 q 636 897 551 972 q 722 682 722 821 q 627 456 722 544 q 370 368 532 368 l 241 368 m 241 869 l 241 471 l 361 471 q 541 525 479 471 q 603 677 603 578 q 375 869 603 869 l 241 869 z "},"Q":{"ha":1047,"x_min":64,"x_max":1006,"o":"m 513 -16 q 425 -8 469 -16 q 338 18 380 1 q 257 61 296 35 q 188 120 219 86 q 64 475 64 256 q 190 849 64 710 q 538 989 317 989 q 860 853 736 989 q 983 498 983 718 q 963 325 983 406 q 900 177 942 243 q 794 65 858 111 q 644 0 730 20 q 710 -67 679 -38 q 771 -116 741 -96 q 836 -146 802 -136 q 909 -157 869 -157 q 932 -156 920 -157 q 959 -152 945 -155 q 984 -147 972 -150 q 1006 -140 996 -144 l 1006 -250 q 982 -255 996 -253 q 955 -259 968 -258 q 927 -262 941 -261 q 902 -263 913 -263 q 785 -244 837 -263 q 688 -191 733 -224 q 601 -113 643 -157 q 513 -16 559 -68 m 528 886 q 279 775 374 886 q 183 485 183 665 q 276 195 183 306 q 519 86 370 86 q 772 191 680 86 q 864 483 864 295 q 774 781 864 676 q 528 886 685 886 z "},"R":{"ha":831,"x_min":127,"x_max":825,"o":"m 825 0 l 689 0 l 526 273 q 483 337 504 311 q 440 381 462 364 q 392 406 418 398 q 335 414 367 414 l 241 414 l 241 0 l 127 0 l 127 972 l 418 972 q 535 957 481 972 q 629 908 589 941 q 691 827 669 876 q 713 713 713 779 q 698 620 713 663 q 655 545 683 578 q 587 488 627 511 q 498 452 547 465 l 498 449 q 540 424 522 438 q 574 391 558 410 q 607 348 591 372 q 642 292 623 324 l 825 0 m 241 869 l 241 517 l 396 517 q 475 530 439 517 q 538 567 511 543 q 579 626 564 591 q 594 704 594 661 q 544 826 594 782 q 397 869 493 869 l 241 869 z "},"S":{"ha":738,"x_min":82,"x_max":671,"o":"m 82 39 l 82 174 q 137 137 105 153 q 205 110 170 121 q 277 92 241 98 q 343 86 313 86 q 500 125 448 86 q 552 237 552 164 q 535 306 552 277 q 487 359 517 335 q 415 405 456 383 q 325 452 373 427 q 230 504 274 477 q 153 562 186 530 q 102 634 121 594 q 83 729 83 675 q 113 845 83 795 q 189 926 142 894 q 297 973 237 958 q 421 989 358 989 q 631 954 565 989 l 631 826 q 410 886 545 886 q 335 878 372 886 q 269 852 298 870 q 221 807 239 835 q 203 739 203 779 q 217 675 203 702 q 258 625 231 648 q 324 582 285 603 q 414 536 363 561 q 513 481 466 510 q 595 418 559 453 q 651 342 630 384 q 671 245 671 300 q 643 124 671 174 q 567 43 615 74 q 457 -2 519 12 q 326 -16 395 -16 q 269 -13 302 -16 q 199 -2 235 -9 q 133 16 164 5 q 82 39 101 26 z "},"T":{"ha":728,"x_min":28,"x_max":703,"o":"m 703 869 l 422 869 l 422 0 l 308 0 l 308 869 l 28 869 l 28 972 l 703 972 l 703 869 z "},"U":{"ha":954,"x_min":115,"x_max":839,"o":"m 839 393 q 469 -16 839 -16 q 115 378 115 -16 l 115 972 l 229 972 l 229 385 q 481 86 229 86 q 725 375 725 86 l 725 972 l 839 972 l 839 393 z "},"V":{"ha":863,"x_min":12,"x_max":850,"o":"m 850 972 l 490 0 l 365 0 l 12 972 l 139 972 l 408 201 q 428 115 421 164 l 431 115 q 453 203 436 156 l 728 972 l 850 972 z "},"W":{"ha":1297,"x_min":18,"x_max":1280,"o":"m 1280 972 l 1006 0 l 872 0 l 672 711 q 656 810 659 756 l 654 810 q 636 712 650 760 l 435 0 l 302 0 l 18 972 l 143 972 l 350 227 q 366 129 363 180 l 370 129 q 391 227 373 165 l 606 972 l 715 972 l 921 221 q 937 130 932 182 l 940 130 q 958 224 943 165 l 1157 972 l 1280 972 z "},"X":{"ha":819,"x_min":18,"x_max":799,"o":"m 799 0 l 660 0 l 436 372 q 414 420 426 389 l 411 420 q 388 372 404 405 l 157 0 l 18 0 l 343 489 l 43 972 l 183 972 l 382 631 q 416 563 401 597 l 419 563 q 457 633 441 608 l 664 972 l 795 972 l 489 490 l 799 0 z "},"Y":{"ha":768,"x_min":12,"x_max":760,"o":"m 760 972 l 439 359 l 439 0 l 325 0 l 325 357 l 12 972 l 142 972 l 359 533 q 383 473 363 525 l 385 473 q 411 533 392 496 l 639 972 l 760 972 z "},"Z":{"ha":792,"x_min":22,"x_max":762,"o":"m 762 945 l 193 103 l 749 103 l 749 0 l 22 0 l 22 32 l 587 869 l 68 869 l 68 972 l 762 972 l 762 945 z "},"[":{"ha":419,"x_min":136,"x_max":385,"o":"m 385 -221 l 136 -221 l 136 972 l 385 972 l 385 892 l 235 892 l 235 -140 l 385 -140 l 385 -221 z "},"\\":{"ha":526,"x_min":-18,"x_max":541,"o":"m 541 -163 l 439 -163 l -18 972 l 87 972 l 541 -163 z "},"]":{"ha":419,"x_min":36,"x_max":285,"o":"m 285 -221 l 36 -221 l 36 -140 l 186 -140 l 186 892 l 36 892 l 36 972 l 285 972 l 285 -221 z "},"^":{"ha":950,"x_min":156,"x_max":796,"o":"m 796 423 l 694 423 l 469 843 l 465 843 l 256 423 l 156 423 l 442 989 l 486 989 l 796 423 z "},"_":{"ha":576,"x_min":0,"x_max":576,"o":"m 576 -201 l 0 -201 l 0 -121 l 576 -121 l 576 -201 z "},"`":{"ha":372,"x_min":56,"x_max":319,"o":"m 319 826 l 233 826 l 56 1048 l 170 1048 l 319 826 z "},"a":{"ha":707,"x_min":61,"x_max":610,"o":"m 610 0 l 498 0 l 498 109 l 496 109 q 282 -16 423 -16 q 120 39 178 -16 q 61 184 61 94 q 290 411 61 379 l 498 440 q 355 617 498 617 q 129 532 230 617 l 129 646 q 365 711 231 711 q 610 452 610 711 l 610 0 m 498 351 l 331 328 q 214 290 254 317 q 175 193 175 262 q 211 110 175 142 q 308 77 248 77 q 445 135 391 77 q 498 282 498 193 l 498 351 z "},"b":{"ha":817,"x_min":113,"x_max":751,"o":"m 227 100 l 224 100 l 224 0 l 113 0 l 113 1028 l 224 1028 l 224 572 l 227 572 q 467 711 309 711 q 676 617 600 711 q 751 368 751 524 q 667 89 751 193 q 435 -16 582 -16 q 227 100 297 -16 m 224 380 l 224 283 q 280 137 224 197 q 422 77 336 77 q 580 155 523 77 q 637 370 637 232 q 584 551 637 486 q 439 617 530 617 q 283 550 342 617 q 224 380 224 482 z "},"c":{"ha":642,"x_min":65,"x_max":587,"o":"m 586 32 q 396 -16 506 -16 q 156 80 248 -16 q 65 331 65 177 q 163 607 65 503 q 426 711 262 711 q 587 677 517 711 l 587 563 q 422 617 510 617 q 247 541 315 617 q 179 340 179 465 q 243 148 179 218 q 415 77 307 77 q 586 138 506 77 l 586 32 z "},"d":{"ha":818,"x_min":65,"x_max":705,"o":"m 705 0 l 594 0 l 594 118 l 591 118 q 353 -16 514 -16 q 143 77 222 -16 q 65 331 65 170 q 152 607 65 503 q 383 711 239 711 q 591 598 526 711 l 594 598 l 594 1028 l 705 1028 l 705 0 m 594 314 l 594 416 q 538 559 594 500 q 397 617 483 617 q 237 543 296 617 q 179 336 179 468 q 235 147 179 216 q 385 77 291 77 q 536 144 478 77 q 594 314 594 212 z "},"e":{"ha":726,"x_min":65,"x_max":671,"o":"m 671 319 l 180 319 q 243 140 183 203 q 407 77 302 77 q 623 155 524 77 l 623 50 q 380 -16 531 -16 q 149 78 233 -16 q 65 345 65 173 q 157 609 65 507 q 385 711 249 711 q 596 623 522 711 q 671 378 671 534 l 671 319 m 557 414 q 510 564 556 510 q 383 617 465 617 q 250 561 304 617 q 182 414 195 505 l 557 414 z "},"f":{"ha":435,"x_min":36,"x_max":456,"o":"m 456 930 q 382 949 423 949 q 265 802 265 949 l 265 694 l 428 694 l 428 600 l 265 600 l 265 0 l 155 0 l 155 600 l 36 600 l 36 694 l 155 694 l 155 807 q 218 980 155 916 q 375 1043 281 1043 q 456 1031 426 1043 l 456 930 z "},"g":{"ha":818,"x_min":65,"x_max":705,"o":"m 705 56 q 339 -327 705 -327 q 114 -278 210 -327 l 114 -167 q 338 -232 231 -232 q 594 41 594 -232 l 594 117 l 591 117 q 353 -16 512 -16 q 144 76 223 -16 q 65 325 65 169 q 150 606 65 502 q 383 711 235 711 q 591 598 524 711 l 594 598 l 594 694 l 705 694 l 705 56 m 594 314 l 594 416 q 538 558 594 499 q 399 617 482 617 q 237 542 296 617 q 179 332 179 467 q 235 147 179 216 q 383 77 291 77 q 535 144 477 77 q 594 314 594 210 z "},"h":{"ha":786,"x_min":113,"x_max":689,"o":"m 689 0 l 578 0 l 578 400 q 416 617 578 617 q 279 554 335 617 q 224 393 224 492 l 224 0 l 113 0 l 113 1028 l 224 1028 l 224 579 l 227 579 q 454 711 307 711 q 689 428 689 711 l 689 0 z "},"i":{"ha":336,"x_min":98,"x_max":243,"o":"m 170 871 q 119 891 140 871 q 98 943 98 911 q 119 995 98 974 q 170 1015 140 1015 q 221 995 200 1015 q 243 943 243 974 q 221 892 243 913 q 170 871 200 871 m 224 0 l 113 0 l 113 694 l 224 694 l 224 0 z "},"j":{"ha":336,"x_min":-134,"x_max":243,"o":"m 224 29 q 155 -234 224 -142 q -42 -327 86 -327 q -134 -305 -90 -327 l -134 -201 q -39 -232 -84 -232 q 113 11 113 -232 l 113 694 l 224 694 l 224 29 m 170 871 q 119 891 140 871 q 98 943 98 911 q 119 995 98 974 q 170 1015 140 1015 q 221 995 200 1015 q 243 943 243 974 q 221 892 243 913 q 170 871 200 871 z "},"k":{"ha":690,"x_min":113,"x_max":689,"o":"m 689 0 l 533 0 l 227 334 l 224 334 l 224 0 l 113 0 l 113 1028 l 224 1028 l 224 376 l 227 376 l 518 694 l 664 694 l 342 359 l 689 0 z "},"l":{"ha":336,"x_min":113,"x_max":224,"o":"m 224 0 l 113 0 l 113 1028 l 224 1028 l 224 0 z "},"m":{"ha":1196,"x_min":113,"x_max":1099,"o":"m 1099 0 l 987 0 l 987 399 q 952 566 987 514 q 832 617 916 617 q 711 552 761 617 q 661 396 661 487 l 661 0 l 550 0 l 550 412 q 392 617 550 617 q 271 556 319 617 q 224 396 224 494 l 224 0 l 113 0 l 113 694 l 224 694 l 224 585 l 227 585 q 442 711 300 711 q 566 671 513 711 q 639 567 619 631 q 869 711 716 711 q 1099 428 1099 711 l 1099 0 z "},"n":{"ha":786,"x_min":113,"x_max":689,"o":"m 689 0 l 578 0 l 578 396 q 416 617 578 617 q 278 554 333 617 q 224 396 224 492 l 224 0 l 113 0 l 113 694 l 224 694 l 224 579 l 227 579 q 454 711 305 711 q 629 637 568 711 q 689 425 689 564 l 689 0 z "},"o":{"ha":814,"x_min":65,"x_max":749,"o":"m 403 -16 q 157 81 249 -16 q 65 339 65 178 q 161 612 65 514 q 419 711 256 711 q 662 615 574 711 q 749 350 749 519 q 655 84 749 184 q 403 -16 561 -16 m 411 617 q 241 544 304 617 q 179 343 179 471 q 242 149 179 220 q 411 77 305 77 q 577 147 519 77 q 635 346 635 217 q 577 547 635 476 q 411 617 519 617 z "},"p":{"ha":817,"x_min":113,"x_max":751,"o":"m 227 100 l 224 100 l 224 -319 l 113 -319 l 113 694 l 224 694 l 224 572 l 227 572 q 467 711 309 711 q 676 617 601 711 q 751 368 751 524 q 667 89 751 193 q 435 -16 582 -16 q 227 100 300 -16 m 224 380 l 224 283 q 280 137 224 197 q 422 77 336 77 q 580 155 523 77 q 637 370 637 232 q 584 551 637 486 q 439 617 530 617 q 283 550 342 617 q 224 380 224 482 z "},"q":{"ha":818,"x_min":65,"x_max":705,"o":"m 705 -319 l 594 -319 l 594 119 l 591 119 q 354 -16 519 -16 q 144 77 223 -16 q 65 331 65 170 q 152 607 65 504 q 385 711 239 711 q 591 598 528 711 l 594 598 l 594 694 l 705 694 l 705 -319 m 594 313 l 594 414 q 538 558 594 499 q 396 617 482 617 q 237 543 296 617 q 179 334 179 469 q 235 145 179 214 q 380 77 292 77 q 536 144 478 77 q 594 313 594 211 z "},"r":{"ha":483,"x_min":113,"x_max":475,"o":"m 475 582 q 391 604 446 604 q 272 537 319 604 q 224 354 224 470 l 224 0 l 113 0 l 113 694 l 224 694 l 224 551 l 227 551 q 299 666 250 625 q 408 707 348 707 q 475 697 452 707 l 475 582 z "},"s":{"ha":589,"x_min":71,"x_max":531,"o":"m 71 25 l 71 144 q 271 77 161 77 q 417 175 417 77 q 405 222 417 203 q 371 256 392 241 q 320 283 349 271 q 258 308 292 295 q 177 345 212 326 q 119 387 142 363 q 84 440 96 410 q 72 510 72 470 q 94 596 72 559 q 154 660 117 634 q 239 698 191 685 q 338 711 287 711 q 499 680 428 711 l 499 567 q 323 617 422 617 q 267 610 292 617 q 223 590 241 603 q 196 559 205 577 q 186 519 186 541 q 196 474 186 492 q 224 441 205 456 q 271 416 243 427 q 332 391 298 404 q 415 354 378 373 q 477 312 452 336 q 517 258 503 289 q 531 186 531 228 q 508 96 531 134 q 448 33 486 58 q 360 -4 410 8 q 256 -16 311 -16 q 71 25 149 -16 z "},"t":{"ha":471,"x_min":29,"x_max":435,"o":"m 435 7 q 331 -15 395 -15 q 149 189 149 -15 l 149 600 l 29 600 l 29 694 l 149 694 l 149 864 l 260 900 l 260 694 l 435 694 l 435 600 l 260 600 l 260 208 q 283 109 260 138 q 362 79 307 79 q 435 102 404 79 l 435 7 z "},"u":{"ha":786,"x_min":98,"x_max":674,"o":"m 674 0 l 563 0 l 563 110 l 560 110 q 346 -16 491 -16 q 98 279 98 -16 l 98 694 l 208 694 l 208 297 q 376 77 208 77 q 510 137 458 77 q 563 294 563 197 l 563 694 l 674 694 l 674 0 z "},"v":{"ha":665,"x_min":9,"x_max":659,"o":"m 659 694 l 382 0 l 273 0 l 9 694 l 132 694 l 308 190 q 332 93 328 134 l 335 93 q 357 187 342 145 l 541 694 l 659 694 z "},"w":{"ha":1004,"x_min":16,"x_max":987,"o":"m 987 694 l 779 0 l 664 0 l 521 497 q 510 562 513 526 l 507 562 q 493 498 505 537 l 338 0 l 227 0 l 16 694 l 133 694 l 277 172 q 286 110 283 149 l 292 110 q 304 174 294 140 l 464 694 l 566 694 l 709 171 q 720 109 716 146 l 725 109 q 736 171 726 135 l 878 694 l 987 694 z "},"x":{"ha":637,"x_min":18,"x_max":620,"o":"m 620 694 l 387 343 l 616 0 l 486 0 l 350 225 q 319 278 337 246 l 317 278 q 285 225 313 272 l 146 0 l 18 0 l 254 340 l 28 694 l 157 694 l 292 457 q 321 403 307 431 l 323 403 l 497 694 l 620 694 z "},"y":{"ha":672,"x_min":9,"x_max":665,"o":"m 665 694 l 346 -111 q 106 -327 260 -327 q 33 -318 62 -327 l 33 -218 q 99 -231 69 -231 q 225 -130 183 -231 l 281 1 l 9 694 l 133 694 l 321 160 q 335 107 324 150 l 339 107 q 353 159 342 123 l 550 694 l 665 694 z "},"z":{"ha":628,"x_min":22,"x_max":597,"o":"m 597 663 l 186 95 l 593 95 l 593 0 l 22 0 l 22 35 l 433 600 l 61 600 l 61 694 l 597 694 l 597 663 z "},"{":{"ha":419,"x_min":62,"x_max":376,"o":"m 376 -221 q 168 -11 168 -218 l 168 193 q 62 336 168 330 l 62 415 q 168 562 168 422 l 168 760 q 376 972 168 970 l 376 886 q 269 751 269 883 l 269 553 q 167 378 269 410 l 167 375 q 269 201 269 345 l 269 5 q 293 -102 269 -70 q 376 -136 317 -134 l 376 -221 z "},"|":{"ha":332,"x_min":117,"x_max":217,"o":"m 217 -327 l 117 -327 l 117 1062 l 217 1062 l 217 -327 z "},"}":{"ha":419,"x_min":45,"x_max":358,"o":"m 358 336 q 252 193 252 330 l 252 -11 q 45 -221 252 -218 l 45 -136 q 129 -102 104 -134 q 153 5 153 -69 l 153 201 q 254 375 153 345 l 254 378 q 153 553 153 410 l 153 751 q 45 886 153 883 l 45 972 q 252 760 252 970 l 252 562 q 358 415 252 422 l 358 336 z "},"~":{"ha":950,"x_min":142,"x_max":810,"o":"m 810 509 q 755 353 805 408 q 620 298 705 298 q 440 372 546 298 q 332 418 374 418 q 233 298 237 418 l 142 298 q 196 452 145 395 q 332 509 246 509 q 492 449 404 509 q 625 388 581 388 q 692 421 667 388 q 718 509 717 454 l 810 509 z "},"Ä":{"ha":896,"x_min":15,"x_max":880,"o":"m 880 0 l 754 0 l 651 273 l 239 273 l 142 0 l 15 0 l 388 972 l 506 972 l 880 0 m 614 375 l 461 789 q 446 854 454 810 l 444 854 q 428 789 437 813 l 277 375 l 614 375 m 570 1061 q 523 1080 543 1061 q 503 1128 503 1099 q 522 1176 503 1157 q 568 1195 541 1195 q 616 1176 597 1195 q 636 1128 636 1156 q 617 1081 636 1101 q 570 1061 598 1061 m 309 1061 q 261 1081 281 1061 q 241 1128 241 1101 q 260 1176 241 1157 q 307 1195 279 1195 q 355 1176 335 1195 q 376 1128 376 1156 q 356 1081 376 1101 q 309 1061 336 1061 z "},"Å":{"ha":896,"x_min":15,"x_max":880,"o":"m 880 0 l 754 0 l 651 273 l 239 273 l 142 0 l 15 0 l 374 935 q 305 1046 305 970 q 346 1143 305 1106 q 449 1181 387 1181 q 547 1144 509 1181 q 585 1050 585 1107 q 519 937 585 974 l 880 0 m 445 1125 q 389 1104 411 1125 q 368 1050 368 1082 q 445 972 368 972 q 500 995 477 972 q 522 1050 522 1017 q 500 1104 522 1083 q 445 1125 477 1125 m 614 375 l 461 789 q 446 854 454 810 l 444 854 q 428 789 437 813 l 277 375 l 614 375 z "},"Ç":{"ha":860,"x_min":64,"x_max":789,"o":"m 789 41 q 521 -16 682 -16 q 189 117 313 -16 q 64 468 64 251 q 204 845 64 701 q 560 989 345 989 q 789 949 699 989 l 789 827 q 559 886 685 886 q 287 774 391 886 q 183 475 183 662 q 280 192 183 297 q 536 86 378 86 q 789 151 682 86 l 789 41 m 651 -174 q 465 -293 651 -293 q 420 -292 439 -293 l 420 -231 q 468 -235 450 -235 q 564 -174 564 -235 q 476 -121 564 -121 q 448 -123 469 -121 l 448 0 l 522 0 l 522 -71 q 616 -98 581 -71 q 651 -174 651 -125 z "},"É":{"ha":703,"x_min":127,"x_max":643,"o":"m 643 0 l 127 0 l 127 972 l 621 972 l 621 869 l 241 869 l 241 546 l 593 546 l 593 444 l 241 444 l 241 103 l 643 103 l 643 0 m 545 1284 l 367 1061 l 281 1061 l 432 1284 l 545 1284 z "},"Ñ":{"ha":1039,"x_min":127,"x_max":911,"o":"m 911 0 l 772 0 l 271 775 q 240 836 252 804 l 236 836 q 241 703 241 805 l 241 0 l 127 0 l 127 972 l 275 972 l 762 210 q 802 144 793 162 l 804 144 q 798 288 798 186 l 798 972 l 911 972 l 911 0 m 755 1223 q 722 1106 755 1152 q 634 1061 690 1061 q 524 1097 586 1061 q 444 1126 472 1126 q 384 1049 384 1126 l 320 1049 q 353 1165 320 1122 q 444 1209 385 1209 q 545 1174 488 1209 q 631 1144 595 1144 q 688 1223 688 1144 l 755 1223 z "},"Ö":{"ha":1047,"x_min":64,"x_max":983,"o":"m 519 -16 q 188 120 313 -16 q 64 475 64 256 q 191 849 64 709 q 536 989 317 989 q 860 853 737 989 q 983 498 983 718 q 857 122 983 260 q 519 -16 731 -16 m 528 886 q 279 775 374 886 q 183 485 183 665 q 276 196 183 305 q 519 86 370 86 q 772 191 680 86 q 864 483 864 295 q 774 781 864 675 q 528 886 685 886 m 656 1060 q 610 1079 629 1060 q 590 1127 590 1098 q 609 1175 590 1156 q 655 1194 628 1194 q 703 1174 684 1194 q 723 1127 723 1155 q 704 1080 723 1099 q 656 1060 685 1060 m 396 1060 q 348 1080 368 1060 q 328 1127 328 1100 q 347 1175 328 1156 q 394 1194 366 1194 q 442 1174 422 1194 q 463 1127 463 1155 q 443 1080 463 1099 q 396 1060 423 1060 z "},"Ü":{"ha":954,"x_min":115,"x_max":839,"o":"m 839 393 q 469 -16 839 -16 q 115 378 115 -16 l 115 972 l 229 972 l 229 385 q 481 86 229 86 q 725 375 725 86 l 725 972 l 839 972 l 839 393 m 607 1063 q 560 1082 580 1063 q 541 1130 541 1101 q 559 1177 541 1158 q 606 1196 578 1196 q 654 1177 634 1196 q 673 1130 673 1158 q 654 1082 673 1102 q 607 1063 635 1063 m 347 1063 q 298 1083 318 1063 q 278 1130 278 1103 q 297 1177 278 1158 q 345 1196 317 1196 q 393 1177 372 1196 q 413 1130 413 1158 q 393 1082 413 1102 q 347 1063 374 1063 z "},"á":{"ha":707,"x_min":61,"x_max":610,"o":"m 610 0 l 498 0 l 498 109 l 496 109 q 282 -16 423 -16 q 120 39 178 -16 q 61 184 61 94 q 290 411 61 379 l 498 440 q 355 617 498 617 q 129 532 230 617 l 129 646 q 365 711 231 711 q 610 452 610 711 l 610 0 m 498 351 l 331 328 q 214 290 254 317 q 175 193 175 262 q 211 110 175 142 q 308 77 248 77 q 445 135 391 77 q 498 282 498 193 l 498 351 m 513 1048 l 336 826 l 250 826 l 401 1048 l 513 1048 z "},"à":{"ha":707,"x_min":61,"x_max":610,"o":"m 610 0 l 498 0 l 498 109 l 496 109 q 282 -16 423 -16 q 120 39 178 -16 q 61 184 61 94 q 290 411 61 379 l 498 440 q 355 617 498 617 q 129 532 230 617 l 129 646 q 365 711 231 711 q 610 452 610 711 l 610 0 m 498 351 l 331 328 q 214 290 254 317 q 175 193 175 262 q 211 110 175 142 q 308 77 248 77 q 445 135 391 77 q 498 282 498 193 l 498 351 m 457 826 l 371 826 l 193 1048 l 307 1048 l 457 826 z "},"â":{"ha":707,"x_min":61,"x_max":610,"o":"m 610 0 l 498 0 l 498 109 l 496 109 q 282 -16 423 -16 q 120 39 178 -16 q 61 184 61 94 q 290 411 61 379 l 498 440 q 355 617 498 617 q 129 532 230 617 l 129 646 q 365 711 231 711 q 610 452 610 711 l 610 0 m 498 351 l 331 328 q 214 290 254 317 q 175 193 175 262 q 211 110 175 142 q 308 77 248 77 q 445 135 391 77 q 498 282 498 193 l 498 351 m 547 826 l 464 826 l 353 982 l 241 826 l 164 826 l 310 1051 l 400 1051 l 547 826 z "},"ä":{"ha":707,"x_min":61,"x_max":610,"o":"m 610 0 l 498 0 l 498 109 l 496 109 q 282 -16 423 -16 q 120 39 178 -16 q 61 184 61 94 q 290 411 61 379 l 498 440 q 355 617 498 617 q 129 532 230 617 l 129 646 q 365 711 231 711 q 610 452 610 711 l 610 0 m 498 351 l 331 328 q 214 290 254 317 q 175 193 175 262 q 211 110 175 142 q 308 77 248 77 q 445 135 391 77 q 498 282 498 193 l 498 351 m 480 826 q 433 845 453 826 q 414 893 414 864 q 433 941 414 922 q 479 960 452 960 q 527 940 507 960 q 547 893 547 921 q 528 846 547 865 q 480 826 509 826 m 220 826 q 171 846 191 826 q 151 893 151 866 q 171 941 151 922 q 218 960 190 960 q 266 940 245 960 q 286 893 286 921 q 267 846 286 865 q 220 826 247 826 z "},"ã":{"ha":707,"x_min":61,"x_max":610,"o":"m 610 0 l 498 0 l 498 109 l 496 109 q 282 -16 423 -16 q 120 39 178 -16 q 61 184 61 94 q 290 411 61 379 l 498 440 q 355 617 498 617 q 129 532 230 617 l 129 646 q 365 711 231 711 q 610 452 610 711 l 610 0 m 498 351 l 331 328 q 214 290 254 317 q 175 193 175 262 q 211 110 175 142 q 308 77 248 77 q 445 135 391 77 q 498 282 498 193 l 498 351 m 572 989 q 540 872 572 918 q 452 827 507 827 q 342 863 404 827 q 261 892 290 892 q 201 815 201 892 l 138 815 q 170 931 138 888 q 261 975 203 975 q 362 940 305 975 q 449 910 412 910 q 506 989 506 910 l 572 989 z "},"å":{"ha":707,"x_min":61,"x_max":610,"o":"m 610 0 l 498 0 l 498 109 l 496 109 q 282 -16 423 -16 q 120 39 178 -16 q 61 184 61 94 q 290 411 61 379 l 498 440 q 355 617 498 617 q 129 532 230 617 l 129 646 q 365 711 231 711 q 610 452 610 711 l 610 0 m 498 351 l 331 328 q 214 290 254 317 q 175 193 175 262 q 211 110 175 142 q 308 77 248 77 q 445 135 391 77 q 498 282 498 193 l 498 351 m 351 798 q 253 833 292 798 q 214 926 214 869 q 254 1024 214 987 q 355 1061 294 1061 q 454 1024 416 1061 q 493 930 493 987 q 452 836 493 873 q 351 798 410 798 m 351 1006 q 296 984 318 1006 q 275 929 275 962 q 351 853 275 853 q 407 875 385 853 q 429 929 429 897 q 407 984 429 962 q 351 1006 385 1006 z "},"ç":{"ha":642,"x_min":65,"x_max":587,"o":"m 586 32 q 396 -16 506 -16 q 156 80 248 -16 q 65 331 65 177 q 163 607 65 503 q 426 711 262 711 q 587 677 517 711 l 587 563 q 422 617 510 617 q 247 541 315 617 q 179 340 179 465 q 243 148 179 218 q 415 77 307 77 q 586 138 506 77 l 586 32 m 528 -174 q 341 -293 528 -293 q 297 -292 315 -293 l 297 -231 q 345 -235 326 -235 q 440 -174 440 -235 q 353 -121 440 -121 q 325 -123 346 -121 l 325 0 l 398 0 l 398 -71 q 493 -98 458 -71 q 528 -174 528 -125 z "},"é":{"ha":726,"x_min":65,"x_max":671,"o":"m 671 319 l 180 319 q 243 140 183 203 q 407 77 302 77 q 623 155 524 77 l 623 50 q 380 -16 531 -16 q 149 78 233 -16 q 65 345 65 173 q 157 609 65 507 q 385 711 249 711 q 596 623 522 711 q 671 378 671 534 l 671 319 m 557 414 q 510 564 556 510 q 383 617 465 617 q 250 561 304 617 q 182 414 195 505 l 557 414 m 539 1048 l 361 826 l 275 826 l 427 1048 l 539 1048 z "},"è":{"ha":726,"x_min":65,"x_max":671,"o":"m 671 319 l 180 319 q 243 140 183 203 q 407 77 302 77 q 623 155 524 77 l 623 50 q 380 -16 531 -16 q 149 78 233 -16 q 65 345 65 173 q 157 609 65 507 q 385 711 249 711 q 596 623 522 711 q 671 378 671 534 l 671 319 m 557 414 q 510 564 556 510 q 383 617 465 617 q 250 561 304 617 q 182 414 195 505 l 557 414 m 492 826 l 406 826 l 228 1048 l 342 1048 l 492 826 z "},"ê":{"ha":726,"x_min":65,"x_max":671,"o":"m 671 319 l 180 319 q 243 140 183 203 q 407 77 302 77 q 623 155 524 77 l 623 50 q 380 -16 531 -16 q 149 78 233 -16 q 65 345 65 173 q 157 609 65 507 q 385 711 249 711 q 596 623 522 711 q 671 378 671 534 l 671 319 m 557 414 q 510 564 556 510 q 383 617 465 617 q 250 561 304 617 q 182 414 195 505 l 557 414 m 570 826 l 487 826 l 376 982 l 264 826 l 187 826 l 333 1051 l 423 1051 l 570 826 z "},"ë":{"ha":726,"x_min":65,"x_max":671,"o":"m 671 319 l 180 319 q 243 140 183 203 q 407 77 302 77 q 623 155 524 77 l 623 50 q 380 -16 531 -16 q 149 78 233 -16 q 65 345 65 173 q 157 609 65 507 q 385 711 249 711 q 596 623 522 711 q 671 378 671 534 l 671 319 m 557 414 q 510 564 556 510 q 383 617 465 617 q 250 561 304 617 q 182 414 195 505 l 557 414 m 506 826 q 459 845 479 826 q 439 893 439 864 q 458 941 439 922 q 505 960 477 960 q 553 940 533 960 q 572 893 572 921 q 553 846 572 865 q 506 826 534 826 m 245 826 q 197 846 217 826 q 177 893 177 866 q 196 941 177 922 q 243 960 216 960 q 292 940 271 960 q 312 893 312 921 q 292 846 312 865 q 245 826 273 826 z "},"í":{"ha":336,"x_min":60,"x_max":323,"o":"m 224 0 l 113 0 l 113 694 l 224 694 l 224 0 m 323 1048 l 146 826 l 60 826 l 211 1048 l 323 1048 z "},"ì":{"ha":336,"x_min":-14,"x_max":250,"o":"m 224 0 l 113 0 l 113 694 l 224 694 l 224 0 m 250 826 l 164 826 l -14 1048 l 100 1048 l 250 826 z "},"î":{"ha":336,"x_min":-31,"x_max":352,"o":"m 224 0 l 113 0 l 113 694 l 224 694 l 224 0 m 352 826 l 269 826 l 158 982 l 46 826 l -31 826 l 115 1051 l 205 1051 l 352 826 z "},"ï":{"ha":336,"x_min":-37,"x_max":358,"o":"m 224 0 l 113 0 l 113 694 l 224 694 l 224 0 m 292 826 q 245 845 264 826 q 225 893 225 864 q 244 941 225 922 q 290 960 263 960 q 338 940 319 960 q 358 893 358 921 q 339 846 358 865 q 292 826 320 826 m 31 826 q -17 846 3 826 q -37 893 -37 866 q -18 941 -37 922 q 29 960 1 960 q 77 940 57 960 q 98 893 98 921 q 78 846 98 865 q 31 826 58 826 z "},"ñ":{"ha":786,"x_min":113,"x_max":689,"o":"m 689 0 l 578 0 l 578 396 q 416 617 578 617 q 278 554 333 617 q 224 396 224 492 l 224 0 l 113 0 l 113 694 l 224 694 l 224 579 l 227 579 q 454 711 305 711 q 629 637 568 711 q 689 425 689 564 l 689 0 m 616 989 q 583 872 616 918 q 495 827 551 827 q 385 863 447 827 q 304 892 333 892 q 245 815 245 892 l 181 815 q 214 931 181 888 q 304 975 246 975 q 406 940 349 975 q 492 910 456 910 q 549 989 549 910 l 616 989 z "},"ó":{"ha":814,"x_min":65,"x_max":749,"o":"m 403 -16 q 157 81 249 -16 q 65 339 65 178 q 161 612 65 514 q 419 711 256 711 q 662 615 574 711 q 749 350 749 519 q 655 84 749 184 q 403 -16 561 -16 m 411 617 q 241 544 304 617 q 179 343 179 471 q 242 149 179 220 q 411 77 305 77 q 577 147 519 77 q 635 346 635 217 q 577 547 635 476 q 411 617 519 617 m 574 1048 l 396 826 l 310 826 l 461 1048 l 574 1048 z "},"ò":{"ha":814,"x_min":65,"x_max":749,"o":"m 403 -16 q 157 81 249 -16 q 65 339 65 178 q 161 612 65 514 q 419 711 256 711 q 662 615 574 711 q 749 350 749 519 q 655 84 749 184 q 403 -16 561 -16 m 411 617 q 241 544 304 617 q 179 343 179 471 q 242 149 179 220 q 411 77 305 77 q 577 147 519 77 q 635 346 635 217 q 577 547 635 476 q 411 617 519 617 m 507 826 l 420 826 l 243 1048 l 357 1048 l 507 826 z "},"ô":{"ha":814,"x_min":65,"x_max":749,"o":"m 403 -16 q 157 81 249 -16 q 65 339 65 178 q 161 612 65 514 q 419 711 256 711 q 662 615 574 711 q 749 350 749 519 q 655 84 749 184 q 403 -16 561 -16 m 411 617 q 241 544 304 617 q 179 343 179 471 q 242 149 179 220 q 411 77 305 77 q 577 147 519 77 q 635 346 635 217 q 577 547 635 476 q 411 617 519 617 m 600 826 l 517 826 l 406 982 l 294 826 l 218 826 l 363 1051 l 454 1051 l 600 826 z "},"ö":{"ha":814,"x_min":65,"x_max":749,"o":"m 403 -16 q 157 81 249 -16 q 65 339 65 178 q 161 612 65 514 q 419 711 256 711 q 662 615 574 711 q 749 350 749 519 q 655 84 749 184 q 403 -16 561 -16 m 411 617 q 241 544 304 617 q 179 343 179 471 q 242 149 179 220 q 411 77 305 77 q 577 147 519 77 q 635 346 635 217 q 577 547 635 476 q 411 617 519 617 m 538 826 q 491 845 511 826 q 471 893 471 864 q 490 941 471 922 q 536 960 509 960 q 585 940 565 960 q 604 893 604 921 q 585 846 604 865 q 538 826 566 826 m 277 826 q 229 846 249 826 q 209 893 209 866 q 228 941 209 922 q 275 960 248 960 q 323 940 303 960 q 344 893 344 921 q 324 846 344 865 q 277 826 304 826 z "},"õ":{"ha":814,"x_min":65,"x_max":749,"o":"m 403 -16 q 157 81 249 -16 q 65 339 65 178 q 161 612 65 514 q 419 711 256 711 q 662 615 574 711 q 749 350 749 519 q 655 84 749 184 q 403 -16 561 -16 m 411 617 q 241 544 304 617 q 179 343 179 471 q 242 149 179 220 q 411 77 305 77 q 577 147 519 77 q 635 346 635 217 q 577 547 635 476 q 411 617 519 617 m 631 989 q 599 872 631 918 q 511 827 566 827 q 401 863 463 827 q 320 892 349 892 q 260 815 260 892 l 197 815 q 229 931 197 888 q 320 975 262 975 q 421 940 364 975 q 508 910 471 910 q 565 989 565 910 l 631 989 z "},"ú":{"ha":786,"x_min":98,"x_max":674,"o":"m 674 0 l 563 0 l 563 110 l 560 110 q 346 -16 491 -16 q 98 279 98 -16 l 98 694 l 208 694 l 208 297 q 376 77 208 77 q 510 137 458 77 q 563 294 563 197 l 563 694 l 674 694 l 674 0 m 570 1048 l 392 826 l 306 826 l 457 1048 l 570 1048 z "},"ù":{"ha":786,"x_min":98,"x_max":674,"o":"m 674 0 l 563 0 l 563 110 l 560 110 q 346 -16 491 -16 q 98 279 98 -16 l 98 694 l 208 694 l 208 297 q 376 77 208 77 q 510 137 458 77 q 563 294 563 197 l 563 694 l 674 694 l 674 0 m 478 826 l 392 826 l 214 1048 l 328 1048 l 478 826 z "},"û":{"ha":786,"x_min":98,"x_max":674,"o":"m 674 0 l 563 0 l 563 110 l 560 110 q 346 -16 491 -16 q 98 279 98 -16 l 98 694 l 208 694 l 208 297 q 376 77 208 77 q 510 137 458 77 q 563 294 563 197 l 563 694 l 674 694 l 674 0 m 579 826 l 496 826 l 385 982 l 273 826 l 197 826 l 342 1051 l 433 1051 l 579 826 z "},"ü":{"ha":786,"x_min":98,"x_max":674,"o":"m 674 0 l 563 0 l 563 110 l 560 110 q 346 -16 491 -16 q 98 279 98 -16 l 98 694 l 208 694 l 208 297 q 376 77 208 77 q 510 137 458 77 q 563 294 563 197 l 563 694 l 674 694 l 674 0 m 522 826 q 475 845 495 826 q 456 893 456 864 q 475 941 456 922 q 521 960 494 960 q 569 940 549 960 q 589 893 589 921 q 570 846 589 865 q 522 826 551 826 m 262 826 q 213 846 233 826 q 193 893 193 866 q 213 941 193 922 q 260 960 232 960 q 308 940 288 960 q 328 893 328 921 q 309 846 328 865 q 262 826 289 826 z "},"†":{"ha":521,"x_min":33,"x_max":494,"o":"m 494 606 l 316 626 l 289 155 l 237 155 l 210 626 l 33 606 l 33 707 l 237 694 l 210 972 l 316 972 l 289 694 l 494 707 l 494 606 z "},"°":{"ha":524,"x_min":73,"x_max":449,"o":"m 261 608 q 128 664 183 608 q 73 798 73 719 q 127 929 73 876 q 260 983 182 983 q 394 929 338 983 q 449 798 449 875 q 394 664 449 719 q 261 608 339 608 m 261 904 q 186 873 217 904 q 155 798 155 842 q 185 720 155 752 q 260 688 216 688 q 336 720 304 688 q 368 798 368 753 q 336 873 368 842 q 261 904 305 904 z "},"¢":{"ha":749,"x_min":125,"x_max":646,"o":"m 646 142 q 496 95 581 102 l 496 -33 l 411 -33 l 411 96 q 202 205 280 111 q 125 440 125 300 q 202 689 125 589 q 411 814 280 789 l 411 958 l 496 958 l 496 821 q 646 786 579 819 l 646 669 q 496 722 577 718 l 496 190 q 646 248 578 198 l 646 142 m 411 197 l 411 713 q 284 623 330 692 q 239 452 239 553 q 285 283 239 350 q 411 197 331 216 z "},"£":{"ha":749,"x_min":72,"x_max":682,"o":"m 682 0 l 72 0 l 72 92 q 220 304 220 138 l 220 431 l 86 431 l 86 526 l 220 526 l 220 699 q 294 907 220 826 q 485 989 368 989 q 629 961 564 989 l 629 856 q 486 895 562 895 q 331 686 331 895 l 331 526 l 532 526 l 532 431 l 331 431 l 331 325 q 200 95 331 161 l 682 95 l 682 0 z "},"§":{"ha":623,"x_min":89,"x_max":547,"o":"m 446 282 q 507 156 507 232 q 439 11 507 66 q 267 -45 372 -45 q 104 -7 178 -45 l 104 100 q 274 50 193 50 q 362 77 331 50 q 393 144 393 104 q 369 205 393 180 q 247 282 345 230 q 89 497 89 365 q 189 663 89 608 q 117 814 117 719 q 180 956 117 900 q 347 1011 243 1011 q 496 982 435 1011 l 496 875 q 345 917 427 917 q 231 819 231 917 q 258 751 231 782 q 396 668 286 721 q 547 469 547 595 q 446 282 547 354 m 270 614 q 201 506 201 579 q 240 420 201 457 q 374 340 278 383 q 433 457 433 387 q 398 540 433 506 q 270 614 362 574 z "},"•":{"ha":564,"x_min":111,"x_max":453,"o":"m 283 277 q 162 326 213 277 q 111 446 111 376 q 162 567 111 516 q 283 618 213 618 q 404 568 354 618 q 453 446 453 517 q 404 326 453 376 q 283 277 354 277 z "},"¶":{"ha":636,"x_min":57,"x_max":566,"o":"m 566 903 l 479 903 l 479 0 l 407 0 l 407 903 l 300 903 l 300 0 l 227 0 l 227 612 q 105 664 153 612 q 57 793 57 715 q 107 923 57 873 q 231 972 158 972 l 566 972 l 566 903 z "},"ß":{"ha":755,"x_min":113,"x_max":708,"o":"m 313 1 l 313 110 q 428 77 363 77 q 548 127 502 77 q 594 261 594 177 q 526 426 594 363 q 338 503 458 490 l 338 591 q 469 661 418 605 q 521 795 521 718 q 484 908 521 868 q 380 949 446 949 q 224 739 224 949 l 224 0 l 113 0 l 113 755 q 187 964 113 886 q 388 1043 262 1043 q 568 979 500 1043 q 635 808 635 914 q 584 654 635 722 q 452 559 533 585 l 452 555 q 708 267 708 505 q 633 65 708 146 q 433 -16 557 -16 q 313 1 365 -16 z "},"­":{"ha":555,"x_min":98,"x_max":468,"o":"m 468 343 l 98 343 l 98 431 l 468 431 l 468 343 z "},"®":{"ha":1236,"x_min":110,"x_max":1126,"o":"m 618 -22 q 259 126 408 -22 q 110 486 110 275 q 259 846 110 697 q 618 995 408 995 q 978 846 829 995 q 1126 486 1126 697 q 978 126 1126 275 q 618 -22 829 -22 m 618 935 q 301 804 433 935 q 170 486 170 672 q 301 169 170 300 q 618 38 433 38 q 936 169 804 38 q 1067 486 1067 300 q 936 804 1067 672 q 618 935 804 935 m 865 168 l 755 168 l 685 323 q 570 440 631 440 l 510 440 l 510 168 l 420 168 l 420 815 l 602 815 q 776 768 715 815 q 838 639 838 720 q 794 526 838 572 q 674 463 751 479 l 674 460 q 781 340 728 448 l 865 168 m 510 738 l 510 517 l 607 517 q 741 628 741 517 q 705 713 741 688 q 591 738 669 738 l 510 738 z "},"©":{"ha":1236,"x_min":110,"x_max":1126,"o":"m 618 -22 q 259 126 408 -22 q 110 486 110 275 q 259 846 110 697 q 618 995 408 995 q 978 846 829 995 q 1126 486 1126 697 q 978 126 1126 275 q 618 -22 829 -22 m 618 935 q 301 804 433 935 q 170 486 170 672 q 301 169 170 300 q 618 38 433 38 q 936 169 804 38 q 1067 486 1067 300 q 936 804 1067 672 q 618 935 804 935 m 823 180 q 640 134 745 134 q 403 230 498 134 q 307 469 307 326 q 405 736 307 637 q 660 836 503 836 q 820 800 749 836 l 820 699 q 648 747 755 747 q 473 675 542 747 q 404 481 404 603 q 474 291 404 363 q 653 220 545 220 q 823 273 752 220 l 823 180 z "},"™":{"ha":1074,"x_min":52,"x_max":947,"o":"m 947 524 l 873 524 l 873 848 l 871 848 l 722 524 l 682 524 l 537 848 l 534 848 l 534 524 l 465 524 l 465 972 l 551 972 l 704 636 l 707 636 l 861 972 l 947 972 l 947 524 m 408 906 l 267 906 l 267 524 l 191 524 l 191 906 l 52 906 l 52 972 l 408 972 l 408 906 z "},"´":{"ha":392,"x_min":92,"x_max":355,"o":"m 355 1048 l 178 826 l 92 826 l 243 1048 l 355 1048 z "},"¨":{"ha":575,"x_min":85,"x_max":480,"o":"m 414 826 q 367 845 387 826 q 347 893 347 864 q 366 941 347 922 q 412 960 385 960 q 460 940 441 960 q 480 893 480 921 q 461 846 480 865 q 414 826 442 826 m 153 826 q 105 846 125 826 q 85 893 85 866 q 104 941 85 922 q 151 960 123 960 q 199 940 179 960 q 220 893 220 921 q 200 846 220 865 q 153 826 180 826 z "},"≠":{"ha":951,"x_min":157,"x_max":795,"o":"m 795 216 l 422 216 l 311 0 l 216 0 l 327 216 l 157 216 l 157 305 l 374 305 l 475 505 l 157 505 l 157 594 l 522 594 l 629 806 l 725 806 l 617 594 l 795 594 l 795 505 l 571 505 l 468 305 l 795 305 l 795 216 z "},"Æ":{"ha":1195,"x_min":7,"x_max":1131,"o":"m 1131 0 l 616 0 l 616 273 l 270 273 l 139 0 l 7 0 l 481 972 l 1108 972 l 1108 869 l 729 869 l 729 546 l 1081 546 l 1081 444 l 729 444 l 729 103 l 1131 103 l 1131 0 m 616 375 l 616 869 l 551 869 l 317 375 l 616 375 z "},"Ø":{"ha":1047,"x_min":64,"x_max":983,"o":"m 220 89 l 117 -35 l 64 9 l 171 139 q 64 475 64 271 q 190 848 64 707 q 536 989 317 989 q 808 901 694 989 l 900 1011 l 953 968 l 859 856 q 983 498 983 720 q 857 122 983 260 q 519 -16 731 -16 q 220 89 339 -16 m 739 817 q 528 886 654 886 q 278 774 374 886 q 183 485 183 663 q 250 232 183 334 l 739 817 m 785 766 l 293 179 q 519 86 382 86 q 772 191 680 86 q 864 483 864 296 q 785 766 864 659 z "},"∞":{"ha":1135,"x_min":56,"x_max":1081,"o":"m 567 327 q 308 140 453 140 q 126 213 196 140 q 56 401 56 285 q 129 590 56 511 q 308 668 202 668 q 570 483 468 668 q 827 668 681 668 q 1010 596 940 668 q 1081 407 1081 524 q 1008 219 1081 298 q 827 140 935 140 q 567 327 674 140 m 611 404 q 827 228 700 228 q 946 277 901 228 q 990 407 990 326 q 944 533 990 483 q 827 583 898 583 q 611 404 710 583 m 525 406 q 308 583 435 583 q 189 532 233 583 q 144 401 144 481 q 190 277 144 327 q 308 228 236 228 q 525 406 427 228 z "},"±":{"ha":950,"x_min":157,"x_max":795,"o":"m 795 442 l 521 442 l 521 168 l 432 168 l 432 442 l 157 442 l 157 532 l 432 532 l 432 806 l 521 806 l 521 532 l 795 532 l 795 442 m 795 0 l 157 0 l 157 90 l 795 90 l 795 0 z "},"≤":{"ha":951,"x_min":157,"x_max":795,"o":"m 768 172 l 184 467 l 184 506 l 768 832 l 768 730 l 332 490 l 332 488 l 768 275 l 768 172 m 795 0 l 157 0 l 157 90 l 795 90 l 795 0 z "},"≥":{"ha":951,"x_min":157,"x_max":795,"o":"m 768 468 l 184 174 l 184 277 l 621 486 l 621 490 l 184 732 l 184 833 l 768 507 l 768 468 m 795 0 l 157 0 l 157 90 l 795 90 l 795 0 z "},"¥":{"ha":749,"x_min":46,"x_max":707,"o":"m 707 972 l 465 528 l 659 528 l 659 433 l 432 433 l 432 293 l 659 293 l 659 199 l 432 199 l 432 0 l 321 0 l 321 199 l 87 199 l 87 293 l 321 293 l 321 433 l 87 433 l 87 528 l 285 528 l 46 972 l 176 972 l 346 624 q 378 549 365 585 l 380 549 q 414 628 389 577 l 585 972 l 707 972 z "},"µ":{"ha":802,"x_min":113,"x_max":711,"o":"m 711 0 l 595 0 q 580 114 580 49 l 576 114 q 387 -16 519 -16 q 226 68 274 -16 l 223 68 l 223 -269 l 113 -269 l 113 694 l 223 694 l 223 270 q 270 133 223 184 q 392 82 317 82 q 525 140 474 82 q 576 297 576 199 l 576 694 l 689 694 l 689 180 q 711 0 689 52 z "},"∂":{"ha":743,"x_min":53,"x_max":697,"o":"m 585 591 l 587 591 q 407 914 605 914 q 240 860 323 914 l 267 966 q 435 1010 347 1010 q 632 920 566 1010 q 697 633 697 831 q 653 321 697 484 q 517 71 609 158 q 301 -16 426 -16 q 121 56 189 -16 q 53 251 53 128 q 153 570 53 435 q 407 705 253 705 q 585 591 528 705 m 576 469 q 420 611 537 611 q 239 505 312 611 q 167 256 167 398 q 205 125 167 173 q 309 77 243 77 q 485 185 412 77 q 576 469 558 294 z "},"∑":{"ha":857,"x_min":35,"x_max":821,"o":"m 821 -318 l 35 -318 l 35 -265 l 493 334 l 60 911 l 60 972 l 793 972 l 793 868 l 227 868 l 629 336 l 205 -214 l 821 -214 l 821 -318 z "},"∏":{"ha":1047,"x_min":127,"x_max":924,"o":"m 924 -318 l 810 -318 l 810 868 l 241 868 l 241 -318 l 127 -318 l 127 972 l 924 972 l 924 -318 z "},"∫":{"ha":749,"x_min":129,"x_max":621,"o":"m 621 930 q 546 949 589 949 q 431 802 431 949 l 431 -95 q 367 -266 431 -202 q 210 -330 304 -330 q 129 -317 159 -330 l 129 -217 q 203 -235 161 -235 q 319 -87 319 -235 l 319 807 q 383 979 319 916 q 540 1043 446 1043 q 621 1031 591 1043 l 621 930 z "},"ª":{"ha":545,"x_min":56,"x_max":467,"o":"m 467 486 l 379 486 l 379 554 l 376 554 q 220 473 323 473 q 101 514 146 473 q 56 617 56 554 q 224 777 56 754 l 379 798 q 277 911 379 911 q 104 853 184 911 l 104 940 q 285 987 180 987 q 418 939 370 987 q 467 802 467 890 l 467 486 m 379 729 l 257 712 q 143 621 143 696 q 169 565 143 587 q 239 543 195 543 q 337 585 294 543 q 379 684 379 626 l 379 729 z "},"º":{"ha":598,"x_min":53,"x_max":545,"o":"m 296 472 q 118 540 182 472 q 53 725 53 608 q 122 917 53 848 q 307 986 192 986 q 481 919 417 986 q 545 735 545 851 q 477 543 545 614 q 296 472 410 472 m 301 911 q 187 863 229 911 q 144 728 144 814 q 185 596 144 644 q 300 549 225 549 q 413 597 371 549 q 454 729 454 646 q 413 863 454 814 q 301 911 372 911 z "},"Ω":{"ha":1048,"x_min":68,"x_max":983,"o":"m 983 0 l 631 0 l 631 100 q 865 529 865 273 q 770 792 865 695 q 528 888 676 888 q 281 792 377 888 q 186 530 186 696 q 420 100 186 273 l 420 0 l 68 0 l 68 100 l 304 100 q 68 532 68 259 q 193 867 68 745 q 524 989 319 989 q 858 868 733 989 q 983 533 983 747 q 747 100 983 260 l 983 100 l 983 0 z "},"æ":{"ha":1156,"x_min":61,"x_max":1100,"o":"m 1100 319 l 608 319 q 670 140 610 203 q 833 77 730 77 q 1051 155 954 77 l 1051 50 q 808 -16 962 -16 q 549 139 625 -16 l 546 139 q 283 -16 448 -16 q 120 38 180 -16 q 61 184 61 93 q 321 404 61 388 l 498 415 q 353 617 498 617 q 129 534 234 617 l 129 646 q 365 711 229 711 q 568 575 522 711 l 571 575 q 812 711 650 711 q 1025 622 949 711 q 1100 376 1100 534 l 1100 319 m 986 414 q 940 564 985 511 q 814 617 895 617 q 679 562 735 617 q 610 414 623 506 l 986 414 m 498 278 l 498 321 l 361 313 q 220 279 267 307 q 174 187 174 252 q 210 107 174 138 q 307 77 245 77 q 443 135 387 77 q 498 278 498 192 z "},"ø":{"ha":814,"x_min":33,"x_max":796,"o":"m 796 711 l 682 589 q 749 354 749 495 q 654 83 749 183 q 403 -16 560 -16 q 187 53 273 -16 l 89 -56 l 33 -3 l 134 109 q 65 339 65 201 q 161 612 65 514 q 420 711 258 711 q 629 644 545 711 l 739 764 l 796 711 m 557 567 q 411 617 503 617 q 241 544 303 617 q 179 343 179 471 q 213 191 179 254 l 557 567 m 604 503 l 260 129 q 410 77 319 77 q 578 148 520 77 q 636 347 636 218 q 604 503 636 438 z "},"¿":{"ha":623,"x_min":97,"x_max":562,"o":"m 424 427 q 435 381 430 410 q 439 326 439 353 q 422 247 439 282 q 379 182 405 212 q 323 123 353 151 q 267 66 292 95 q 223 6 241 37 q 206 -64 206 -26 q 219 -121 206 -96 q 253 -163 231 -146 q 303 -189 275 -180 q 363 -197 332 -197 q 562 -107 478 -197 l 562 -227 q 347 -292 458 -292 q 250 -278 296 -292 q 171 -238 205 -264 q 117 -171 137 -211 q 97 -78 97 -131 q 115 12 97 -28 q 159 84 132 51 q 217 145 186 117 q 275 202 248 174 q 319 260 302 230 q 337 328 337 291 q 330 384 337 359 q 315 427 322 410 l 424 427 m 363 709 q 416 688 393 709 q 438 635 438 667 q 416 582 438 604 q 363 559 393 559 q 310 582 332 559 q 288 635 288 604 q 310 688 288 667 q 363 709 333 709 z "}," ":{"ha":380,"x_min":0,"x_max":0,"o":""},"¡":{"ha":395,"x_min":122,"x_max":273,"o":"m 197 560 q 144 582 166 560 q 122 635 122 604 q 144 688 122 666 q 197 709 166 709 q 250 688 228 709 q 273 635 273 666 q 250 582 273 604 q 197 560 228 560 m 257 -275 l 140 -275 l 153 423 l 244 423 l 257 -275 z "},"¬":{"ha":950,"x_min":157,"x_max":795,"o":"m 795 172 l 705 172 l 705 464 l 157 464 l 157 554 l 795 554 l 795 172 z "},"√":{"ha":903,"x_min":83,"x_max":755,"o":"m 755 1028 l 492 0 l 415 0 l 199 509 l 83 509 l 83 590 l 262 590 l 449 142 l 675 1028 l 755 1028 z "},"ƒ":{"ha":749,"x_min":64,"x_max":646,"o":"m 646 859 q 572 878 613 878 q 457 769 473 878 l 436 628 l 549 628 l 549 534 l 422 534 l 361 95 q 125 -189 321 -189 q 64 -178 104 -189 l 64 -81 q 122 -95 88 -95 q 251 103 224 -95 l 313 534 l 243 534 l 243 628 l 327 628 l 346 777 q 417 919 357 865 q 567 972 476 972 q 646 960 610 972 l 646 859 z "},"≈":{"ha":951,"x_min":142,"x_max":810,"o":"m 810 651 q 755 497 805 552 q 620 442 705 442 q 440 515 546 442 q 332 562 374 562 q 233 442 237 562 l 142 442 q 196 595 145 540 q 332 651 246 651 q 492 591 404 651 q 625 530 581 530 q 692 564 667 530 q 718 651 717 597 l 810 651 m 810 372 q 755 218 805 273 q 620 163 705 163 q 440 236 546 163 q 332 281 376 281 q 233 163 237 281 l 142 163 q 196 316 145 260 q 332 372 246 372 q 492 313 404 372 q 625 251 581 251 q 692 285 667 251 q 718 372 717 319 l 810 372 z "},"∆":{"ha":895,"x_min":35,"x_max":863,"o":"m 863 0 l 35 0 l 35 52 l 388 972 l 506 972 l 863 52 l 863 0 m 717 103 l 472 760 q 446 856 450 819 l 444 856 q 416 760 439 823 l 178 103 l 717 103 z "},"«":{"ha":703,"x_min":62,"x_max":643,"o":"m 642 136 l 528 136 l 325 363 l 528 597 l 643 597 l 435 363 l 642 136 m 378 136 l 265 136 l 62 363 l 265 597 l 378 597 l 172 363 l 378 136 z "},"»":{"ha":703,"x_min":61,"x_max":643,"o":"m 643 365 l 439 136 l 327 136 l 532 365 l 327 597 l 439 597 l 643 365 m 379 365 l 176 136 l 61 136 l 270 365 l 61 597 l 176 597 l 379 365 z "},"…":{"ha":1018,"x_min":95,"x_max":924,"o":"m 849 -12 q 797 9 818 -12 q 775 62 775 31 q 797 116 775 94 q 849 139 818 139 q 902 116 880 139 q 924 62 924 94 q 902 9 924 31 q 849 -12 880 -12 m 509 -12 q 455 9 477 -12 q 433 62 433 31 q 455 116 433 94 q 509 139 477 139 q 561 116 539 139 q 583 62 583 94 q 561 9 583 31 q 509 -12 539 -12 m 168 -12 q 116 9 137 -12 q 95 62 95 31 q 116 116 95 94 q 168 139 137 139 q 221 116 199 139 q 243 62 243 94 q 221 9 243 31 q 168 -12 199 -12 z "},"À":{"ha":896,"x_min":15,"x_max":880,"o":"m 880 0 l 754 0 l 651 273 l 239 273 l 142 0 l 15 0 l 388 972 l 506 972 l 880 0 m 614 375 l 461 789 q 446 854 454 810 l 444 854 q 428 789 437 813 l 277 375 l 614 375 m 514 1062 l 428 1062 l 250 1284 l 364 1284 l 514 1062 z "},"Ã":{"ha":896,"x_min":15,"x_max":880,"o":"m 880 0 l 754 0 l 651 273 l 239 273 l 142 0 l 15 0 l 388 972 l 506 972 l 880 0 m 614 375 l 461 789 q 446 854 454 810 l 444 854 q 428 789 437 813 l 277 375 l 614 375 m 663 1223 q 630 1106 663 1152 q 542 1061 597 1061 q 432 1097 494 1061 q 351 1126 380 1126 q 292 1049 292 1126 l 228 1049 q 260 1165 228 1122 q 351 1209 293 1209 q 452 1174 395 1209 q 539 1144 503 1144 q 596 1223 596 1144 l 663 1223 z "},"Õ":{"ha":1047,"x_min":64,"x_max":983,"o":"m 519 -16 q 188 120 313 -16 q 64 475 64 256 q 191 849 64 709 q 536 989 317 989 q 860 853 737 989 q 983 498 983 718 q 857 122 983 260 q 519 -16 731 -16 m 528 886 q 279 775 374 886 q 183 485 183 665 q 276 196 183 305 q 519 86 370 86 q 772 191 680 86 q 864 483 864 295 q 774 781 864 675 q 528 886 685 886 m 748 1222 q 715 1106 748 1151 q 627 1061 683 1061 q 517 1096 579 1061 q 437 1125 465 1125 q 377 1048 377 1125 l 313 1048 q 346 1165 313 1121 q 437 1208 378 1208 q 538 1173 481 1208 q 625 1143 588 1143 q 682 1222 682 1143 l 748 1222 z "},"Œ":{"ha":1293,"x_min":64,"x_max":1227,"o":"m 1227 0 l 739 0 q 646 -9 728 0 q 522 -16 579 -16 q 187 120 311 -16 q 64 475 64 256 q 192 849 64 709 q 541 989 321 989 q 662 982 602 989 q 739 972 738 972 l 1206 972 l 1206 869 l 826 869 l 826 546 l 1177 546 l 1177 444 l 826 444 l 826 103 l 1227 103 l 1227 0 m 712 109 l 712 867 q 530 886 604 886 q 279 773 375 886 q 183 485 183 661 q 278 198 183 310 q 526 86 372 86 q 712 109 605 86 z "},"œ":{"ha":1289,"x_min":65,"x_max":1238,"o":"m 1238 319 l 746 319 q 808 140 748 203 q 972 77 868 77 q 1189 155 1091 77 l 1189 50 q 947 -16 1097 -16 q 688 144 764 -16 l 685 144 q 403 -16 596 -16 q 156 81 248 -16 q 65 338 65 178 q 161 612 65 513 q 420 711 258 711 q 693 551 620 711 l 696 551 q 957 711 777 711 q 1164 622 1090 711 q 1238 379 1238 532 l 1238 319 m 1124 414 q 1077 564 1122 510 q 953 617 1031 617 q 815 559 871 617 q 747 414 758 501 l 1124 414 m 411 617 q 241 544 304 617 q 179 340 179 470 q 241 148 179 218 q 410 77 304 77 q 576 147 517 77 q 635 345 635 216 q 576 547 635 476 q 411 617 517 617 z "},"–":{"ha":694,"x_min":0,"x_max":694,"o":"m 694 343 l 0 343 l 0 431 l 694 431 l 694 343 z "},"—":{"ha":1389,"x_min":0,"x_max":1389,"o":"m 1389 343 l 0 343 l 0 431 l 1389 431 l 1389 343 z "},"“":{"ha":524,"x_min":72,"x_max":453,"o":"m 453 989 l 378 686 l 278 686 l 374 989 l 453 989 m 247 989 l 174 686 l 72 686 l 167 989 l 247 989 z "},"”":{"ha":524,"x_min":75,"x_max":456,"o":"m 456 989 l 361 686 l 281 686 l 354 989 l 456 989 m 250 989 l 155 686 l 75 686 l 150 989 l 250 989 z "},"‘":{"ha":318,"x_min":72,"x_max":247,"o":"m 247 989 l 174 686 l 72 686 l 167 989 l 247 989 z "},"’":{"ha":318,"x_min":75,"x_max":250,"o":"m 250 989 l 155 686 l 75 686 l 150 989 l 250 989 z "},"÷":{"ha":950,"x_min":157,"x_max":795,"o":"m 480 589 q 430 609 450 589 q 410 660 410 630 q 429 712 410 690 q 480 734 449 734 q 550 661 550 734 q 529 609 550 629 q 480 589 509 589 m 795 359 l 157 359 l 157 450 l 795 450 l 795 359 m 477 76 q 427 96 448 76 q 406 146 406 117 q 426 199 406 176 q 477 221 446 221 q 546 147 546 221 q 526 96 546 117 q 477 76 507 76 z "},"◊":{"ha":810,"x_min":73,"x_max":738,"o":"m 738 486 l 431 0 l 379 0 l 73 485 l 379 972 l 431 972 l 738 486 m 647 486 l 406 876 l 164 486 l 406 95 l 647 486 z "},"ÿ":{"ha":672,"x_min":9,"x_max":665,"o":"m 665 694 l 346 -111 q 106 -327 260 -327 q 33 -318 62 -327 l 33 -218 q 99 -231 69 -231 q 225 -130 183 -231 l 281 1 l 9 694 l 133 694 l 321 160 q 335 107 324 150 l 339 107 q 353 159 342 123 l 550 694 l 665 694 m 467 826 q 420 845 440 826 q 401 893 401 864 q 420 941 401 922 q 466 960 439 960 q 514 940 494 960 q 534 893 534 921 q 515 846 534 865 q 467 826 496 826 m 207 826 q 158 846 178 826 q 138 893 138 866 q 158 941 138 922 q 205 960 177 960 q 253 940 233 960 q 273 893 273 921 q 254 846 273 865 q 207 826 234 826 z "},"Ÿ":{"ha":768,"x_min":12,"x_max":760,"o":"m 760 972 l 439 359 l 439 0 l 325 0 l 325 357 l 12 972 l 142 972 l 359 533 q 383 473 363 525 l 385 473 q 411 533 392 496 l 639 972 l 760 972 m 515 1061 q 468 1080 488 1061 q 448 1128 448 1099 q 467 1176 448 1157 q 513 1195 486 1195 q 562 1176 542 1195 q 581 1128 581 1156 q 562 1081 581 1101 q 515 1061 543 1061 m 254 1061 q 206 1081 226 1061 q 186 1128 186 1101 q 205 1176 186 1157 q 252 1195 224 1195 q 300 1176 280 1195 q 321 1128 321 1156 q 301 1081 321 1101 q 254 1061 281 1061 z "},"⁄":{"ha":240,"x_min":-212,"x_max":468,"o":"m 468 972 l -114 0 l -212 0 l 371 972 l 468 972 z "},"€":{"ha":749,"x_min":69,"x_max":688,"o":"m 688 34 q 496 -16 597 -16 q 151 327 207 -16 l 69 327 l 69 422 l 142 422 q 140 474 140 443 q 144 547 140 507 l 69 547 l 69 642 l 158 642 q 289 897 193 805 q 522 989 385 989 q 688 951 614 989 l 688 841 q 514 894 610 894 q 363 826 429 894 q 271 642 297 758 l 608 642 l 608 547 l 256 547 q 255 422 250 480 l 608 422 l 608 327 l 266 327 q 503 79 315 79 q 688 138 592 79 l 688 34 z "},"‹":{"ha":439,"x_min":62,"x_max":379,"o":"m 378 136 l 265 136 l 62 363 l 265 597 l 379 597 l 172 363 l 378 136 z "},"›":{"ha":439,"x_min":62,"x_max":379,"o":"m 379 365 l 175 136 l 62 136 l 269 365 l 62 597 l 175 597 l 379 365 z "},"ﬁ":{"ha":770,"x_min":36,"x_max":680,"o":"m 456 930 q 382 949 423 949 q 265 802 265 949 l 265 694 l 428 694 l 428 600 l 265 600 l 265 0 l 155 0 l 155 600 l 36 600 l 36 694 l 155 694 l 155 807 q 218 980 155 916 q 375 1043 281 1043 q 456 1031 426 1043 l 456 930 m 606 871 q 554 891 575 871 q 533 943 533 911 q 554 994 533 973 q 606 1015 575 1015 q 658 995 636 1015 q 680 943 680 974 q 658 892 680 913 q 606 871 636 871 m 660 0 l 549 0 l 549 694 l 660 694 l 660 0 z "},"ﬂ":{"ha":770,"x_min":36,"x_max":661,"o":"m 456 930 q 382 949 423 949 q 265 802 265 949 l 265 694 l 428 694 l 428 600 l 265 600 l 265 0 l 155 0 l 155 600 l 36 600 l 36 694 l 155 694 l 155 807 q 218 980 155 916 q 375 1043 281 1043 q 456 1031 426 1043 l 456 930 m 661 0 l 551 0 l 551 1028 l 661 1028 l 661 0 z "},"‡":{"ha":521,"x_min":33,"x_max":494,"o":"m 494 352 l 289 366 l 316 155 l 210 155 l 237 366 l 33 352 l 33 454 l 210 433 l 250 564 l 210 694 l 33 673 l 33 775 l 237 762 l 210 972 l 316 972 l 289 762 l 494 775 l 494 673 l 316 694 l 277 564 l 316 433 l 494 454 l 494 352 z "},"·":{"ha":301,"x_min":76,"x_max":228,"o":"m 151 346 q 98 368 120 346 q 76 422 76 391 q 98 476 76 454 q 151 498 120 498 q 205 476 183 498 q 228 422 228 454 q 205 368 228 391 q 151 346 183 346 z "},"‚":{"ha":318,"x_min":60,"x_max":235,"o":"m 235 147 l 139 -155 l 60 -155 l 134 147 l 235 147 z "},"„":{"ha":524,"x_min":60,"x_max":440,"o":"m 440 147 l 346 -155 l 265 -155 l 339 147 l 440 147 m 235 147 l 139 -155 l 60 -155 l 134 147 l 235 147 z "},"‰":{"ha":1681,"x_min":54,"x_max":1626,"o":"m 274 485 q 114 551 174 485 q 54 728 54 617 q 117 918 54 848 q 288 987 180 987 q 449 923 391 987 q 506 742 506 859 q 442 555 506 625 q 274 485 378 485 m 283 913 q 182 865 219 913 q 144 734 144 817 q 181 606 144 652 q 281 560 218 560 q 380 608 345 560 q 416 739 416 655 q 381 867 416 821 q 283 913 345 913 m 926 972 l 301 -7 l 204 -7 l 829 972 l 926 972 m 1394 -15 q 1234 52 1294 -15 q 1175 228 1175 118 q 1239 418 1175 348 q 1408 489 1303 489 q 1569 424 1512 489 q 1626 241 1626 359 q 1563 55 1626 125 q 1394 -15 1499 -15 m 1404 412 q 1302 365 1339 412 q 1265 233 1265 317 q 1302 106 1265 152 q 1401 61 1338 61 q 1501 109 1466 61 q 1537 240 1537 157 q 1501 367 1537 322 q 1404 412 1466 412 m 853 -15 q 693 52 753 -15 q 633 228 633 118 q 697 419 633 349 q 867 489 761 489 q 1027 424 970 489 q 1085 241 1085 359 q 1021 55 1085 125 q 853 -15 957 -15 m 863 412 q 761 365 798 412 q 724 233 724 317 q 760 107 724 153 q 860 61 797 61 q 960 109 924 61 q 996 240 996 157 q 960 368 996 323 q 863 412 924 412 z "},"Â":{"ha":896,"x_min":15,"x_max":880,"o":"m 880 0 l 754 0 l 651 273 l 239 273 l 142 0 l 15 0 l 388 972 l 506 972 l 880 0 m 614 375 l 461 789 q 446 854 454 810 l 444 854 q 428 789 437 813 l 277 375 l 614 375 m 629 1061 l 546 1061 l 435 1217 l 323 1061 l 246 1061 l 392 1286 l 482 1286 l 629 1061 z "},"Ê":{"ha":703,"x_min":127,"x_max":643,"o":"m 643 0 l 127 0 l 127 972 l 621 972 l 621 869 l 241 869 l 241 546 l 593 546 l 593 444 l 241 444 l 241 103 l 643 103 l 643 0 m 561 1063 l 478 1063 l 367 1219 l 255 1063 l 178 1063 l 324 1288 l 414 1288 l 561 1063 z "},"Á":{"ha":896,"x_min":15,"x_max":880,"o":"m 880 0 l 754 0 l 651 273 l 239 273 l 142 0 l 15 0 l 388 972 l 506 972 l 880 0 m 614 375 l 461 789 q 446 854 454 810 l 444 854 q 428 789 437 813 l 277 375 l 614 375 m 588 1284 l 410 1062 l 324 1062 l 475 1284 l 588 1284 z "},"Ë":{"ha":703,"x_min":127,"x_max":643,"o":"m 643 0 l 127 0 l 127 972 l 621 972 l 621 869 l 241 869 l 241 546 l 593 546 l 593 444 l 241 444 l 241 103 l 643 103 l 643 0 m 508 1062 q 461 1081 481 1062 q 441 1129 441 1100 q 460 1177 441 1158 q 507 1196 479 1196 q 555 1176 535 1196 q 574 1129 574 1157 q 555 1082 574 1101 q 508 1062 536 1062 m 248 1062 q 199 1082 219 1062 q 179 1129 179 1102 q 198 1177 179 1158 q 245 1196 218 1196 q 294 1176 273 1196 q 314 1129 314 1157 q 294 1082 314 1101 q 248 1062 275 1062 z "},"È":{"ha":703,"x_min":127,"x_max":643,"o":"m 643 0 l 127 0 l 127 972 l 621 972 l 621 869 l 241 869 l 241 546 l 593 546 l 593 444 l 241 444 l 241 103 l 643 103 l 643 0 m 477 1062 l 391 1062 l 213 1284 l 327 1284 l 477 1062 z "},"Í":{"ha":370,"x_min":33,"x_max":345,"o":"m 336 972 l 336 875 l 241 875 l 241 98 l 336 98 l 336 0 l 33 0 l 33 98 l 127 98 l 127 875 l 33 875 l 33 972 l 336 972 m 345 1284 l 168 1062 l 81 1062 l 233 1284 l 345 1284 z "},"Î":{"ha":370,"x_min":-3,"x_max":380,"o":"m 336 972 l 336 875 l 241 875 l 241 98 l 336 98 l 336 0 l 33 0 l 33 98 l 127 98 l 127 875 l 33 875 l 33 972 l 336 972 m 380 1063 l 297 1063 l 186 1219 l 74 1063 l -3 1063 l 143 1288 l 233 1288 l 380 1063 z "},"Ï":{"ha":370,"x_min":-10,"x_max":385,"o":"m 336 972 l 336 875 l 241 875 l 241 98 l 336 98 l 336 0 l 33 0 l 33 98 l 127 98 l 127 875 l 33 875 l 33 972 l 336 972 m 319 1062 q 272 1081 292 1062 q 252 1129 252 1100 q 271 1177 252 1158 q 317 1196 290 1196 q 366 1176 346 1196 q 385 1129 385 1157 q 366 1082 385 1101 q 319 1062 347 1062 m 58 1062 q 10 1082 30 1062 q -10 1129 -10 1102 q 9 1177 -10 1158 q 56 1196 28 1196 q 104 1176 84 1196 q 125 1129 125 1157 q 105 1082 125 1101 q 58 1062 85 1062 z "},"Ì":{"ha":370,"x_min":18,"x_max":336,"o":"m 336 972 l 336 875 l 241 875 l 241 98 l 336 98 l 336 0 l 33 0 l 33 98 l 127 98 l 127 875 l 33 875 l 33 972 l 336 972 m 282 1062 l 196 1062 l 18 1284 l 132 1284 l 282 1062 z "},"Ó":{"ha":1047,"x_min":64,"x_max":983,"o":"m 519 -16 q 188 120 313 -16 q 64 475 64 256 q 191 849 64 709 q 536 989 317 989 q 860 853 737 989 q 983 498 983 718 q 857 122 983 260 q 519 -16 731 -16 m 528 886 q 279 775 374 886 q 183 485 183 665 q 276 196 183 305 q 519 86 370 86 q 772 191 680 86 q 864 483 864 295 q 774 781 864 675 q 528 886 685 886 m 697 1284 l 519 1062 l 433 1062 l 585 1284 l 697 1284 z "},"Ô":{"ha":1047,"x_min":64,"x_max":983,"o":"m 519 -16 q 188 120 313 -16 q 64 475 64 256 q 191 849 64 709 q 536 989 317 989 q 860 853 737 989 q 983 498 983 718 q 857 122 983 260 q 519 -16 731 -16 m 528 886 q 279 775 374 886 q 183 485 183 665 q 276 196 183 305 q 519 86 370 86 q 772 191 680 86 q 864 483 864 295 q 774 781 864 675 q 528 886 685 886 m 721 1062 l 638 1062 l 527 1218 l 415 1062 l 338 1062 l 484 1287 l 574 1287 l 721 1062 z "},"Ò":{"ha":1047,"x_min":64,"x_max":983,"o":"m 519 -16 q 188 120 313 -16 q 64 475 64 256 q 191 849 64 709 q 536 989 317 989 q 860 853 737 989 q 983 498 983 718 q 857 122 983 260 q 519 -16 731 -16 m 528 886 q 279 775 374 886 q 183 485 183 665 q 276 196 183 305 q 519 86 370 86 q 772 191 680 86 q 864 483 864 295 q 774 781 864 675 q 528 886 685 886 m 597 1062 l 511 1062 l 333 1284 l 447 1284 l 597 1062 z "},"Ú":{"ha":954,"x_min":115,"x_max":839,"o":"m 839 393 q 469 -16 839 -16 q 115 378 115 -16 l 115 972 l 229 972 l 229 385 q 481 86 229 86 q 725 375 725 86 l 725 972 l 839 972 l 839 393 m 651 1284 l 473 1061 l 387 1061 l 538 1284 l 651 1284 z "},"Û":{"ha":954,"x_min":115,"x_max":839,"o":"m 839 393 q 469 -16 839 -16 q 115 378 115 -16 l 115 972 l 229 972 l 229 385 q 481 86 229 86 q 725 375 725 86 l 725 972 l 839 972 l 839 393 m 669 1063 l 587 1063 l 475 1219 l 363 1063 l 287 1063 l 433 1288 l 523 1288 l 669 1063 z "},"Ù":{"ha":954,"x_min":115,"x_max":839,"o":"m 839 393 q 469 -16 839 -16 q 115 378 115 -16 l 115 972 l 229 972 l 229 385 q 481 86 229 86 q 725 375 725 86 l 725 972 l 839 972 l 839 393 m 563 1062 l 477 1062 l 299 1284 l 413 1284 l 563 1062 z "},"ı":{"ha":336,"x_min":113,"x_max":224,"o":"m 224 0 l 113 0 l 113 694 l 224 694 l 224 0 z "},"ˆ":{"ha":515,"x_min":62,"x_max":445,"o":"m 445 826 l 362 826 l 251 982 l 139 826 l 62 826 l 208 1051 l 298 1051 l 445 826 z "},"˜":{"ha":468,"x_min":24,"x_max":458,"o":"m 458 989 q 426 872 458 918 q 338 827 393 827 q 228 863 290 827 q 147 892 176 892 q 87 815 87 892 l 24 815 q 56 931 24 888 q 147 975 89 975 q 248 940 191 975 q 335 910 298 910 q 392 989 392 910 l 458 989 z "},"¯":{"ha":431,"x_min":42,"x_max":387,"o":"m 387 826 l 42 826 l 42 900 l 387 900 l 387 826 z "},"˘":{"ha":422,"x_min":25,"x_max":397,"o":"m 397 997 q 337 873 391 920 q 208 826 284 826 q 79 873 129 826 q 25 997 28 920 l 93 997 q 210 892 101 892 q 289 920 256 892 q 328 997 321 949 l 397 997 z "},"˙":{"ha":279,"x_min":73,"x_max":207,"o":"m 140 826 q 93 845 113 826 q 73 893 73 865 q 93 939 73 920 q 140 958 113 958 q 188 940 168 958 q 207 893 207 921 q 188 846 207 865 q 140 826 168 826 z "},"˚":{"ha":389,"x_min":56,"x_max":335,"o":"m 193 798 q 95 833 134 798 q 56 926 56 869 q 96 1024 56 987 q 197 1061 136 1061 q 296 1024 258 1061 q 335 930 335 987 q 294 836 335 873 q 193 798 252 798 m 193 1006 q 138 984 160 1006 q 117 929 117 962 q 193 853 117 853 q 249 875 227 853 q 271 929 271 897 q 249 984 271 962 q 193 1006 227 1006 z "},"¸":{"ha":285,"x_min":35,"x_max":265,"o":"m 265 -174 q 79 -293 265 -293 q 35 -292 53 -293 l 35 -231 q 82 -235 64 -235 q 178 -174 178 -235 q 90 -121 178 -121 q 62 -123 83 -121 l 62 0 l 136 0 l 136 -71 q 230 -98 195 -71 q 265 -174 265 -125 z "},"˝":{"ha":450,"x_min":43,"x_max":439,"o":"m 439 1042 l 273 826 l 207 826 l 349 1042 l 439 1042 m 271 1042 l 109 826 l 43 826 l 183 1042 l 271 1042 z "},"˛":{"ha":257,"x_min":42,"x_max":229,"o":"m 229 0 q 127 -151 127 -96 q 174 -199 127 -199 q 212 -190 194 -199 l 212 -262 q 156 -271 191 -271 q 73 -244 104 -271 q 42 -170 42 -217 q 149 0 42 -87 l 229 0 z "},"ˇ":{"ha":515,"x_min":69,"x_max":450,"o":"m 450 1050 l 305 826 l 216 826 l 69 1050 l 147 1050 l 258 895 l 370 1050 l 450 1050 z "},"Ł":{"ha":654,"x_min":22,"x_max":632,"o":"m 632 0 l 127 0 l 127 371 l 22 305 l 22 408 l 127 473 l 127 972 l 241 972 l 241 545 l 464 682 l 464 578 l 241 442 l 241 103 l 632 103 l 632 0 z "},"ł":{"ha":380,"x_min":15,"x_max":359,"o":"m 359 550 l 241 467 l 241 0 l 130 0 l 130 392 l 15 311 l 15 418 l 130 498 l 130 1028 l 241 1028 l 241 574 l 359 656 l 359 550 z "},"Š":{"ha":738,"x_min":82,"x_max":671,"o":"m 82 39 l 82 174 q 137 137 105 153 q 205 110 170 121 q 277 92 241 98 q 343 86 313 86 q 500 125 448 86 q 552 237 552 164 q 535 306 552 277 q 487 359 517 335 q 415 405 456 383 q 325 452 373 427 q 230 504 274 477 q 153 562 186 530 q 102 634 121 594 q 83 729 83 675 q 113 845 83 795 q 189 926 142 894 q 297 973 237 958 q 421 989 358 989 q 631 954 565 989 l 631 826 q 410 886 545 886 q 335 878 372 886 q 269 852 298 870 q 221 807 239 835 q 203 739 203 779 q 217 675 203 702 q 258 625 231 648 q 324 582 285 603 q 414 536 363 561 q 513 481 466 510 q 595 418 559 453 q 651 342 630 384 q 671 245 671 300 q 643 124 671 174 q 567 43 615 74 q 457 -2 519 12 q 326 -16 395 -16 q 269 -13 302 -16 q 199 -2 235 -9 q 133 16 164 5 q 82 39 101 26 m 560 1287 l 415 1063 l 326 1063 l 179 1287 l 257 1287 l 368 1132 l 479 1287 l 560 1287 z "},"š":{"ha":589,"x_min":71,"x_max":531,"o":"m 71 25 l 71 144 q 271 77 161 77 q 417 175 417 77 q 405 222 417 203 q 371 256 392 241 q 320 283 349 271 q 258 308 292 295 q 177 345 212 326 q 119 387 142 363 q 84 440 96 410 q 72 510 72 470 q 94 596 72 559 q 154 660 117 634 q 239 698 191 685 q 338 711 287 711 q 499 680 428 711 l 499 567 q 323 617 422 617 q 267 610 292 617 q 223 590 241 603 q 196 559 205 577 q 186 519 186 541 q 196 474 186 492 q 224 441 205 456 q 271 416 243 427 q 332 391 298 404 q 415 354 378 373 q 477 312 452 336 q 517 258 503 289 q 531 186 531 228 q 508 96 531 134 q 448 33 486 58 q 360 -4 410 8 q 256 -16 311 -16 q 71 25 149 -16 m 463 1050 l 317 826 l 228 826 l 81 1050 l 159 1050 l 271 895 l 382 1050 l 463 1050 z "},"Ž":{"ha":792,"x_min":22,"x_max":762,"o":"m 762 945 l 193 103 l 749 103 l 749 0 l 22 0 l 22 32 l 587 869 l 68 869 l 68 972 l 762 972 l 762 945 m 610 1285 l 465 1061 l 376 1061 l 229 1285 l 307 1285 l 418 1130 l 530 1285 l 610 1285 z "},"ž":{"ha":628,"x_min":22,"x_max":597,"o":"m 597 663 l 186 95 l 593 95 l 593 0 l 22 0 l 22 35 l 433 600 l 61 600 l 61 694 l 597 694 l 597 663 m 530 1050 l 385 826 l 296 826 l 149 1050 l 227 1050 l 338 895 l 450 1050 l 530 1050 z "},"¦":{"ha":332,"x_min":117,"x_max":217,"o":"m 217 485 l 117 485 l 117 1062 l 217 1062 l 217 485 m 217 -327 l 117 -327 l 117 251 l 217 251 l 217 -327 z "},"Ð":{"ha":974,"x_min":19,"x_max":910,"o":"m 127 0 l 127 435 l 19 435 l 19 540 l 127 540 l 127 972 l 396 972 q 910 498 910 972 q 767 136 910 272 q 385 0 625 0 l 127 0 m 241 869 l 241 540 l 469 540 l 469 435 l 241 435 l 241 103 l 387 103 q 684 205 578 103 q 791 496 791 308 q 393 869 791 869 l 241 869 z "},"ð":{"ha":777,"x_min":65,"x_max":711,"o":"m 533 656 l 536 659 q 401 839 475 768 l 199 736 l 164 803 l 347 892 q 168 1028 267 963 l 318 1028 q 435 936 369 993 l 631 1034 l 668 970 l 489 882 q 711 357 711 673 q 623 90 711 194 q 385 -15 536 -15 q 150 80 235 -15 q 65 339 65 175 q 153 607 65 504 q 391 709 241 709 q 533 656 474 709 m 395 617 q 237 544 294 617 q 179 343 179 470 q 235 149 179 220 q 392 77 292 77 q 542 151 486 77 q 597 346 597 224 q 395 617 597 617 z "},"Ý":{"ha":768,"x_min":12,"x_max":760,"o":"m 760 972 l 439 359 l 439 0 l 325 0 l 325 357 l 12 972 l 142 972 l 359 533 q 383 473 363 525 l 385 473 q 411 533 392 496 l 639 972 l 760 972 m 564 1284 l 386 1062 l 300 1062 l 451 1284 l 564 1284 z "},"ý":{"ha":672,"x_min":9,"x_max":665,"o":"m 665 694 l 346 -111 q 106 -327 260 -327 q 33 -318 62 -327 l 33 -218 q 99 -231 69 -231 q 225 -130 183 -231 l 281 1 l 9 694 l 133 694 l 321 160 q 335 107 324 150 l 339 107 q 353 159 342 123 l 550 694 l 665 694 m 517 1048 l 339 826 l 253 826 l 404 1048 l 517 1048 z "},"Þ":{"ha":778,"x_min":127,"x_max":722,"o":"m 241 216 l 241 0 l 127 0 l 127 972 l 241 972 l 241 819 l 395 819 q 637 744 552 819 q 722 529 722 668 q 626 303 722 391 q 368 216 530 216 l 241 216 m 241 717 l 241 318 l 361 318 q 541 371 478 318 q 603 522 603 424 q 375 717 603 717 l 241 717 z "},"þ":{"ha":817,"x_min":113,"x_max":751,"o":"m 227 100 l 224 100 l 224 -319 l 113 -319 l 113 1028 l 224 1028 l 224 572 l 227 572 q 467 711 309 711 q 676 617 601 711 q 751 368 751 524 q 667 89 751 193 q 435 -16 582 -16 q 227 100 300 -16 m 224 380 l 224 283 q 280 137 224 197 q 422 77 336 77 q 580 155 523 77 q 637 370 637 232 q 584 551 637 486 q 439 617 530 617 q 283 550 342 617 q 224 380 224 482 z "},"−":{"ha":950,"x_min":157,"x_max":795,"o":"m 795 359 l 157 359 l 157 450 l 795 450 l 795 359 z "},"×":{"ha":950,"x_min":182,"x_max":769,"o":"m 769 175 l 705 111 l 475 342 l 245 111 l 182 175 l 412 404 l 182 635 l 245 699 l 475 468 l 705 699 l 769 635 l 538 404 l 769 175 z "},"¹":{"ha":488,"x_min":86,"x_max":433,"o":"m 433 396 l 92 396 l 92 472 l 217 472 l 217 875 l 86 838 l 86 922 l 305 987 l 305 472 l 433 472 l 433 396 z "},"²":{"ha":509,"x_min":71,"x_max":446,"o":"m 446 396 l 71 396 l 71 473 l 233 633 q 323 740 304 703 q 342 814 342 777 q 316 878 342 853 q 248 903 290 903 q 102 833 168 903 l 102 935 q 261 986 159 986 q 388 941 341 986 q 435 823 435 897 q 296 587 435 720 l 184 481 l 184 479 l 446 479 l 446 396 z "},"³":{"ha":509,"x_min":87,"x_max":444,"o":"m 87 418 l 87 514 q 235 463 157 463 q 320 488 289 463 q 351 557 351 513 q 203 652 351 652 l 146 652 l 146 732 l 200 732 q 334 823 334 732 q 236 904 334 904 q 110 857 172 904 l 110 951 q 254 986 169 986 q 376 946 331 986 q 422 840 422 905 q 323 701 422 738 l 323 699 q 444 562 444 670 q 386 432 444 482 q 232 382 328 382 q 87 418 139 382 z "},"½":{"ha":1293,"x_min":86,"x_max":1185,"o":"m 433 396 l 92 396 l 92 472 l 217 472 l 217 875 l 86 838 l 86 922 l 305 987 l 305 472 l 433 472 l 433 396 m 945 972 l 363 0 l 265 0 l 848 972 l 945 972 m 1185 1 l 810 1 l 810 78 l 972 238 q 1062 344 1043 307 q 1081 418 1081 381 q 1055 483 1081 458 q 987 507 1029 507 q 841 438 907 507 l 841 539 q 1000 591 898 591 q 1127 546 1080 591 q 1174 428 1174 501 q 1035 192 1174 324 l 924 86 l 924 83 l 1185 83 l 1185 1 z "},"¼":{"ha":1259,"x_min":86,"x_max":1157,"o":"m 433 396 l 92 396 l 92 472 l 217 472 l 217 875 l 86 838 l 86 922 l 305 987 l 305 472 l 433 472 l 433 396 m 945 972 l 363 0 l 265 0 l 848 972 l 945 972 m 1157 138 l 1082 138 l 1082 0 l 993 0 l 993 138 l 726 138 l 726 201 l 977 576 l 1082 576 l 1082 212 l 1157 212 l 1157 138 m 996 491 l 993 491 q 967 441 985 470 l 819 212 l 993 212 l 993 431 q 996 491 993 453 z "},"¾":{"ha":1322,"x_min":87,"x_max":1201,"o":"m 87 418 l 87 514 q 235 463 157 463 q 320 488 289 463 q 351 557 351 513 q 203 652 351 652 l 146 652 l 146 732 l 200 732 q 334 823 334 732 q 236 904 334 904 q 110 857 172 904 l 110 951 q 254 986 169 986 q 376 946 331 986 q 422 840 422 905 q 323 701 422 738 l 323 699 q 444 562 444 670 q 386 432 444 482 q 232 382 328 382 q 87 418 139 382 m 993 972 l 411 0 l 313 0 l 896 972 l 993 972 m 1201 138 l 1126 138 l 1126 0 l 1037 0 l 1037 138 l 770 138 l 770 201 l 1021 576 l 1126 576 l 1126 212 l 1201 212 l 1201 138 m 1040 491 l 1037 491 q 1011 441 1029 470 l 863 212 l 1037 212 l 1037 431 q 1040 491 1037 453 z "},"⁴":{"ha":488,"x_min":32,"x_max":463,"o":"m 463 534 l 388 534 l 388 396 l 298 396 l 298 534 l 32 534 l 32 597 l 282 972 l 388 972 l 388 608 l 463 608 l 463 534 m 301 887 l 298 887 q 273 838 290 866 l 125 608 l 298 608 l 298 827 q 301 887 298 849 z "},"¤":{"ha":772,"x_min":68,"x_max":704,"o":"m 704 240 l 642 175 l 549 269 q 387 217 477 217 q 224 269 294 217 l 130 175 l 68 240 l 161 331 q 110 492 110 408 q 161 652 110 579 l 68 745 l 130 810 l 224 717 q 387 769 298 769 q 547 717 474 769 l 642 810 l 704 745 l 611 652 q 664 492 664 576 q 611 331 664 410 l 704 240 m 387 680 q 254 625 308 680 q 200 493 200 570 q 255 361 200 416 q 387 307 309 307 q 518 361 463 307 q 574 493 574 416 q 517 625 574 570 q 387 680 461 680 z "},"◌":{"ha":825,"x_min":69,"x_max":756,"o":"m 665 623 q 632 589 665 589 q 597 623 597 589 q 632 656 597 656 q 665 623 665 656 m 564 689 q 532 656 564 656 q 496 689 496 656 q 532 724 496 724 q 564 689 564 724 m 732 522 q 697 488 732 488 q 664 522 664 488 q 699 555 664 555 q 732 522 732 555 m 756 404 q 724 370 756 370 q 688 404 688 370 q 724 438 688 438 q 756 404 756 438 m 446 714 q 412 680 446 680 q 378 714 378 680 q 412 747 378 747 q 446 714 446 747 m 329 689 q 294 656 329 656 q 261 689 261 656 q 294 724 261 724 q 329 689 329 724 m 732 286 q 697 253 732 253 q 664 286 664 253 q 697 321 664 321 q 732 286 732 321 m 229 623 q 195 589 229 589 q 161 621 161 589 q 195 656 161 656 q 229 623 229 656 m 665 184 q 632 151 665 151 q 597 184 597 151 q 632 219 597 219 q 665 184 665 219 m 564 118 q 532 85 564 85 q 496 118 496 85 q 532 153 496 153 q 564 118 564 153 m 161 522 q 129 488 161 488 q 94 522 94 488 q 127 555 94 555 q 161 522 161 555 m 137 404 q 104 370 137 370 q 69 404 69 370 q 104 438 69 438 q 137 404 137 438 m 446 96 q 412 61 446 61 q 378 96 378 61 q 412 129 378 129 q 446 96 446 129 m 161 286 q 127 253 161 253 q 94 286 94 253 q 127 321 94 321 q 161 286 161 321 m 329 121 q 294 85 329 85 q 261 118 261 85 q 294 153 261 153 q 329 121 329 153 m 229 184 q 195 151 229 151 q 161 184 161 151 q 195 219 161 219 q 229 184 229 219 z "},"Ꭰ":{"ha":974,"x_min":127,"x_max":910,"o":"m 127 0 l 127 972 l 396 972 q 910 498 910 972 q 767 137 910 273 q 385 0 625 0 l 127 0 m 241 869 l 241 103 l 387 103 q 684 205 578 103 q 791 496 791 308 q 393 869 791 869 l 241 869 z "},"Ꭱ":{"ha":952,"x_min":127,"x_max":945,"o":"m 945 156 q 922 70 942 107 q 899 38 913 54 q 866 11 886 22 q 821 -9 847 -1 q 760 -16 794 -16 q 698 -9 725 -16 q 652 11 671 -1 q 619 38 632 22 q 597 70 606 54 q 574 156 576 107 l 574 273 q 561 336 574 310 q 526 380 548 363 q 473 406 503 397 q 410 414 444 414 l 241 414 l 241 0 l 127 0 l 127 972 l 418 972 q 535 957 481 972 q 629 908 589 941 q 691 827 669 876 q 713 713 713 779 q 697 622 713 663 q 654 549 680 581 q 595 497 628 518 q 531 465 563 475 q 601 449 570 465 q 651 409 631 434 q 683 350 672 383 q 693 279 693 316 l 693 157 q 695 143 693 154 q 704 121 697 132 q 724 100 711 109 q 760 91 737 91 q 798 101 784 91 q 818 123 811 111 q 827 156 825 138 l 945 156 m 241 869 l 241 517 l 396 517 q 475 530 439 517 q 538 567 511 543 q 579 625 564 591 q 594 704 594 660 q 544 826 594 782 q 397 869 494 869 l 241 869 z "},"Ꭲ":{"ha":728,"x_min":28,"x_max":703,"o":"m 703 869 l 422 869 l 422 0 l 308 0 l 308 869 l 28 869 l 28 972 l 703 972 l 703 869 z "},"Ꭳ":{"ha":1037,"x_min":43,"x_max":973,"o":"m 43 235 q 53 321 43 281 q 84 393 63 361 q 137 447 105 425 q 214 478 170 469 q 265 572 233 531 q 338 641 297 612 q 425 687 378 670 q 522 708 472 703 l 522 875 l 427 875 l 427 972 l 730 972 l 730 875 l 635 875 l 635 708 q 789 669 725 701 q 893 587 852 637 q 954 471 935 537 q 973 331 973 406 q 952 188 973 252 q 888 78 930 123 q 782 8 846 33 q 635 -16 719 -16 l 635 77 q 735 97 693 77 q 805 153 777 117 q 846 236 832 188 q 859 340 859 284 q 844 447 859 397 q 794 535 828 497 q 707 595 760 573 q 578 617 654 617 q 427 579 486 617 q 334 477 367 542 q 409 445 378 467 q 461 391 441 423 q 491 319 481 359 q 501 235 501 279 q 488 135 501 181 q 446 56 474 90 q 375 3 418 22 q 272 -16 332 -16 q 169 3 212 -16 q 98 57 126 23 q 57 137 70 91 q 43 235 43 182 m 394 233 q 365 353 394 309 q 273 397 335 397 q 180 354 210 397 q 151 235 151 311 q 180 113 151 157 q 273 70 210 70 q 365 113 335 70 q 394 233 394 156 z "},"Ꭴ":{"ha":1246,"x_min":64,"x_max":1230,"o":"m 472 -16 q 299 21 375 -16 q 171 124 224 58 q 91 280 119 191 q 64 475 64 370 q 90 680 64 586 q 168 843 115 774 q 300 950 220 911 q 488 989 380 989 q 662 951 587 989 q 787 847 736 913 q 863 691 838 781 q 888 496 888 602 q 975 503 933 497 q 1049 523 1017 508 q 1100 566 1081 538 q 1120 641 1120 594 q 1114 681 1120 662 q 1097 714 1108 700 q 1069 736 1086 728 q 1031 745 1053 745 q 1000 742 1015 745 q 974 736 985 739 q 949 728 961 732 l 944 822 q 976 830 959 827 q 1009 836 990 833 q 1048 838 1027 838 q 1123 823 1090 838 q 1180 783 1157 808 q 1217 725 1204 758 q 1230 656 1230 692 q 1204 538 1230 586 q 1133 460 1179 490 q 1023 416 1087 430 q 883 399 960 402 q 841 232 872 308 q 759 100 810 155 q 636 14 708 45 q 472 -16 564 -16 m 480 886 q 348 853 404 886 q 255 766 292 821 q 201 639 218 711 q 183 485 183 566 q 199 333 183 405 q 251 205 216 260 q 341 118 286 151 q 472 86 395 86 q 608 116 551 86 q 700 199 664 146 q 752 325 736 252 q 769 483 769 397 q 753 642 769 568 q 703 770 738 715 q 614 855 669 824 q 480 886 559 886 z "},"Ꭵ":{"ha":370,"x_min":33,"x_max":336,"o":"m 241 694 l 241 98 l 336 98 l 336 0 l 33 0 l 33 98 l 127 98 l 127 694 l 241 694 m 186 871 q 158 876 171 871 q 135 891 144 882 q 120 914 125 901 q 114 943 114 927 q 120 971 114 958 q 135 995 125 985 q 158 1010 144 1004 q 186 1015 171 1015 q 214 1010 201 1015 q 238 995 228 1004 q 253 971 248 985 q 259 943 259 958 q 253 915 259 928 q 238 892 248 901 q 214 877 228 882 q 186 871 201 871 z "},"Ꭶ":{"ha":738,"x_min":16,"x_max":731,"o":"m 731 540 l 731 435 l 578 435 q 646 351 621 397 q 671 245 671 305 q 643 124 671 174 q 567 43 615 74 q 457 -2 519 12 q 326 -16 395 -16 q 268 -13 302 -16 q 199 -2 235 -9 q 133 16 164 5 q 82 39 101 26 l 82 174 q 137 137 105 153 q 205 110 170 121 q 277 92 241 98 q 343 86 313 86 q 500 125 449 86 q 552 237 552 163 q 537 300 552 273 q 496 352 522 328 q 435 395 470 375 q 359 435 400 415 l 16 435 l 16 540 l 176 540 q 109 620 134 575 q 83 729 83 665 q 113 844 83 795 q 189 925 142 893 q 297 973 237 958 q 421 989 358 989 q 631 954 564 989 l 631 826 q 410 886 545 886 q 335 878 372 886 q 269 852 298 870 q 221 807 239 835 q 203 739 203 779 q 216 675 203 703 q 256 626 230 648 q 319 583 281 604 q 405 540 357 563 l 731 540 z "},"Ꭷ":{"ha":1037,"x_min":57,"x_max":973,"o":"m 57 441 q 67 544 57 492 q 104 639 78 597 q 176 708 131 682 q 290 735 221 735 q 390 716 347 735 q 461 663 433 697 q 505 581 490 629 q 519 477 519 534 q 497 360 519 412 q 441 267 474 307 q 370 197 408 226 q 302 151 332 169 q 393 103 342 120 q 509 86 445 86 q 662 116 597 86 q 769 199 726 146 q 833 325 812 252 q 854 483 854 397 q 834 642 854 568 q 773 770 814 715 q 669 855 732 824 q 517 886 605 886 q 405 871 460 886 q 296 827 349 857 l 296 949 q 401 979 342 968 q 526 989 460 989 q 714 951 631 989 q 855 847 798 913 q 943 691 912 781 q 973 498 973 602 q 943 294 973 388 q 854 131 913 199 q 708 23 795 62 q 509 -16 622 -16 q 318 20 402 -16 q 176 118 235 56 q 87 263 118 180 q 57 441 57 346 m 173 451 q 191 322 173 382 q 243 213 208 262 q 294 243 265 224 q 348 295 323 263 q 391 371 374 326 q 409 476 409 415 q 403 535 409 505 q 383 592 397 566 q 347 635 369 618 q 293 652 325 652 q 231 633 255 652 q 195 584 208 614 q 177 519 182 555 q 173 451 173 484 z "},"Ꭸ":{"ha":726,"x_min":33,"x_max":703,"o":"m 336 972 l 336 875 l 241 875 l 241 671 q 297 702 270 692 q 344 711 324 711 q 404 700 380 711 q 440 672 427 690 q 458 630 454 654 q 463 580 463 606 q 461 538 463 559 q 457 497 459 517 q 452 458 454 477 q 450 422 450 439 q 459 379 450 395 q 491 362 467 362 q 542 376 522 362 q 575 410 562 389 q 592 457 587 431 q 597 507 597 483 q 585 581 597 551 q 556 628 572 610 q 515 661 538 649 l 557 730 q 630 686 597 715 q 657 657 644 674 q 680 618 670 640 q 697 569 690 596 q 703 509 703 542 q 685 409 703 454 q 636 332 667 364 q 567 283 606 300 q 486 266 528 266 q 415 278 443 266 q 373 309 388 290 q 352 355 357 329 q 347 410 347 382 q 349 451 347 431 q 353 492 351 472 q 357 529 355 511 q 359 563 359 547 q 351 602 359 587 q 323 617 344 617 q 281 594 297 617 q 256 534 264 570 q 244 453 248 497 q 241 368 241 409 l 241 98 l 336 98 l 336 0 l 33 0 l 33 98 l 127 98 l 127 875 l 33 875 l 33 972 l 336 972 z "},"Ꭹ":{"ha":796,"x_min":33,"x_max":788,"o":"m 788 972 l 488 294 q 428 170 458 227 q 362 72 399 113 q 280 6 326 30 q 170 -17 233 -17 q 49 4 97 -17 l 49 119 q 161 85 106 85 q 231 101 203 85 q 280 143 258 117 q 320 205 301 170 q 362 277 338 239 l 33 972 l 162 972 l 420 390 l 422 390 l 666 972 l 788 972 z "},"Ꭺ":{"ha":896,"x_min":15,"x_max":880,"o":"m 880 0 l 754 0 l 651 273 l 239 273 l 142 0 l 15 0 l 388 972 l 506 972 l 880 0 m 614 375 l 461 789 q 446 854 454 810 l 444 854 q 428 789 437 813 l 277 375 l 614 375 z "},"Ꭻ":{"ha":744,"x_min":43,"x_max":625,"o":"m 625 286 q 608 168 625 223 q 555 72 591 113 q 466 7 520 31 q 335 -16 411 -16 q 206 9 260 -16 q 115 75 151 34 q 61 168 79 116 q 43 273 43 220 l 168 273 q 176 204 168 238 q 205 144 185 171 q 258 102 226 118 q 338 86 291 86 q 417 102 385 86 q 471 145 450 118 q 501 208 492 172 q 510 284 510 243 l 510 972 l 625 972 l 625 286 z "},"Ꭼ":{"ha":703,"x_min":127,"x_max":643,"o":"m 643 0 l 127 0 l 127 972 l 621 972 l 621 869 l 241 869 l 241 546 l 593 546 l 593 444 l 241 444 l 241 103 l 643 103 l 643 0 z "},"Ꭽ":{"ha":994,"x_min":16,"x_max":981,"o":"m 373 875 l 373 972 l 673 972 l 673 875 l 578 875 l 578 578 l 981 578 l 981 506 l 602 0 l 468 0 l 468 488 l 391 488 q 372 418 386 450 q 335 362 358 386 q 278 325 311 338 q 201 311 245 311 q 116 329 151 311 q 59 375 81 346 q 26 443 37 404 q 16 525 16 482 q 27 610 16 570 q 62 681 39 650 q 122 729 86 711 q 209 747 159 747 q 281 733 250 747 q 335 697 313 720 q 371 644 357 675 q 391 578 385 613 l 468 578 l 468 875 l 373 875 m 578 488 l 578 123 l 850 488 l 578 488 m 205 667 q 162 657 180 667 q 133 628 144 646 q 115 584 121 609 q 110 529 110 558 q 116 474 110 500 q 133 430 121 449 q 162 401 144 412 q 205 391 180 391 q 247 401 229 391 q 277 430 265 412 q 294 474 289 449 q 300 529 300 500 q 294 584 300 559 q 277 628 289 610 q 247 657 265 646 q 205 667 229 667 z "},"Ꭾ":{"ha":818,"x_min":111,"x_max":754,"o":"m 415 541 l 415 444 l 320 444 l 320 369 q 361 358 340 361 q 404 355 382 355 q 506 375 462 355 q 580 431 550 395 q 625 514 610 466 q 640 618 640 562 q 626 725 640 675 q 583 813 612 775 q 507 873 553 851 q 397 895 461 895 q 333 890 363 895 q 276 875 302 884 q 227 854 250 866 q 186 831 205 843 q 111 766 144 802 l 111 880 q 185 935 143 911 q 273 972 222 955 q 393 989 325 989 q 553 961 485 989 q 665 882 621 932 q 732 762 710 831 q 754 609 754 692 q 731 471 754 534 q 664 360 707 407 q 560 288 621 314 q 423 262 499 262 q 320 274 368 262 l 320 98 l 415 98 l 415 0 l 111 0 l 111 98 l 206 98 l 206 444 l 111 444 l 111 541 l 415 541 z "},"Ꭿ":{"ha":977,"x_min":1,"x_max":893,"o":"m 1 106 q 78 86 37 86 q 145 114 117 86 q 191 187 172 141 q 222 294 210 233 q 244 423 235 355 q 261 560 253 490 q 281 693 270 630 q 321 820 294 765 q 388 913 349 876 q 478 970 427 951 q 588 989 528 989 q 893 490 893 989 q 891 396 893 450 q 881 287 889 343 q 856 176 873 231 q 809 79 839 122 q 733 11 779 37 q 623 -16 688 -16 q 530 -1 570 -16 l 530 106 q 607 86 566 86 q 695 114 662 86 q 747 189 729 142 q 772 300 766 237 q 779 435 778 363 l 355 435 q 338 328 347 382 q 315 224 329 274 q 282 130 301 174 q 236 54 262 87 q 175 3 210 22 q 94 -16 140 -16 q 1 -1 41 -16 l 1 106 m 582 895 q 459 838 507 895 q 389 672 412 781 q 378 611 382 645 q 368 540 374 578 l 778 540 q 582 895 765 895 z "},"Ꮀ":{"ha":636,"x_min":127,"x_max":593,"o":"m 241 972 l 241 533 l 593 533 l 593 431 l 241 431 l 241 0 l 127 0 l 127 972 l 241 972 z "},"Ꮁ":{"ha":655,"x_min":127,"x_max":632,"o":"m 632 867 l 242 867 l 242 0 l 127 0 l 127 972 l 632 972 l 632 867 z "},"Ꮂ":{"ha":1192,"x_min":43,"x_max":1176,"o":"m 327 77 q 484 125 407 77 q 402 221 440 167 q 336 340 364 275 q 293 481 309 405 q 277 644 277 557 q 297 776 277 713 q 354 885 317 838 q 443 961 391 932 q 562 989 496 989 q 680 961 627 989 q 769 885 732 932 q 826 776 806 838 q 846 644 846 713 q 831 480 846 557 q 788 339 815 404 q 723 220 761 274 q 642 124 686 166 q 796 77 719 77 q 872 94 840 77 q 925 140 904 111 q 957 209 947 169 q 967 296 967 249 l 872 296 l 872 393 l 1176 393 l 1176 296 l 1081 296 q 1075 221 1081 259 q 1054 149 1068 184 q 1017 84 1040 115 q 963 32 995 54 q 889 -3 931 9 q 795 -16 848 -16 q 681 3 740 -16 q 564 61 622 22 q 446 3 507 22 q 328 -16 386 -16 q 234 -3 275 -16 q 161 32 193 9 q 107 84 130 54 q 71 149 85 115 q 50 221 56 184 q 43 296 43 259 l 157 296 q 168 209 157 249 q 198 140 178 169 q 251 94 219 111 q 327 77 283 77 m 727 651 q 718 727 727 686 q 689 804 709 768 q 637 862 669 839 q 562 886 606 886 q 486 862 517 886 q 434 804 454 839 q 405 727 414 768 q 396 651 396 686 q 409 505 396 574 q 444 378 421 437 q 496 272 466 320 q 562 188 526 224 q 628 272 597 224 q 680 378 659 320 q 714 505 702 437 q 727 651 727 574 z "},"Ꮃ":{"ha":1297,"x_min":18,"x_max":1280,"o":"m 1280 972 l 1006 0 l 872 0 l 672 711 q 656 810 659 756 l 654 810 q 636 712 650 760 l 435 0 l 302 0 l 18 972 l 143 972 l 350 227 q 366 129 363 180 l 370 129 q 391 227 373 165 l 606 972 l 715 972 l 921 221 q 937 130 932 182 l 940 130 q 958 224 943 165 l 1157 972 l 1280 972 z "},"Ꮄ":{"ha":833,"x_min":64,"x_max":819,"o":"m 667 294 q 646 169 667 226 q 586 71 625 112 q 491 6 547 29 q 366 -16 435 -16 q 240 6 296 -16 q 145 71 184 29 q 85 169 106 112 q 64 294 64 226 q 85 420 64 363 q 145 518 106 477 q 240 582 184 559 q 366 605 296 605 q 482 585 429 605 q 451 719 463 653 q 439 840 439 785 q 458 926 439 888 q 508 989 476 964 q 584 1027 540 1015 q 678 1040 627 1040 q 732 1035 707 1040 q 777 1025 758 1030 q 819 1009 800 1017 l 819 897 q 772 922 797 910 q 722 939 750 931 q 663 947 694 947 q 611 938 632 947 q 577 913 590 928 q 559 877 564 897 q 553 836 553 857 q 559 756 553 798 q 575 674 566 715 q 596 592 584 632 q 619 515 608 551 q 640 448 630 479 q 654 396 649 418 q 664 347 661 372 q 667 294 667 321 m 553 294 q 541 377 553 338 q 505 446 529 416 q 446 494 481 476 q 365 511 410 511 q 284 494 319 511 q 226 446 250 476 q 190 377 202 416 q 178 294 178 338 q 190 212 178 251 q 226 142 202 172 q 284 95 250 113 q 365 77 319 77 q 446 95 410 77 q 505 142 481 113 q 541 212 529 172 q 553 294 553 251 z "},"Ꮅ":{"ha":833,"x_min":127,"x_max":777,"o":"m 627 540 q 650 600 643 566 q 658 677 658 634 q 644 761 658 725 q 604 821 630 797 q 543 857 578 845 q 463 869 507 869 q 365 848 406 869 q 295 790 323 826 q 255 708 268 754 q 241 614 241 663 l 241 0 l 127 0 l 127 620 q 153 768 127 703 q 223 879 178 833 q 329 948 268 924 q 463 972 391 972 q 585 955 528 972 q 685 901 642 937 q 752 811 728 865 q 777 682 777 756 q 772 623 777 652 q 760 569 768 595 q 743 522 752 544 q 724 484 733 500 l 627 540 z "},"Ꮆ":{"ha":994,"x_min":64,"x_max":937,"o":"m 672 321 l 574 321 l 574 625 l 672 625 l 672 520 q 728 516 699 520 q 788 500 758 511 q 844 472 817 490 q 892 427 871 454 q 925 362 913 399 q 937 275 937 324 q 918 174 937 218 q 868 98 899 131 q 798 44 838 66 q 716 9 758 22 q 635 -11 675 -5 q 563 -16 595 -16 q 348 20 441 -16 q 192 122 255 57 q 96 277 129 187 q 64 473 64 367 q 101 678 64 584 q 205 842 138 772 q 365 950 273 911 q 568 989 458 989 q 835 937 728 989 l 835 811 q 555 886 716 886 q 401 854 470 886 q 283 768 332 823 q 209 639 235 713 q 183 481 183 566 q 206 322 183 395 q 276 197 229 250 q 395 116 323 145 q 564 86 467 86 q 609 89 583 86 q 665 100 636 92 q 723 120 694 107 q 774 155 751 134 q 811 205 797 176 q 825 273 825 234 q 812 337 825 309 q 779 382 800 364 q 730 410 758 401 q 672 420 703 420 l 672 321 z "},"Ꮇ":{"ha":1247,"x_min":127,"x_max":1119,"o":"m 1119 0 l 1006 0 l 1006 652 q 1015 842 1006 730 l 1013 842 q 983 747 996 776 l 651 0 l 595 0 l 264 742 q 235 842 250 774 l 232 842 q 237 651 237 783 l 237 0 l 127 0 l 127 972 l 278 972 l 576 294 q 621 178 611 216 l 625 178 q 672 297 654 258 l 977 972 l 1119 972 l 1119 0 z "},"Ꮈ":{"ha":669,"x_min":64,"x_max":581,"o":"m 161 355 l 64 355 l 64 659 l 161 659 l 161 557 q 206 577 181 568 q 253 587 231 587 q 289 575 273 587 q 321 551 306 564 q 351 527 336 538 q 384 515 366 515 q 426 526 404 515 q 467 549 448 536 l 467 597 q 413 814 467 742 q 237 886 359 886 q 171 881 202 886 q 116 870 140 876 q 64 854 88 863 l 64 969 q 109 979 83 975 q 159 985 130 982 q 225 989 189 989 q 495 886 410 989 q 581 579 581 784 l 581 0 l 467 0 l 467 452 q 446 440 457 446 q 423 430 435 435 q 400 422 411 425 q 378 420 389 420 q 337 431 357 420 q 301 455 318 442 q 271 480 284 469 q 247 491 257 491 q 207 480 231 491 q 161 457 183 469 l 161 355 z "},"Ꮉ":{"ha":1253,"x_min":7,"x_max":1251,"o":"m 565 617 q 465 598 513 617 q 378 546 418 580 q 464 512 424 536 q 535 452 505 489 q 583 361 566 414 q 601 239 601 309 q 587 136 601 183 q 546 55 573 89 q 480 2 519 21 q 390 -16 441 -16 q 279 9 325 -16 q 205 75 234 35 q 163 167 176 116 q 151 269 151 218 q 158 362 151 318 q 180 445 165 406 q 118 410 146 431 q 69 358 90 388 l 7 414 q 47 464 23 441 q 102 504 72 486 q 166 533 132 521 q 237 550 201 545 q 375 663 292 623 q 553 708 457 703 l 553 875 l 458 875 l 458 972 l 762 972 l 762 875 l 667 875 l 667 708 q 677 614 667 652 q 704 553 687 576 q 744 521 722 530 q 791 511 767 511 q 841 521 817 511 q 889 545 865 530 q 937 576 913 559 q 986 607 961 593 q 1040 631 1012 622 q 1099 641 1067 641 q 1153 632 1126 641 q 1202 613 1180 623 q 1251 586 1227 601 l 1251 486 q 1204 515 1229 503 q 1157 536 1183 527 q 1105 545 1131 545 q 1059 536 1081 545 q 1013 512 1036 526 q 965 480 989 497 q 914 449 941 464 q 857 425 887 435 q 791 416 827 416 q 727 424 755 416 q 675 447 698 433 q 635 479 652 461 q 606 516 618 497 q 565 617 578 560 m 264 282 q 270 212 264 250 q 291 142 276 174 q 330 89 305 110 q 393 67 355 67 q 439 83 420 67 q 470 123 458 98 q 487 177 482 147 q 492 235 492 206 q 477 331 492 290 q 438 399 463 372 q 380 443 413 427 q 311 463 347 459 q 277 379 289 425 q 264 282 264 334 z "},"Ꮊ":{"ha":1074,"x_min":77,"x_max":947,"o":"m 947 972 l 947 0 l 833 0 l 833 431 l 720 431 q 708 318 717 374 q 683 214 699 263 q 641 122 666 164 q 579 49 615 79 q 496 1 543 18 q 389 -16 449 -16 q 281 3 328 -16 q 199 57 234 23 q 141 138 164 92 q 103 238 117 184 q 83 350 90 292 q 77 467 77 408 q 100 693 77 595 q 165 857 122 791 q 270 956 208 922 q 411 989 332 989 q 635 875 557 989 q 721 533 714 761 l 833 533 l 833 972 l 947 972 m 405 886 q 249 784 300 886 q 197 472 197 683 q 248 180 197 275 q 401 86 298 86 q 552 182 501 86 q 602 479 602 278 q 553 786 602 687 q 405 886 503 886 z "},"Ꮋ":{"ha":986,"x_min":127,"x_max":859,"o":"m 859 0 l 745 0 l 745 444 l 241 444 l 241 0 l 127 0 l 127 972 l 241 972 l 241 546 l 745 546 l 745 972 l 859 972 l 859 0 z "},"Ꮌ":{"ha":697,"x_min":84,"x_max":633,"o":"m 444 972 l 444 875 l 349 875 l 349 704 q 469 660 416 692 q 558 578 522 627 q 614 467 595 530 q 633 331 633 404 q 610 192 633 256 q 544 82 587 129 q 440 10 501 36 q 302 -16 378 -16 q 245 -13 275 -16 q 187 -4 216 -10 q 132 11 158 2 q 85 32 106 20 l 85 138 q 131 112 106 123 q 182 93 155 100 q 235 81 208 85 q 283 77 261 77 q 385 97 341 77 q 459 152 429 117 q 504 235 489 187 q 519 340 519 283 q 503 447 519 397 q 456 535 487 498 q 380 595 425 573 q 277 617 334 617 q 229 614 254 617 q 178 604 203 610 q 127 587 152 597 q 84 563 103 576 l 84 677 q 153 698 113 690 q 235 709 194 706 l 235 875 l 140 875 l 140 972 l 444 972 z "},"Ꮍ":{"ha":1066,"x_min":5,"x_max":1057,"o":"m 1057 972 l 1057 875 l 961 875 l 704 294 q 645 170 674 227 q 579 72 615 113 q 496 6 543 30 q 387 -17 450 -17 q 292 -4 334 -17 q 218 31 250 9 q 164 84 186 54 q 127 149 142 114 q 107 221 113 183 q 100 295 100 258 l 5 295 l 5 393 l 309 393 l 309 295 l 214 295 q 225 210 214 248 q 257 143 237 171 q 309 100 278 115 q 378 85 339 85 q 447 101 419 85 q 496 143 475 117 q 536 205 517 170 q 578 277 555 239 l 249 972 l 378 972 l 637 390 l 638 390 l 841 875 l 753 875 l 753 972 l 1057 972 z "},"Ꮎ":{"ha":1047,"x_min":64,"x_max":983,"o":"m 519 -16 q 188 120 313 -16 q 64 475 64 256 q 191 849 64 709 q 536 989 317 989 q 860 853 737 989 q 983 498 983 718 q 857 122 983 260 q 519 -16 731 -16 m 861 537 q 761 794 849 703 q 528 886 673 886 q 294 791 387 886 q 186 537 201 696 l 861 537 m 861 432 l 186 432 q 291 180 200 273 q 519 86 382 86 q 759 177 669 86 q 861 432 848 267 z "},"Ꮏ":{"ha":765,"x_min":29,"x_max":736,"o":"m 435 353 l 736 353 l 736 255 l 641 255 l 641 29 q 629 -74 641 -30 q 599 -152 618 -119 q 557 -208 581 -185 q 508 -245 533 -231 q 375 -286 450 -281 l 375 -191 q 416 -183 399 -189 q 453 -164 433 -177 q 490 -130 473 -152 q 518 -73 507 -107 q 530 11 530 -39 l 530 54 q 460 4 499 22 q 371 -15 421 -15 q 279 1 320 -15 q 209 46 238 17 q 164 117 180 75 q 149 209 149 158 l 149 600 l 29 600 l 29 694 l 149 694 l 149 864 l 260 900 l 260 694 l 435 694 l 435 600 l 260 600 l 260 229 q 270 166 260 194 q 296 119 279 138 q 337 89 313 100 q 388 79 360 79 q 437 89 412 79 q 483 119 462 100 q 516 166 503 138 q 530 229 530 194 l 530 255 l 435 255 l 435 353 z "},"Ꮐ":{"ha":953,"x_min":64,"x_max":854,"o":"m 854 66 q 529 -16 708 -16 q 192 118 321 -16 q 64 473 64 252 q 207 844 64 699 q 568 989 349 989 q 835 937 727 989 l 835 811 q 555 886 717 886 q 288 773 392 886 q 183 481 183 661 q 280 192 183 297 q 543 86 377 86 q 741 132 657 86 l 741 404 l 528 404 l 528 507 l 854 507 l 854 66 z "},"Ꮑ":{"ha":1011,"x_min":7,"x_max":899,"o":"m 899 0 l 785 0 l 785 567 q 774 714 785 652 q 740 816 763 776 q 679 876 716 857 q 591 895 642 895 q 467 838 515 895 q 394 672 418 781 q 380 586 386 635 q 367 481 374 536 q 351 367 359 425 q 328 254 342 309 q 296 150 315 199 q 249 64 277 100 q 185 6 222 27 q 100 -16 149 -16 q 7 -1 46 -16 l 7 106 q 83 86 42 86 q 150 114 123 86 q 197 187 178 141 q 228 294 216 233 q 249 423 240 355 q 267 560 258 490 q 287 693 275 630 q 328 820 300 765 q 395 913 355 876 q 486 970 435 951 q 597 989 537 989 q 733 964 676 989 q 827 888 790 940 q 881 754 864 836 q 899 558 899 673 l 899 0 z "},"Ꮒ":{"ha":918,"x_min":136,"x_max":806,"o":"m 806 0 l 692 0 l 692 359 q 526 517 692 517 q 250 442 405 517 l 250 0 l 136 0 l 136 972 l 250 972 l 250 534 q 539 617 406 617 q 652 600 602 617 q 735 551 701 583 q 788 472 770 519 q 806 365 806 425 l 806 0 z "},"Ꮓ":{"ha":792,"x_min":22,"x_max":762,"o":"m 762 945 l 193 103 l 749 103 l 749 0 l 22 0 l 22 32 l 587 869 l 68 869 l 68 972 l 762 972 l 762 945 z "},"Ꮔ":{"ha":867,"x_min":27,"x_max":754,"o":"m 27 723 l 27 821 l 121 821 q 156 883 132 852 q 218 937 181 913 q 303 975 254 960 q 412 989 352 989 q 569 963 504 989 q 675 887 634 938 q 735 759 716 836 q 754 579 754 682 l 754 0 l 640 0 l 640 311 l 408 311 q 280 325 334 311 q 191 366 226 339 q 139 432 156 393 q 122 521 122 471 l 27 521 l 27 618 l 331 618 l 331 521 l 236 521 q 252 461 236 482 q 292 430 267 439 q 346 418 316 420 q 406 416 376 416 l 640 416 l 640 597 q 587 814 640 742 q 412 886 533 886 q 354 880 380 886 q 308 863 328 873 q 273 842 288 853 q 250 821 258 830 l 331 821 l 331 723 l 27 723 z "},"Ꮕ":{"ha":1196,"x_min":71,"x_max":1173,"o":"m 382 -16 q 274 3 321 -16 q 192 57 227 23 q 134 138 157 92 q 97 238 111 184 q 77 350 83 292 q 71 467 71 408 q 93 693 71 595 q 158 857 115 791 q 263 956 201 922 q 404 989 325 989 q 602 909 527 989 q 702 670 676 830 q 730 691 715 683 q 759 704 745 699 q 787 709 774 708 q 813 711 801 711 q 873 700 850 711 q 910 672 897 690 q 928 630 923 654 q 932 580 932 606 q 930 538 932 559 q 926 497 928 517 q 922 458 924 477 q 920 422 920 439 q 928 379 920 395 q 960 362 937 362 q 1011 376 991 362 q 1044 410 1031 389 q 1062 457 1057 431 q 1067 507 1067 483 q 1054 581 1067 551 q 1025 628 1041 610 q 985 661 1008 649 l 1026 730 q 1099 686 1067 715 q 1126 657 1113 674 q 1149 618 1139 640 q 1166 569 1160 596 q 1173 509 1173 542 q 1154 409 1173 454 q 1105 332 1136 364 q 1036 283 1075 300 q 956 266 997 266 q 885 278 912 266 q 842 309 857 290 q 821 355 827 329 q 816 410 816 382 q 818 451 816 431 q 822 492 820 472 q 826 529 824 511 q 828 563 828 547 q 821 602 828 587 q 793 617 813 617 q 760 609 773 617 q 738 587 747 600 q 724 559 729 574 q 718 529 720 543 q 715 505 715 515 q 715 490 715 494 q 708 367 715 429 q 687 249 702 305 q 647 144 671 193 q 585 60 622 96 q 498 4 548 24 q 382 -16 448 -16 m 398 886 q 242 784 294 886 q 190 472 190 683 q 241 180 190 275 q 394 86 292 86 q 545 182 494 86 q 595 479 595 278 q 546 786 595 687 q 398 886 496 886 z "},"Ꮖ":{"ha":728,"x_min":28,"x_max":703,"o":"m 703 0 l 28 0 l 28 103 l 308 103 l 308 869 l 28 869 l 28 972 l 703 972 l 703 869 l 422 869 l 422 103 l 703 103 l 703 0 z "},"Ꮗ":{"ha":1410,"x_min":57,"x_max":1346,"o":"m 722 497 l 722 186 q 767 136 739 158 q 828 101 791 117 q 919 86 865 86 q 1064 116 1005 86 q 1159 199 1123 146 q 1211 325 1195 252 q 1227 483 1227 397 q 1204 642 1227 568 q 1136 770 1181 715 q 1024 855 1091 824 q 870 886 958 886 q 798 878 831 886 q 738 858 765 871 q 689 830 711 846 q 650 798 667 814 q 587 710 611 759 l 486 758 q 564 873 511 823 q 615 916 586 895 q 684 953 645 937 q 771 979 722 969 q 878 989 819 989 q 1070 951 984 989 q 1218 847 1156 913 q 1313 691 1279 781 q 1346 498 1346 602 q 1321 294 1346 388 q 1244 131 1296 199 q 1110 23 1192 62 q 916 -16 1029 -16 q 806 0 854 -16 q 726 37 758 17 q 659 90 688 60 q 586 37 628 60 q 499 0 550 17 q 382 -16 448 -16 q 247 8 307 -16 q 144 77 186 33 q 79 184 102 121 q 57 323 57 246 q 65 398 57 359 q 92 474 74 436 q 137 549 110 513 q 203 616 165 585 l 282 538 q 197 436 223 492 q 171 313 171 380 q 188 220 171 262 q 235 149 205 178 q 307 102 265 119 q 397 86 348 86 q 487 101 448 86 q 553 136 526 117 q 608 186 585 158 l 608 497 l 722 497 z "},"Ꮘ":{"ha":1238,"x_min":43,"x_max":1195,"o":"m 327 895 q 251 879 283 895 q 198 833 219 862 q 168 764 178 804 q 157 677 157 724 l 43 677 q 50 751 43 713 q 71 823 56 789 q 107 888 85 858 q 161 941 130 918 q 234 976 193 963 q 328 989 276 989 q 443 972 386 989 q 555 921 500 955 q 808 989 669 989 q 983 964 910 989 q 1103 899 1056 939 q 1173 807 1150 859 q 1195 702 1195 755 q 1175 601 1195 650 q 1117 513 1155 551 q 1024 451 1079 474 q 901 427 970 427 l 901 541 q 973 555 941 541 q 1026 591 1004 568 q 1060 642 1048 613 q 1071 702 1071 671 q 1056 772 1071 737 q 1008 834 1040 806 q 927 878 977 861 q 810 895 878 895 q 646 852 724 895 q 726 756 689 810 q 790 636 763 702 q 831 493 817 570 q 846 328 846 416 q 826 197 846 259 q 769 87 806 134 q 680 12 732 40 q 562 -16 627 -16 q 443 12 496 -16 q 354 87 391 40 q 297 197 317 134 q 277 328 277 259 q 290 494 277 416 q 328 638 303 572 q 388 758 353 704 q 467 854 423 812 q 327 895 396 895 m 396 321 q 405 245 396 286 q 434 169 414 204 q 486 110 454 134 q 562 87 517 87 q 637 110 606 87 q 689 169 669 134 q 718 245 709 204 q 727 321 727 286 q 714 467 727 399 q 679 594 701 536 q 625 700 656 652 q 557 784 593 747 q 492 700 522 747 q 440 594 462 652 q 408 467 419 536 q 396 321 396 399 z "},"Ꮙ":{"ha":1531,"x_min":7,"x_max":1525,"o":"m 1243 722 q 1272 703 1257 711 q 1303 690 1286 696 q 1337 685 1320 685 q 1400 703 1377 685 q 1424 764 1424 722 q 1417 805 1424 788 q 1400 832 1411 822 q 1375 848 1389 843 q 1345 853 1360 853 q 1295 839 1318 853 q 1247 802 1271 824 q 1199 752 1224 779 q 1146 701 1175 726 q 1082 658 1117 677 q 1004 632 1048 639 l 787 0 l 661 0 l 376 825 q 337 752 357 782 q 294 703 317 722 q 241 675 270 684 q 175 667 212 667 q 109 677 140 667 q 55 710 78 688 q 20 762 33 731 q 7 833 7 793 q 15 888 7 863 q 33 932 23 913 q 60 972 45 955 l 142 941 q 124 912 132 928 q 111 882 117 899 q 106 847 106 865 q 125 789 106 810 q 178 767 145 767 q 231 783 209 767 q 269 826 252 798 q 298 890 285 853 q 322 972 311 927 l 449 972 l 724 115 l 897 639 q 836 662 867 646 q 780 701 805 677 q 739 760 755 726 q 723 841 723 795 q 734 899 723 871 q 767 946 746 926 q 819 978 789 966 q 886 989 849 989 q 955 979 924 989 q 1007 947 985 968 q 1040 894 1029 926 q 1052 820 1052 863 q 1048 784 1052 804 q 1038 743 1044 764 q 1088 776 1065 755 q 1134 820 1112 797 q 1179 865 1156 842 q 1226 907 1201 888 q 1281 937 1252 926 q 1345 949 1310 949 q 1419 935 1386 949 q 1476 898 1453 922 q 1512 841 1499 874 q 1525 768 1525 807 q 1512 692 1525 726 q 1478 634 1500 658 q 1423 598 1455 611 q 1352 586 1392 586 q 1296 594 1321 586 q 1252 612 1271 602 q 1212 639 1230 624 l 1243 722 m 932 748 q 941 782 937 763 q 945 819 945 801 q 927 877 945 855 q 884 898 909 898 q 860 892 870 898 q 842 878 849 886 q 830 858 834 869 q 827 836 827 846 q 835 792 827 810 q 858 760 844 773 q 889 740 871 747 q 926 728 907 732 l 932 748 z "},"Ꮚ":{"ha":1444,"x_min":62,"x_max":1381,"o":"m 941 617 q 841 596 886 617 q 765 539 796 575 q 716 454 733 503 q 699 351 699 406 q 714 249 699 297 q 761 164 730 201 q 839 107 792 128 q 947 86 885 86 q 1087 117 1027 86 q 1185 199 1146 147 q 1242 321 1223 252 q 1261 469 1261 391 q 1238 630 1261 555 q 1167 763 1214 706 q 1053 853 1121 820 q 898 886 985 886 l 898 989 q 1100 948 1010 989 q 1252 837 1190 907 q 1348 676 1314 768 q 1381 485 1381 585 q 1355 292 1381 382 q 1275 132 1329 201 q 1139 24 1221 64 q 944 -16 1057 -16 q 807 7 869 -16 q 696 74 744 31 q 577 7 645 31 q 422 -16 509 -16 q 277 11 343 -16 q 163 85 211 37 q 89 197 115 132 q 62 339 62 262 q 88 490 62 422 q 160 608 113 559 q 273 684 207 656 q 422 711 340 711 l 422 610 q 322 590 368 610 q 244 535 277 570 q 194 453 212 500 q 176 351 176 406 q 192 249 176 297 q 239 164 208 201 q 316 107 270 128 q 425 86 363 86 q 540 105 490 86 q 629 160 591 125 q 596 244 607 199 q 585 339 585 289 q 610 490 585 422 q 683 608 635 559 q 796 684 730 656 q 945 711 863 711 q 1107 677 1036 711 l 1107 563 q 941 617 1029 617 z "},"Ꮛ":{"ha":775,"x_min":65,"x_max":718,"o":"m 439 564 l 439 469 l 419 469 q 319 455 363 469 q 247 416 276 441 q 202 353 217 390 q 186 269 186 315 q 205 185 186 220 q 255 126 224 149 q 325 92 286 103 q 406 81 364 81 q 508 92 469 81 q 570 122 547 104 q 600 162 592 140 q 608 206 608 184 q 601 238 608 221 q 580 269 593 255 q 546 293 566 283 q 498 302 526 302 l 498 403 q 600 384 558 403 q 668 336 642 366 q 706 272 694 307 q 718 204 718 237 q 704 129 718 168 q 654 58 690 90 q 559 5 619 26 q 410 -16 500 -16 q 284 1 346 -16 q 174 54 222 18 q 95 145 125 90 q 65 275 65 200 q 82 362 65 319 q 127 439 98 405 q 194 495 155 473 q 277 522 233 518 l 277 525 q 202 557 235 537 q 146 606 170 578 q 111 672 123 635 q 99 757 99 709 q 123 862 99 818 q 188 934 147 906 q 283 976 229 962 q 396 989 337 989 q 643 929 536 989 l 643 814 q 406 890 528 890 q 333 881 366 890 q 274 853 299 872 q 235 805 250 834 q 221 736 221 776 q 237 661 221 693 q 280 607 252 629 q 345 574 307 585 q 427 564 383 564 l 439 564 z "},"Ꮜ":{"ha":954,"x_min":115,"x_max":839,"o":"m 839 393 q 469 -16 839 -16 q 115 378 115 -16 l 115 972 l 229 972 l 229 546 l 725 546 l 725 972 l 839 972 l 839 393 m 481 86 q 725 375 725 86 l 725 444 l 229 444 l 229 385 q 481 86 229 86 z "},"Ꮝ":{"ha":1369,"x_min":43,"x_max":1305,"o":"m 411 758 q 491 873 439 823 q 543 916 513 895 q 612 953 573 937 q 698 979 650 969 q 804 989 745 989 q 939 971 874 989 q 1059 919 1003 953 q 1160 838 1115 886 q 1238 731 1206 790 q 1288 603 1270 672 q 1305 458 1305 534 q 1282 272 1305 358 q 1215 121 1259 185 q 1107 20 1171 57 q 960 -16 1042 -16 q 848 2 897 -16 q 765 53 799 20 q 710 133 730 86 q 686 236 690 179 l 512 236 q 489 142 507 188 q 443 62 472 97 q 373 5 414 26 q 279 -16 332 -16 q 175 11 219 -16 q 102 81 131 38 q 58 177 73 123 q 43 283 43 230 q 58 388 43 336 q 102 483 73 441 q 175 552 131 526 q 279 578 219 578 q 372 558 331 578 q 441 503 412 537 q 488 425 470 469 q 511 334 505 380 l 684 334 l 684 481 l 589 481 l 589 578 l 892 578 l 892 481 l 798 481 l 798 286 q 808 201 798 239 q 839 137 818 163 q 890 95 859 110 q 962 81 921 81 q 1061 110 1019 81 q 1131 189 1103 140 q 1173 304 1159 239 q 1186 442 1186 370 q 1158 622 1186 541 q 1079 762 1130 703 q 955 853 1027 821 q 795 886 883 886 q 724 878 757 886 q 665 858 692 871 q 616 830 637 846 q 577 798 594 814 q 513 710 537 759 l 411 758 m 401 280 q 393 354 401 318 q 371 418 386 390 q 333 462 356 446 q 279 479 311 479 q 225 463 248 479 q 187 419 202 446 q 165 356 172 391 q 157 282 157 320 q 165 208 157 243 q 187 144 172 172 q 225 100 202 117 q 279 83 248 83 q 333 100 311 83 q 371 143 356 116 q 393 207 386 171 q 401 280 401 242 z "},"Ꮞ":{"ha":749,"x_min":9,"x_max":701,"o":"m 701 258 l 576 258 l 576 0 l 467 0 l 467 258 l 9 258 l 9 331 l 442 972 l 576 972 l 576 349 l 701 349 l 701 258 m 467 349 l 467 769 q 469 869 467 814 l 467 869 q 429 795 457 845 l 130 349 l 467 349 z "},"Ꮟ":{"ha":800,"x_min":127,"x_max":732,"o":"m 127 0 l 127 972 l 241 972 l 241 560 l 426 560 q 652 490 571 560 q 732 290 732 420 q 648 78 732 156 q 416 0 563 0 l 127 0 m 241 457 l 241 103 l 401 103 q 557 151 503 103 q 612 283 612 198 q 401 457 612 457 l 241 457 z "},"Ꮠ":{"ha":688,"x_min":16,"x_max":671,"o":"m 494 507 q 451 497 477 507 q 392 467 426 487 l 392 98 l 487 98 l 487 0 l 183 0 l 183 98 l 278 98 l 278 406 q 235 393 256 397 q 193 388 213 388 q 118 400 151 388 q 62 435 85 412 q 28 488 40 457 q 16 557 16 519 q 19 591 16 575 q 26 620 22 608 q 36 646 30 634 l 142 646 q 125 618 132 632 q 113 590 118 606 q 108 557 108 574 q 129 499 108 519 q 193 479 150 479 q 231 485 209 479 q 278 505 253 492 l 278 875 l 183 875 l 183 972 l 487 972 l 487 875 l 392 875 l 392 572 q 494 598 450 598 q 570 586 537 598 q 625 551 603 574 q 660 498 648 529 q 671 429 671 467 q 668 394 671 410 q 661 366 665 378 q 652 340 657 352 l 546 340 q 563 368 555 354 q 574 396 569 380 q 580 429 580 412 q 559 487 580 467 q 494 507 538 507 z "},"Ꮡ":{"ha":960,"x_min":77,"x_max":954,"o":"m 853 744 q 840 791 850 770 q 828 809 835 800 q 812 825 821 818 q 790 836 802 831 q 761 840 777 840 q 707 821 730 840 q 665 774 685 802 q 624 713 645 745 q 574 652 603 680 q 505 605 545 623 q 407 586 465 586 q 375 587 391 586 q 345 591 360 588 q 292 520 318 557 q 244 446 265 484 q 210 365 223 407 q 197 277 197 323 q 208 202 197 237 q 243 141 220 167 q 303 101 267 115 q 389 86 340 86 q 474 101 438 86 q 533 142 510 117 q 568 200 557 168 q 580 269 580 233 q 570 327 580 300 q 540 373 559 353 q 493 404 521 393 q 430 416 465 416 l 430 530 q 543 508 492 530 q 630 451 594 487 q 685 367 665 414 q 704 269 704 320 q 684 164 704 215 q 625 73 664 113 q 527 8 585 33 q 392 -16 469 -16 q 255 6 314 -16 q 157 69 197 29 q 97 162 117 109 q 77 279 77 216 q 93 384 77 336 q 134 475 109 433 q 190 554 159 517 q 248 624 220 591 q 154 710 189 655 q 118 841 118 764 q 130 899 118 871 q 162 946 141 926 q 214 978 184 966 q 281 989 244 989 q 350 979 319 989 q 402 947 380 968 q 435 894 424 926 q 447 820 447 863 q 434 747 447 782 q 402 677 422 712 q 478 696 449 677 q 530 744 507 715 q 573 806 553 773 q 618 868 593 840 q 677 916 644 897 q 761 935 711 935 q 819 927 793 935 q 865 906 845 919 q 899 876 884 892 q 923 841 913 859 q 954 744 946 800 l 853 744 m 340 819 q 322 877 340 855 q 279 898 304 898 q 255 892 265 898 q 237 878 244 886 q 225 858 229 869 q 222 836 222 846 q 240 756 222 793 q 301 698 258 719 q 330 756 319 727 q 340 819 340 786 z "},"Ꮢ":{"ha":831,"x_min":127,"x_max":825,"o":"m 127 0 l 127 972 l 418 972 q 535 957 481 972 q 629 908 589 941 q 691 827 669 876 q 713 713 713 779 q 705 644 713 675 q 683 586 696 612 q 652 540 669 560 q 616 504 635 519 q 520 446 574 467 l 825 0 l 689 0 l 414 414 l 414 517 q 483 530 450 517 q 540 567 515 543 q 579 625 565 591 q 594 704 594 660 q 544 826 594 782 q 397 869 494 869 l 241 869 l 241 0 l 127 0 z "},"Ꮣ":{"ha":744,"x_min":119,"x_max":701,"o":"m 119 972 l 234 972 l 234 284 q 243 208 234 243 q 273 145 252 172 q 327 102 294 118 q 406 86 359 86 q 486 102 453 86 q 538 144 518 118 q 568 204 559 171 q 576 273 576 238 l 701 273 q 683 168 701 220 q 629 75 665 116 q 538 9 593 34 q 409 -16 483 -16 q 278 7 333 -16 q 189 72 224 31 q 136 168 153 113 q 119 286 119 223 l 119 972 z "},"Ꮤ":{"ha":1130,"x_min":17,"x_max":1113,"o":"m 17 972 l 142 972 l 393 129 l 510 534 l 370 972 l 495 972 l 567 730 l 637 971 l 760 971 l 625 535 l 745 129 l 989 971 l 1113 971 l 811 0 l 682 0 l 568 353 l 458 0 l 329 0 l 17 972 z "},"Ꮥ":{"ha":779,"x_min":82,"x_max":772,"o":"m 772 793 l 772 696 l 547 696 q 525 791 545 749 q 504 826 517 808 q 472 856 490 843 q 428 878 453 869 q 369 886 402 886 q 309 878 338 886 q 255 852 279 870 q 217 807 232 835 q 203 739 203 779 q 216 676 203 703 q 255 627 229 650 q 319 584 281 605 q 406 540 357 564 l 772 540 l 772 435 l 577 435 q 646 352 620 397 q 671 245 671 306 q 643 124 671 174 q 567 43 615 74 q 457 -2 519 12 q 326 -16 395 -16 q 268 -13 302 -16 q 199 -2 235 -9 q 133 16 164 5 q 82 39 101 26 l 82 174 q 137 137 105 153 q 205 110 170 121 q 277 92 241 98 q 343 86 313 86 q 500 125 449 86 q 552 237 552 163 q 536 306 552 277 q 490 358 519 334 q 418 405 460 382 q 325 452 376 427 q 230 503 274 477 q 153 561 186 529 q 102 634 121 593 q 83 729 83 675 q 108 844 83 795 q 174 925 133 893 q 267 973 214 958 q 374 989 319 989 q 460 977 422 989 q 527 948 498 966 q 577 908 556 930 q 611 864 597 886 q 633 823 625 842 q 645 793 642 804 l 772 793 z "},"Ꮦ":{"ha":1038,"x_min":23,"x_max":994,"o":"m 413 867 l 23 867 l 23 972 l 528 972 l 528 284 q 537 208 528 243 q 567 145 546 172 q 620 102 587 118 q 700 86 653 86 q 779 102 747 86 q 832 144 812 118 q 861 204 852 171 q 870 273 870 238 q 860 333 870 304 q 830 382 850 361 q 783 416 811 404 q 720 429 755 429 l 720 543 q 833 520 783 543 q 920 460 884 498 q 975 374 956 422 q 994 273 994 325 q 977 168 994 220 q 923 75 959 116 q 831 9 886 34 q 703 -16 777 -16 q 572 7 627 -16 q 482 72 517 31 q 430 168 447 113 q 413 286 413 223 l 413 867 z "},"Ꮧ":{"ha":793,"x_min":50,"x_max":665,"o":"m 665 0 l 554 0 l 554 231 q 518 148 541 191 q 462 67 495 104 q 385 7 429 31 q 288 -16 342 -16 q 198 -5 236 -16 q 134 26 161 7 q 92 70 108 45 q 66 123 75 96 q 53 180 56 151 q 50 235 50 209 l 164 235 q 170 179 164 205 q 189 131 175 152 q 224 98 202 111 q 281 86 247 86 q 355 108 319 86 q 420 168 390 130 q 475 256 450 205 q 517 363 500 307 q 545 481 535 420 q 554 598 554 541 l 554 972 l 665 972 l 665 0 z "},"Ꮨ":{"ha":793,"x_min":50,"x_max":665,"o":"m 665 0 l 554 0 l 554 231 q 518 148 541 191 q 462 67 495 104 q 385 7 429 31 q 288 -16 342 -16 q 198 -5 236 -16 q 134 26 161 7 q 92 70 108 45 q 66 123 75 96 q 53 180 56 151 q 50 235 50 209 l 164 235 q 170 179 164 205 q 189 131 175 152 q 224 98 202 111 q 281 86 247 86 q 355 108 319 86 q 420 168 390 130 q 475 256 450 205 q 517 363 500 307 q 545 481 535 420 q 554 598 554 541 l 554 867 l 164 867 l 164 972 l 665 972 l 665 0 z "},"Ꮩ":{"ha":863,"x_min":12,"x_max":850,"o":"m 850 972 l 490 0 l 365 0 l 12 972 l 139 972 l 408 201 q 428 115 421 164 l 431 115 q 453 203 436 156 l 728 972 l 850 972 z "},"Ꮪ":{"ha":738,"x_min":82,"x_max":671,"o":"m 82 39 l 82 174 q 137 137 105 153 q 205 110 170 121 q 277 92 241 98 q 343 86 313 86 q 500 125 448 86 q 552 237 552 164 q 535 306 552 277 q 487 359 517 335 q 415 405 456 383 q 325 452 373 427 q 230 504 274 477 q 153 562 186 530 q 102 634 121 594 q 83 729 83 675 q 113 845 83 795 q 189 926 142 894 q 297 973 237 958 q 421 989 358 989 q 631 954 565 989 l 631 826 q 410 886 545 886 q 335 878 372 886 q 269 852 298 870 q 221 807 239 835 q 203 739 203 779 q 217 675 203 702 q 258 625 231 648 q 324 582 285 603 q 414 536 363 561 q 513 481 466 510 q 595 418 559 453 q 651 342 630 384 q 671 245 671 300 q 643 124 671 174 q 567 43 615 74 q 457 -2 519 12 q 326 -16 395 -16 q 269 -13 302 -16 q 199 -2 235 -9 q 133 16 164 5 q 82 39 101 26 z "},"Ꮫ":{"ha":1196,"x_min":64,"x_max":1152,"o":"m 551 886 q 422 855 485 886 q 506 762 467 814 q 573 645 545 710 q 617 502 602 581 q 633 328 633 422 q 613 197 633 259 q 556 87 593 134 q 467 12 519 40 q 349 -16 414 -16 q 227 12 280 -16 q 138 87 174 40 q 83 197 102 134 q 64 328 64 259 q 82 524 64 434 q 134 688 101 614 q 212 817 167 761 q 311 911 258 873 q 425 969 365 949 q 548 989 486 989 q 646 972 604 989 q 715 937 687 956 q 785 972 743 956 q 883 989 827 989 q 1008 966 957 989 q 1092 904 1060 943 q 1138 817 1124 866 q 1152 718 1152 768 q 1147 666 1152 690 q 1134 618 1142 641 q 1114 576 1125 596 q 1093 541 1103 557 q 1034 472 1066 503 l 954 550 q 996 594 978 568 q 1025 647 1012 616 q 1038 720 1038 679 q 1026 793 1038 762 q 991 845 1013 825 q 941 876 970 866 q 880 886 912 886 q 811 873 842 886 q 758 844 780 860 q 714 802 733 826 q 671 844 695 826 q 620 873 650 860 q 551 886 589 886 m 183 321 q 192 245 183 286 q 220 169 201 204 q 272 110 240 134 q 349 87 303 87 q 425 110 393 87 q 476 169 456 134 q 505 245 496 204 q 514 321 514 286 q 501 478 514 407 q 465 608 488 549 q 409 713 441 667 q 340 794 377 759 q 276 712 304 760 q 226 605 247 665 q 194 474 205 545 q 183 321 183 404 z "},"Ꮬ":{"ha":1085,"x_min":43,"x_max":1042,"o":"m 543 989 q 626 976 587 989 q 693 938 665 962 q 737 879 721 913 q 753 803 753 845 q 745 750 753 775 q 723 704 737 726 q 687 663 708 682 q 642 625 667 643 q 722 582 678 605 q 810 531 766 558 q 896 471 854 503 q 970 400 938 438 q 1022 317 1002 362 q 1042 220 1042 273 q 1026 126 1042 170 q 981 51 1010 83 q 910 2 952 20 q 815 -16 868 -16 q 735 -1 775 -16 q 664 43 695 14 q 612 115 632 72 q 593 214 593 158 q 604 303 593 263 q 634 374 616 342 q 676 429 653 406 q 723 469 700 452 q 633 517 679 494 q 543 564 587 541 q 452 517 498 541 q 361 469 406 494 q 408 429 385 452 q 450 374 431 406 q 480 303 469 342 q 492 214 492 263 q 473 115 492 158 q 421 43 453 72 q 350 -1 390 14 q 270 -16 310 -16 q 175 2 217 -16 q 104 51 133 20 q 59 126 75 83 q 43 220 43 170 q 62 316 43 273 q 111 397 80 360 q 181 467 141 435 q 266 526 222 498 q 356 578 311 553 q 443 625 401 602 q 398 663 418 643 q 362 704 377 682 q 340 750 348 726 q 332 803 332 775 q 348 879 332 845 q 392 938 364 913 q 459 976 420 962 q 543 989 498 989 m 159 220 q 167 160 159 188 q 189 111 174 132 q 224 79 203 90 q 273 67 245 67 q 315 80 296 67 q 350 113 335 92 q 373 161 365 134 q 382 216 382 187 q 372 287 382 256 q 348 342 363 318 q 313 384 332 366 q 274 413 294 401 q 191 328 223 375 q 159 220 159 281 m 703 216 q 712 161 703 187 q 735 113 720 134 q 769 80 749 92 q 812 67 789 67 q 861 79 840 67 q 897 111 882 90 q 918 160 911 132 q 926 220 926 188 q 917 278 926 251 q 893 328 909 304 q 857 373 878 352 q 811 413 836 394 q 772 384 791 401 q 738 342 753 366 q 713 287 722 318 q 703 216 703 256 m 640 806 q 632 843 640 826 q 612 871 625 859 q 581 888 599 882 q 543 895 564 895 q 504 888 522 895 q 473 871 486 882 q 453 843 460 859 q 446 806 446 826 q 472 741 446 770 q 543 682 498 711 q 613 741 586 711 q 640 806 640 770 z "},"Ꮭ":{"ha":696,"x_min":127,"x_max":632,"o":"m 518 673 q 381 895 518 895 q 277 840 313 895 q 241 673 241 785 l 241 103 l 632 103 l 632 0 l 127 0 l 127 677 q 194 911 127 833 q 381 989 260 989 q 569 909 505 989 q 632 673 632 830 l 518 673 z "},"Ꮮ":{"ha":654,"x_min":127,"x_max":632,"o":"m 632 0 l 127 0 l 127 972 l 241 972 l 241 103 l 632 103 l 632 0 z "},"Ꮯ":{"ha":860,"x_min":64,"x_max":789,"o":"m 789 41 q 521 -16 682 -16 q 189 117 313 -16 q 64 468 64 251 q 204 845 64 701 q 560 989 345 989 q 789 949 699 989 l 789 827 q 559 886 685 886 q 287 774 391 886 q 183 475 183 662 q 280 192 183 297 q 536 86 378 86 q 789 151 682 86 l 789 41 z "},"Ꮰ":{"ha":975,"x_min":30,"x_max":955,"o":"m 321 388 l 241 388 q 152 401 191 388 q 86 439 113 414 q 44 500 58 464 q 30 581 30 536 q 50 668 30 633 q 101 726 71 704 q 167 759 132 749 q 234 769 203 769 q 324 751 286 769 q 387 704 362 733 q 424 638 412 675 q 435 564 435 602 l 435 491 l 712 491 l 712 972 l 826 972 l 826 491 l 955 491 l 955 388 l 826 388 l 826 296 q 809 159 826 218 q 760 61 792 100 q 680 3 727 22 q 572 -16 633 -16 q 385 63 448 -16 q 321 300 321 142 l 321 388 m 435 300 q 572 77 435 77 q 676 133 640 77 q 712 300 712 188 l 712 388 l 435 388 l 435 300 m 321 491 l 321 568 q 314 612 321 593 q 295 643 307 631 q 268 661 283 655 q 234 667 252 667 q 198 661 215 667 q 169 643 182 654 q 150 616 157 632 q 142 581 142 600 q 148 547 142 563 q 165 518 153 530 q 195 498 176 505 q 241 491 214 491 l 321 491 z "},"Ꮱ":{"ha":1192,"x_min":16,"x_max":1149,"o":"m 865 895 q 786 883 825 895 q 708 847 747 871 q 790 751 752 805 q 856 632 828 697 q 900 491 884 567 q 916 328 916 415 q 896 197 916 259 q 839 87 876 134 q 749 12 802 40 q 631 -16 696 -16 q 512 12 565 -16 q 423 87 460 40 q 366 197 386 134 q 346 328 346 259 q 361 492 346 415 q 404 633 377 568 q 469 752 431 699 q 549 848 506 806 q 396 895 473 895 q 320 879 352 895 q 267 833 288 862 q 235 764 245 804 q 225 677 225 724 l 320 677 l 320 579 l 16 579 l 16 677 l 111 677 q 118 751 111 713 q 138 823 124 789 q 175 888 153 858 q 229 941 197 918 q 303 976 261 963 q 397 989 345 989 q 511 969 452 989 q 628 911 570 950 q 746 969 686 950 q 864 989 806 989 q 958 976 916 989 q 1031 941 1000 963 q 1085 888 1063 918 q 1122 823 1107 858 q 1142 751 1136 789 q 1149 677 1149 713 l 1035 677 q 1025 764 1035 724 q 994 833 1015 804 q 941 879 973 862 q 865 895 909 895 m 465 321 q 474 245 465 286 q 504 169 484 204 q 555 110 524 134 q 631 87 586 87 q 707 110 675 87 q 758 169 738 134 q 787 245 778 204 q 796 321 796 286 q 784 467 796 399 q 749 594 771 536 q 696 700 726 652 q 629 784 665 747 q 564 700 593 747 q 512 594 534 652 q 477 467 490 536 q 465 321 465 399 z "},"Ꮲ":{"ha":778,"x_min":127,"x_max":722,"o":"m 241 368 l 241 0 l 127 0 l 127 972 l 395 972 q 636 897 551 972 q 722 682 722 821 q 627 456 722 544 q 370 368 532 368 l 241 368 m 241 869 l 241 471 l 361 471 q 541 525 479 471 q 603 677 603 578 q 375 869 603 869 l 241 869 z "},"Ꮳ":{"ha":993,"x_min":64,"x_max":986,"o":"m 594 696 l 594 793 l 729 793 q 710 817 724 802 q 671 847 696 832 q 611 874 647 863 q 525 886 574 886 q 372 854 436 886 q 265 768 307 823 q 203 637 223 713 q 183 475 183 562 q 211 321 183 392 q 289 197 239 250 q 409 116 339 145 q 563 86 479 86 q 639 91 600 86 q 717 105 678 96 q 793 130 756 115 q 864 165 831 145 l 864 54 q 795 24 833 37 q 715 2 757 12 q 631 -12 674 -7 q 548 -16 588 -16 q 352 20 441 -16 q 199 121 263 56 q 99 274 135 186 q 64 468 64 363 q 94 674 64 579 q 182 840 124 770 q 327 949 241 909 q 525 989 413 989 q 634 977 587 989 q 718 946 682 964 q 779 904 753 927 q 821 859 804 881 q 846 820 838 838 q 859 793 855 802 l 986 793 l 986 696 l 594 696 z "},"Ꮴ":{"ha":1090,"x_min":22,"x_max":1083,"o":"m 1083 972 l 526 0 l 412 0 l 412 869 l 22 869 l 22 972 l 526 972 l 526 208 l 954 972 l 1083 972 z "},"Ꮵ":{"ha":909,"x_min":127,"x_max":880,"o":"m 483 667 q 566 698 521 685 q 659 711 610 711 q 751 695 710 711 q 820 649 791 679 q 864 577 849 620 q 880 481 880 534 l 781 481 q 775 525 781 503 q 758 566 770 547 q 724 596 745 584 q 671 608 703 608 l 671 0 l 557 0 l 557 581 l 241 423 l 241 0 l 127 0 l 127 972 l 241 972 l 241 547 l 483 667 z "},"Ꮶ":{"ha":806,"x_min":127,"x_max":804,"o":"m 804 0 l 646 0 l 270 445 q 244 479 249 470 l 241 479 l 241 0 l 127 0 l 127 972 l 241 972 l 241 515 l 244 515 q 270 549 254 530 l 633 972 l 775 972 l 358 506 l 804 0 z "},"Ꮷ":{"ha":780,"x_min":64,"x_max":667,"o":"m 553 972 l 667 972 l 667 294 q 646 169 667 226 q 586 71 625 112 q 491 6 547 29 q 366 -16 435 -16 q 240 6 296 -16 q 145 71 184 29 q 85 169 106 112 q 64 294 64 226 q 85 420 64 363 q 145 518 106 477 q 240 582 184 559 q 366 605 296 605 q 469 590 422 605 q 553 547 516 575 l 553 972 m 553 294 q 541 377 553 338 q 505 446 529 416 q 446 494 481 476 q 365 511 410 511 q 284 494 319 511 q 226 446 250 476 q 190 377 202 416 q 178 294 178 338 q 190 212 178 251 q 226 142 202 172 q 284 95 250 113 q 365 77 319 77 q 446 95 410 77 q 505 142 481 113 q 541 212 529 172 q 553 294 553 251 z "},"Ꮸ":{"ha":1269,"x_min":64,"x_max":1255,"o":"m 945 317 l 995 203 l 1046 317 l 1156 317 l 1255 132 l 1149 132 l 1101 241 l 1055 132 l 939 132 l 903 205 q 751 38 848 92 q 516 -16 654 -16 q 325 23 409 -16 q 183 130 241 62 q 94 290 125 198 q 64 486 64 381 q 94 683 64 591 q 183 842 125 774 q 325 949 241 910 q 516 989 409 989 q 751 934 654 989 q 903 767 848 880 l 943 840 l 1055 840 l 1101 731 l 1149 840 l 1255 840 l 1156 656 l 1046 656 l 995 770 l 945 656 l 829 656 q 789 750 817 707 q 719 823 760 792 q 626 870 677 853 q 516 886 574 886 q 369 854 432 886 q 265 768 307 823 q 203 641 224 714 q 183 486 183 568 q 203 331 183 404 q 265 203 224 258 q 369 118 307 149 q 516 86 432 86 q 626 103 574 86 q 719 150 677 119 q 789 223 760 180 q 829 317 817 265 l 945 317 z "},"Ꮹ":{"ha":1130,"x_min":64,"x_max":1123,"o":"m 741 255 l 646 255 l 646 353 l 949 353 l 949 255 l 854 255 l 854 132 q 917 98 883 111 q 991 86 950 86 q 1040 91 1017 86 q 1082 102 1064 96 q 1123 119 1104 110 l 1123 14 q 1082 -1 1104 5 q 1039 -12 1063 -7 q 990 -16 1015 -16 q 927 -13 954 -16 q 876 -3 899 -9 q 833 13 853 3 q 792 35 813 22 q 529 -16 671 -16 q 336 20 422 -16 q 189 122 250 57 q 96 277 129 187 q 64 473 64 367 q 101 678 64 584 q 205 842 138 772 q 365 950 273 911 q 568 989 458 989 q 835 937 728 989 l 835 811 q 555 886 716 886 q 401 854 470 886 q 283 768 332 823 q 209 639 235 713 q 183 481 183 566 q 207 322 183 395 q 275 197 230 250 q 388 116 321 145 q 543 86 455 86 q 741 132 658 86 l 741 255 z "},"Ꮺ":{"ha":1499,"x_min":43,"x_max":1436,"o":"m 951 86 q 1080 110 1023 86 q 1181 175 1137 134 q 1254 272 1224 216 q 1300 391 1284 328 q 1261 397 1289 392 q 1197 416 1233 403 q 1121 454 1160 430 q 1049 515 1082 477 q 995 605 1016 552 q 973 731 973 659 q 988 835 973 787 q 1030 917 1003 882 q 1096 970 1058 951 q 1182 989 1135 989 q 1263 971 1227 989 q 1328 923 1300 954 q 1377 850 1356 892 q 1410 758 1397 808 q 1430 652 1423 708 q 1436 538 1436 596 q 1401 317 1436 418 q 1302 141 1366 216 q 1149 25 1239 67 q 951 -16 1060 -16 q 775 9 863 -16 q 606 85 686 35 q 466 9 538 35 q 328 -16 394 -16 q 234 -3 275 -16 q 161 32 193 9 q 107 84 130 54 q 71 149 85 115 q 50 221 56 184 q 43 296 43 259 l 157 296 q 168 209 157 249 q 198 140 178 169 q 251 94 219 111 q 327 77 283 77 q 425 95 375 77 q 523 146 475 112 q 434 241 475 189 q 365 356 394 294 q 320 491 336 418 q 304 644 304 563 q 324 776 304 713 q 381 885 344 838 q 470 961 418 932 q 589 989 523 989 q 707 961 654 989 q 797 885 760 932 q 853 776 833 838 q 873 644 873 713 q 860 496 873 566 q 822 366 846 427 q 764 254 798 305 q 691 160 730 202 q 819 105 753 123 q 951 86 885 86 m 589 886 q 513 862 544 886 q 461 804 481 839 q 432 727 441 768 q 423 651 423 686 q 437 518 423 581 q 474 402 450 456 q 532 303 498 349 q 606 222 566 258 q 665 305 638 260 q 712 405 692 351 q 743 520 732 458 q 754 651 754 582 q 745 727 754 686 q 716 804 736 768 q 665 862 696 839 q 589 886 633 886 m 1320 549 q 1311 682 1320 621 q 1285 789 1302 743 q 1241 860 1267 834 q 1179 886 1215 886 q 1137 873 1155 886 q 1107 839 1119 860 q 1089 792 1095 819 q 1084 736 1084 765 q 1095 654 1084 690 q 1126 591 1107 618 q 1169 545 1145 564 q 1219 514 1194 526 q 1271 494 1245 501 q 1316 484 1296 487 q 1319 516 1318 500 q 1320 549 1320 532 z "},"Ꮻ":{"ha":1047,"x_min":64,"x_max":983,"o":"m 519 -16 q 328 21 412 -16 q 185 124 243 58 q 95 280 126 191 q 64 475 64 370 q 95 680 64 586 q 185 843 125 774 q 334 950 245 911 q 536 989 422 989 q 725 951 642 989 q 865 847 808 913 q 953 691 922 781 q 983 498 983 602 q 953 294 983 388 q 864 131 923 199 q 719 23 805 62 q 519 -16 632 -16 m 528 886 q 431 873 475 886 q 350 837 387 860 q 284 781 313 814 q 234 709 255 748 l 349 709 q 418 697 389 709 q 471 662 448 685 q 513 603 494 638 q 550 522 532 568 q 576 458 564 488 q 603 408 588 429 q 636 375 617 387 q 684 363 656 363 l 852 363 q 864 483 864 421 q 844 642 864 568 q 784 770 825 715 q 679 855 743 824 q 528 886 615 886 m 183 485 q 204 333 183 405 q 268 205 226 260 q 374 118 311 151 q 519 86 437 86 q 699 130 627 86 q 812 250 771 174 l 673 250 q 600 263 631 250 q 546 303 570 277 q 504 366 523 329 q 468 448 486 402 q 443 510 454 483 q 417 556 431 537 q 385 585 403 575 q 339 595 366 595 l 194 595 q 183 485 183 543 z "},"Ꮼ":{"ha":1192,"x_min":64,"x_max":1128,"o":"m 789 886 q 728 879 755 886 q 680 865 701 872 q 637 844 656 856 l 637 966 q 680 977 656 972 q 728 985 701 981 q 789 989 755 989 q 916 964 854 989 q 1024 889 977 940 q 1099 758 1071 838 q 1128 570 1128 679 q 1090 319 1128 429 q 985 136 1053 210 q 819 22 916 61 q 603 -16 722 -16 q 438 6 513 -16 q 303 68 363 28 q 199 164 243 109 q 124 289 154 220 q 79 435 94 357 q 64 596 64 513 q 83 758 64 686 q 138 882 102 830 q 224 961 174 933 q 338 989 275 989 q 424 970 385 989 q 489 917 462 951 q 532 835 517 882 q 547 731 547 787 q 527 614 547 665 q 477 527 508 564 q 409 466 447 490 q 335 426 372 441 q 266 403 298 411 q 215 393 234 395 q 272 273 237 329 q 356 176 308 217 q 467 110 405 134 q 603 86 528 86 q 765 119 691 86 q 893 214 840 151 q 978 368 947 276 q 1008 576 1008 459 q 991 713 1008 655 q 943 810 973 772 q 873 867 913 848 q 789 886 833 886 m 180 606 q 182 545 180 576 q 191 484 185 515 q 239 495 212 488 q 293 515 266 503 q 347 547 321 528 q 392 592 372 566 q 424 655 412 619 q 436 736 436 690 q 430 792 436 765 q 413 839 425 819 q 383 873 401 860 q 340 886 365 886 q 282 870 311 886 q 231 821 254 854 q 194 734 208 787 q 180 606 180 681 z "},"Ꮽ":{"ha":910,"x_min":43,"x_max":846,"o":"m 327 77 q 484 125 407 77 q 402 221 440 167 q 336 340 364 275 q 293 481 309 405 q 277 644 277 557 q 297 776 277 713 q 354 885 317 838 q 443 961 391 932 q 562 989 496 989 q 680 961 627 989 q 769 885 732 932 q 826 776 806 838 q 846 644 846 713 q 829 488 846 567 q 781 336 812 410 q 703 198 749 262 q 600 86 658 134 q 474 11 543 39 q 328 -16 406 -16 q 234 -3 275 -16 q 161 32 193 9 q 107 84 130 54 q 71 149 85 115 q 50 221 56 184 q 43 296 43 259 l 157 296 q 168 209 157 249 q 198 140 178 169 q 251 94 219 111 q 327 77 283 77 m 727 651 q 718 727 727 686 q 689 804 709 768 q 637 862 669 839 q 562 886 606 886 q 486 862 517 886 q 434 804 454 839 q 405 727 414 768 q 396 651 396 686 q 409 505 396 574 q 444 378 421 437 q 496 272 466 320 q 562 188 526 224 q 628 272 597 224 q 680 378 659 320 q 714 505 702 437 q 727 651 727 574 z "},"Ꮾ":{"ha":749,"x_min":75,"x_max":693,"o":"m 633 961 l 633 856 q 475 895 558 895 q 268 779 345 895 q 190 471 190 664 l 193 471 q 415 608 260 608 q 618 527 543 608 q 693 308 693 445 q 607 74 693 165 q 388 -16 521 -16 q 158 100 241 -16 q 75 428 75 217 q 184 836 75 684 q 472 989 293 989 q 633 961 574 989 m 391 514 q 251 456 304 514 q 197 318 197 397 q 251 148 197 218 q 392 77 304 77 q 528 139 476 77 q 579 294 579 200 q 530 456 579 397 q 391 514 480 514 z "},"Ꮿ":{"ha":1410,"x_min":57,"x_max":1346,"o":"m 1058 485 q 1000 439 1028 459 q 975 422 988 430 q 949 407 962 414 q 925 397 937 401 q 903 393 913 393 q 874 404 892 393 q 840 426 857 414 q 807 448 822 437 q 784 458 791 458 q 759 446 776 458 q 722 420 741 434 l 722 186 q 767 136 739 158 q 828 101 791 117 q 919 86 865 86 q 1064 116 1005 86 q 1159 199 1123 146 q 1211 325 1195 252 q 1227 483 1227 397 q 1204 642 1227 568 q 1136 770 1181 715 q 1024 855 1091 824 q 870 886 958 886 q 798 878 831 886 q 738 858 765 871 q 689 830 711 846 q 650 798 667 814 q 587 710 611 759 l 486 758 q 564 873 511 823 q 615 916 586 895 q 684 953 645 937 q 771 979 722 969 q 878 989 819 989 q 1070 951 984 989 q 1218 847 1156 913 q 1313 691 1279 781 q 1346 498 1346 602 q 1321 294 1346 388 q 1244 131 1296 199 q 1110 23 1192 62 q 916 -16 1029 -16 q 806 0 854 -16 q 726 37 758 17 q 659 90 688 60 q 586 37 628 60 q 499 0 550 17 q 382 -16 448 -16 q 247 8 307 -16 q 144 77 186 33 q 79 184 102 121 q 57 323 57 246 q 65 398 57 359 q 92 474 74 436 q 137 549 110 513 q 203 616 165 585 l 282 538 q 197 436 223 492 q 171 313 171 380 q 188 220 171 262 q 235 149 205 178 q 307 102 265 119 q 397 86 348 86 q 487 101 448 86 q 553 136 526 117 q 608 186 585 158 l 608 423 q 572 447 589 436 q 545 458 555 458 q 518 448 534 458 q 486 426 502 438 q 448 393 468 412 l 391 461 q 449 507 420 486 q 499 538 473 524 q 545 553 526 553 q 574 543 557 553 q 608 522 591 533 q 641 500 625 510 q 665 490 656 490 q 690 500 675 490 q 723 522 706 510 q 756 543 740 533 q 784 553 772 553 q 811 543 795 553 q 845 520 828 532 q 878 498 862 508 q 903 488 893 488 q 930 498 913 488 q 962 520 947 508 q 1001 553 981 534 l 1058 485 z "},"Ᏸ":{"ha":852,"x_min":7,"x_max":783,"o":"m 479 989 q 583 974 534 989 q 669 929 632 958 q 727 856 705 899 q 749 757 749 813 q 553 510 749 565 l 553 507 q 644 486 602 504 q 717 437 686 467 q 765 365 748 406 q 783 275 783 324 q 758 149 783 203 q 691 58 734 94 q 589 2 648 21 q 461 -16 530 -16 q 371 -11 414 -16 q 290 4 328 -5 l 290 -102 l 176 -102 l 176 43 q 103 79 135 60 q 50 113 72 97 q 7 147 25 130 l 63 243 q 92 218 75 231 q 127 192 106 207 q 176 163 149 178 l 176 686 q 201 816 176 760 q 268 911 226 873 q 364 969 309 949 q 479 989 419 989 m 290 665 l 290 114 q 372 94 328 101 q 466 86 416 86 q 549 96 511 86 q 613 128 586 106 q 654 184 640 150 q 669 265 669 218 q 398 456 669 456 l 331 456 l 331 550 l 394 550 q 635 729 635 550 q 623 800 635 770 q 589 849 610 830 q 538 877 568 868 q 473 886 509 886 q 409 872 441 886 q 350 831 376 859 q 307 762 323 804 q 290 665 290 721 z "},"Ᏹ":{"ha":961,"x_min":14,"x_max":877,"o":"m 877 470 l 877 191 q 861 110 877 146 q 816 45 844 73 q 750 2 787 18 q 669 -13 712 -13 q 590 2 627 -13 q 526 45 553 18 q 483 110 498 73 q 468 191 468 146 q 483 270 468 233 q 524 334 497 307 q 588 377 551 361 q 669 392 625 392 q 719 387 695 392 q 763 372 742 381 l 763 479 q 755 556 763 522 q 730 615 748 591 q 681 651 711 639 q 603 664 650 664 q 526 648 560 664 q 467 607 492 633 q 424 550 441 582 q 395 486 406 518 l 224 0 l 105 0 l 14 246 l 119 246 l 161 115 l 297 513 q 332 592 311 552 q 385 665 353 631 q 458 722 416 698 q 555 754 500 746 l 555 875 l 460 875 l 460 972 l 764 972 l 764 875 l 669 875 l 669 753 q 766 720 726 745 q 830 657 805 695 q 866 572 854 620 q 877 470 877 524 m 763 191 q 756 241 763 220 q 736 277 749 263 q 706 299 723 292 q 669 306 689 306 q 602 277 629 306 q 575 191 575 248 q 582 140 575 162 q 602 103 589 118 q 632 81 615 88 q 669 73 650 73 q 706 81 689 73 q 736 103 723 88 q 756 140 749 118 q 763 191 763 162 z "},"Ᏺ":{"ha":918,"x_min":136,"x_max":806,"o":"m 136 677 q 162 806 136 748 q 232 904 187 863 q 338 967 277 945 q 470 989 399 989 q 599 967 538 989 q 706 906 660 946 q 779 807 751 865 q 806 675 806 749 l 692 675 q 673 764 692 724 q 624 833 655 804 q 553 879 593 863 q 470 895 513 895 q 385 877 425 895 q 315 829 345 859 q 268 758 285 798 q 250 673 250 718 l 250 487 q 539 570 406 570 q 649 553 600 570 q 733 506 699 537 q 787 427 768 474 q 806 317 806 379 l 806 0 l 692 0 l 692 312 q 526 469 692 469 q 250 395 405 469 l 250 0 l 136 0 l 136 677 z "},"Ᏻ":{"ha":1179,"x_min":64,"x_max":1165,"o":"m 976 683 l 925 797 l 875 683 l 774 683 q 720 785 755 740 q 684 822 704 804 q 638 854 664 840 q 579 878 612 869 q 508 886 547 886 q 366 856 427 886 q 264 772 304 826 q 203 644 224 719 q 183 481 183 570 q 207 322 183 395 q 278 197 231 250 q 395 116 326 145 q 557 86 465 86 q 615 91 585 86 q 673 104 645 96 q 728 123 702 113 q 774 145 753 134 l 774 269 l 680 269 l 680 366 l 983 366 l 983 269 l 888 269 l 888 85 q 812 42 854 61 q 724 11 770 24 q 632 -9 679 -2 q 543 -16 586 -16 q 343 20 432 -16 q 193 122 255 57 q 97 277 131 187 q 64 473 64 367 q 92 687 64 592 q 175 850 119 783 q 314 953 231 917 q 508 989 397 989 q 591 980 553 989 q 661 958 629 972 q 718 927 692 945 q 763 891 743 909 q 837 794 809 848 l 876 867 l 981 867 l 1028 758 l 1076 867 l 1165 867 l 1080 683 l 976 683 z "},"Ᏼ":{"ha":796,"x_min":127,"x_max":726,"o":"m 127 0 l 127 972 l 404 972 q 604 911 530 972 q 678 750 678 849 q 633 606 678 667 q 510 519 589 545 l 510 517 q 667 443 608 505 q 726 279 726 380 q 637 77 726 155 q 411 0 547 0 l 127 0 m 241 869 l 241 555 l 358 555 q 505 601 452 555 q 559 728 559 646 q 372 869 559 869 l 241 869 m 241 453 l 241 103 l 396 103 q 552 151 496 103 q 607 281 607 198 q 372 453 607 453 l 241 453 z "},"᐀":{"ha":950,"x_min":157,"x_max":795,"o":"m 795 505 l 157 505 l 157 594 l 795 594 l 795 505 m 795 216 l 157 216 l 157 305 l 795 305 l 795 216 z "},"ᐁ":{"ha":1027,"x_min":27,"x_max":1000,"o":"m 27 972 l 1000 972 l 520 0 l 507 0 l 27 972 m 513 231 l 824 861 l 203 861 l 513 231 z "},"ᐂ":{"ha":1027,"x_min":27,"x_max":1000,"o":"m 507 972 l 520 972 l 1000 0 l 27 0 l 507 972 m 203 111 l 824 111 l 513 741 l 203 111 m 437 1184 q 444 1155 437 1168 q 460 1131 450 1141 q 484 1114 470 1120 q 513 1108 498 1108 q 543 1114 529 1108 q 567 1131 557 1120 q 583 1155 577 1141 q 589 1184 589 1168 q 583 1214 589 1200 q 567 1238 577 1227 q 543 1254 557 1248 q 513 1260 529 1260 q 484 1254 498 1260 q 460 1238 470 1248 q 444 1214 450 1227 q 437 1184 437 1200 m 370 1186 q 381 1241 370 1215 q 412 1286 393 1267 q 457 1317 431 1305 q 513 1328 484 1328 q 568 1317 542 1328 q 614 1286 594 1305 q 646 1241 634 1267 q 657 1186 657 1215 q 646 1131 657 1157 q 614 1084 634 1104 q 568 1052 594 1064 q 513 1040 542 1040 q 457 1052 484 1040 q 412 1084 431 1064 q 381 1131 393 1104 q 370 1186 370 1157 z "},"ᐃ":{"ha":1027,"x_min":27,"x_max":1000,"o":"m 507 972 l 520 972 l 1000 0 l 27 0 l 507 972 m 203 111 l 824 111 l 513 741 l 203 111 z "},"ᐄ":{"ha":1027,"x_min":27,"x_max":1000,"o":"m 507 972 l 520 972 l 1000 0 l 27 0 l 507 972 m 203 111 l 824 111 l 513 741 l 203 111 m 437 1184 q 444 1214 437 1200 q 460 1238 450 1227 q 484 1254 470 1248 q 513 1260 498 1260 q 543 1254 529 1260 q 567 1238 557 1248 q 583 1214 577 1227 q 589 1184 589 1200 q 583 1155 589 1168 q 567 1131 577 1141 q 543 1114 557 1120 q 513 1108 529 1108 q 484 1114 498 1108 q 460 1131 470 1120 q 444 1155 450 1141 q 437 1184 437 1168 z "},"ᐅ":{"ha":1067,"x_min":68,"x_max":1040,"o":"m 68 0 l 68 972 l 1040 493 l 1040 479 l 68 0 m 809 486 l 179 797 l 179 176 l 809 486 z "},"ᐆ":{"ha":1067,"x_min":47,"x_max":1040,"o":"m 68 0 l 68 972 l 1040 493 l 1040 479 l 68 0 m 809 486 l 179 797 l 179 176 l 809 486 m 47 1184 q 54 1214 47 1200 q 70 1238 60 1227 q 94 1254 80 1248 q 123 1260 108 1260 q 153 1254 139 1260 q 177 1238 167 1248 q 193 1214 187 1227 q 199 1184 199 1200 q 193 1155 199 1168 q 177 1131 187 1141 q 153 1114 167 1120 q 123 1108 139 1108 q 94 1114 108 1108 q 70 1131 80 1120 q 54 1155 60 1141 q 47 1184 47 1168 z "},"ᐇ":{"ha":1067,"x_min":47,"x_max":1040,"o":"m 68 0 l 68 972 l 1040 493 l 1040 479 l 68 0 m 809 486 l 179 797 l 179 176 l 809 486 m 47 1184 q 54 1214 47 1200 q 70 1238 60 1227 q 94 1254 80 1248 q 123 1260 108 1260 q 153 1254 139 1260 q 177 1238 167 1248 q 193 1214 187 1227 q 199 1184 199 1200 q 193 1155 199 1168 q 177 1131 187 1141 q 153 1114 167 1120 q 123 1108 139 1108 q 94 1114 108 1108 q 70 1131 80 1120 q 54 1155 60 1141 q 47 1184 47 1168 m 478 1184 q 484 1214 478 1200 q 500 1238 490 1227 q 525 1254 511 1248 q 554 1260 538 1260 q 584 1254 570 1260 q 608 1238 597 1248 q 624 1214 618 1227 q 630 1184 630 1200 q 624 1155 630 1168 q 608 1131 618 1141 q 584 1114 597 1120 q 554 1108 570 1108 q 525 1114 538 1108 q 500 1131 511 1120 q 484 1155 490 1141 q 478 1184 478 1168 z "},"ᐈ":{"ha":1067,"x_min":68,"x_max":1040,"o":"m 68 0 l 68 972 l 1040 493 l 1040 479 l 68 0 m 809 486 l 179 797 l 179 176 l 809 486 m 415 345 l 304 345 l 304 627 l 415 627 l 415 345 z "},"ᐉ":{"ha":1067,"x_min":68,"x_max":1040,"o":"m 68 0 l 68 972 l 1040 493 l 1040 479 l 68 0 m 809 486 l 179 797 l 179 176 l 809 486 m 290 486 q 296 516 290 502 q 313 540 302 530 q 337 556 323 550 q 366 562 351 562 q 396 556 382 562 q 420 540 410 550 q 436 516 430 530 q 442 486 442 502 q 436 457 442 471 q 420 433 430 443 q 396 416 410 422 q 366 410 382 410 q 337 416 351 410 q 313 433 323 422 q 296 457 302 443 q 290 486 290 471 z "},"ᐊ":{"ha":1067,"x_min":27,"x_max":1000,"o":"m 27 479 l 27 493 l 1000 972 l 1000 0 l 27 479 m 888 176 l 888 797 l 258 486 l 888 176 z "},"ᐋ":{"ha":1067,"x_min":27,"x_max":1020,"o":"m 27 479 l 27 493 l 1000 972 l 1000 0 l 27 479 m 888 176 l 888 797 l 258 486 l 888 176 m 868 1184 q 874 1214 868 1200 q 890 1238 880 1227 q 915 1254 901 1248 q 944 1260 928 1260 q 974 1254 960 1260 q 998 1238 987 1248 q 1014 1214 1008 1227 q 1020 1184 1020 1200 q 1014 1155 1020 1168 q 998 1131 1008 1141 q 974 1114 987 1120 q 944 1108 960 1108 q 915 1114 928 1108 q 890 1131 901 1120 q 874 1155 880 1141 q 868 1184 868 1168 z "},"ᐌ":{"ha":1027,"x_min":7,"x_max":1000,"o":"m 27 972 l 1000 972 l 520 0 l 507 0 l 27 972 m 513 231 l 824 861 l 203 861 l 513 231 m 7 486 q 13 516 7 502 q 29 540 19 530 q 53 556 39 550 q 83 562 67 562 q 112 556 98 562 q 136 540 126 550 q 153 516 146 530 q 159 486 159 502 q 153 457 159 471 q 136 433 146 443 q 112 416 126 422 q 83 410 98 410 q 53 416 67 410 q 29 433 39 422 q 13 457 19 443 q 7 486 7 471 z "},"ᐍ":{"ha":1027,"x_min":27,"x_max":1020,"o":"m 27 972 l 1000 972 l 520 0 l 507 0 l 27 972 m 513 231 l 824 861 l 203 861 l 513 231 m 868 486 q 874 516 868 502 q 890 540 880 530 q 915 556 901 550 q 944 562 928 562 q 974 556 960 562 q 998 540 987 550 q 1014 516 1008 530 q 1020 486 1020 502 q 1014 457 1020 471 q 998 433 1008 443 q 974 416 987 422 q 944 410 960 410 q 915 416 928 410 q 890 433 901 422 q 874 457 880 443 q 868 486 868 471 z "},"ᐎ":{"ha":1027,"x_min":7,"x_max":1000,"o":"m 507 972 l 520 972 l 1000 0 l 27 0 l 507 972 m 203 111 l 824 111 l 513 741 l 203 111 m 7 486 q 13 516 7 502 q 29 540 19 530 q 53 556 39 550 q 83 562 67 562 q 112 556 98 562 q 136 540 126 550 q 153 516 146 530 q 159 486 159 502 q 153 457 159 471 q 136 433 146 443 q 112 416 126 422 q 83 410 98 410 q 53 416 67 410 q 29 433 39 422 q 13 457 19 443 q 7 486 7 471 z "},"ᐏ":{"ha":1027,"x_min":27,"x_max":1020,"o":"m 507 972 l 520 972 l 1000 0 l 27 0 l 507 972 m 203 111 l 824 111 l 513 741 l 203 111 m 868 486 q 874 516 868 502 q 890 540 880 530 q 915 556 901 550 q 944 562 928 562 q 974 556 960 562 q 998 540 987 550 q 1014 516 1008 530 q 1020 486 1020 502 q 1014 457 1020 471 q 998 433 1008 443 q 974 416 987 422 q 944 410 960 410 q 915 416 928 410 q 890 433 901 422 q 874 457 880 443 q 868 486 868 471 z "},"ᐐ":{"ha":1027,"x_min":7,"x_max":1000,"o":"m 507 972 l 520 972 l 1000 0 l 27 0 l 507 972 m 203 111 l 824 111 l 513 741 l 203 111 m 437 1184 q 444 1214 437 1200 q 460 1238 450 1227 q 484 1254 470 1248 q 513 1260 498 1260 q 543 1254 529 1260 q 567 1238 557 1248 q 583 1214 577 1227 q 589 1184 589 1200 q 583 1155 589 1168 q 567 1131 577 1141 q 543 1114 557 1120 q 513 1108 529 1108 q 484 1114 498 1108 q 460 1131 470 1120 q 444 1155 450 1141 q 437 1184 437 1168 m 7 486 q 13 516 7 502 q 29 540 19 530 q 53 556 39 550 q 83 562 67 562 q 112 556 98 562 q 136 540 126 550 q 153 516 146 530 q 159 486 159 502 q 153 457 159 471 q 136 433 146 443 q 112 416 126 422 q 83 410 98 410 q 53 416 67 410 q 29 433 39 422 q 13 457 19 443 q 7 486 7 471 z "},"ᐑ":{"ha":1027,"x_min":27,"x_max":1020,"o":"m 507 972 l 520 972 l 1000 0 l 27 0 l 507 972 m 203 111 l 824 111 l 513 741 l 203 111 m 437 1184 q 444 1214 437 1200 q 460 1238 450 1227 q 484 1254 470 1248 q 513 1260 498 1260 q 543 1254 529 1260 q 567 1238 557 1248 q 583 1214 577 1227 q 589 1184 589 1200 q 583 1155 589 1168 q 567 1131 577 1141 q 543 1114 557 1120 q 513 1108 529 1108 q 484 1114 498 1108 q 460 1131 470 1120 q 444 1155 450 1141 q 437 1184 437 1168 m 868 486 q 874 516 868 502 q 890 540 880 530 q 915 556 901 550 q 944 562 928 562 q 974 556 960 562 q 998 540 987 550 q 1014 516 1008 530 q 1020 486 1020 502 q 1014 457 1020 471 q 998 433 1008 443 q 974 416 987 422 q 944 410 960 410 q 915 416 928 410 q 890 433 901 422 q 874 457 880 443 q 868 486 868 471 z "},"ᐒ":{"ha":1226,"x_min":7,"x_max":1199,"o":"m 227 0 l 227 972 l 1199 493 l 1199 479 l 227 0 m 968 486 l 338 797 l 338 176 l 968 486 m 7 486 q 13 516 7 502 q 29 540 19 530 q 53 556 39 550 q 83 562 67 562 q 112 556 98 562 q 136 540 126 550 q 153 516 146 530 q 159 486 159 502 q 153 457 159 471 q 136 433 146 443 q 112 416 126 422 q 83 410 98 410 q 53 416 67 410 q 29 433 39 422 q 13 457 19 443 q 7 486 7 471 z "},"ᐓ":{"ha":1267,"x_min":68,"x_max":1260,"o":"m 68 0 l 68 972 l 1040 493 l 1040 479 l 68 0 m 809 486 l 179 797 l 179 176 l 809 486 m 1108 486 q 1114 516 1108 502 q 1131 540 1120 530 q 1155 556 1141 550 q 1184 562 1168 562 q 1214 556 1200 562 q 1238 540 1227 550 q 1254 516 1248 530 q 1260 486 1260 502 q 1254 457 1260 471 q 1238 433 1248 443 q 1214 416 1227 422 q 1184 410 1200 410 q 1155 416 1168 410 q 1131 433 1141 422 q 1114 457 1120 443 q 1108 486 1108 471 z "},"ᐔ":{"ha":1226,"x_min":7,"x_max":1199,"o":"m 227 0 l 227 972 l 1199 493 l 1199 479 l 227 0 m 968 486 l 338 797 l 338 176 l 968 486 m 7 486 q 13 516 7 502 q 29 540 19 530 q 53 556 39 550 q 83 562 67 562 q 112 556 98 562 q 136 540 126 550 q 153 516 146 530 q 159 486 159 502 q 153 457 159 471 q 136 433 146 443 q 112 416 126 422 q 83 410 98 410 q 53 416 67 410 q 29 433 39 422 q 13 457 19 443 q 7 486 7 471 m 206 1184 q 212 1214 206 1200 q 229 1238 218 1227 q 253 1254 239 1248 q 282 1260 267 1260 q 312 1254 298 1260 q 336 1238 326 1248 q 352 1214 346 1227 q 358 1184 358 1200 q 352 1155 358 1168 q 336 1131 346 1141 q 312 1114 326 1120 q 282 1108 298 1108 q 253 1114 267 1108 q 229 1131 239 1120 q 212 1155 218 1141 q 206 1184 206 1168 z "},"ᐕ":{"ha":1267,"x_min":47,"x_max":1260,"o":"m 68 0 l 68 972 l 1040 493 l 1040 479 l 68 0 m 809 486 l 179 797 l 179 176 l 809 486 m 1108 486 q 1114 516 1108 502 q 1131 540 1120 530 q 1155 556 1141 550 q 1184 562 1168 562 q 1214 556 1200 562 q 1238 540 1227 550 q 1254 516 1248 530 q 1260 486 1260 502 q 1254 457 1260 471 q 1238 433 1248 443 q 1214 416 1227 422 q 1184 410 1200 410 q 1155 416 1168 410 q 1131 433 1141 422 q 1114 457 1120 443 q 1108 486 1108 471 m 47 1184 q 54 1214 47 1200 q 70 1238 60 1227 q 94 1254 80 1248 q 123 1260 108 1260 q 153 1254 139 1260 q 177 1238 167 1248 q 193 1214 187 1227 q 199 1184 199 1200 q 193 1155 199 1168 q 177 1131 187 1141 q 153 1114 167 1120 q 123 1108 139 1108 q 94 1114 108 1108 q 70 1131 80 1120 q 54 1155 60 1141 q 47 1184 47 1168 z "},"ᐖ":{"ha":1067,"x_min":47,"x_max":1040,"o":"m 68 0 l 68 972 l 1040 493 l 1040 479 l 68 0 m 809 486 l 179 797 l 179 176 l 809 486 m 47 1184 q 54 1214 47 1200 q 70 1238 60 1227 q 94 1254 80 1248 q 123 1260 108 1260 q 153 1254 139 1260 q 177 1238 167 1248 q 193 1214 187 1227 q 199 1184 199 1200 q 193 1155 199 1168 q 177 1131 187 1141 q 153 1114 167 1120 q 123 1108 139 1108 q 94 1114 108 1108 q 70 1131 80 1120 q 54 1155 60 1141 q 47 1184 47 1168 m 478 985 q 484 1014 478 1000 q 500 1038 490 1028 q 525 1055 511 1048 q 554 1061 538 1061 q 584 1055 570 1061 q 608 1038 597 1048 q 624 1014 618 1028 q 630 985 630 1000 q 624 955 630 969 q 608 931 618 941 q 584 915 597 921 q 554 909 570 909 q 525 915 538 909 q 500 931 511 921 q 484 955 490 941 q 478 985 478 969 z "},"ᐗ":{"ha":1267,"x_min":7,"x_max":1199,"o":"m 227 479 l 227 493 l 1199 972 l 1199 0 l 227 479 m 1088 176 l 1088 797 l 458 486 l 1088 176 m 7 486 q 13 516 7 502 q 29 540 19 530 q 53 556 39 550 q 83 562 67 562 q 112 556 98 562 q 136 540 126 550 q 153 516 146 530 q 159 486 159 502 q 153 457 159 471 q 136 433 146 443 q 112 416 126 422 q 83 410 98 410 q 53 416 67 410 q 29 433 39 422 q 13 457 19 443 q 7 486 7 471 z "},"ᐘ":{"ha":1226,"x_min":27,"x_max":1219,"o":"m 27 479 l 27 493 l 1000 972 l 1000 0 l 27 479 m 888 176 l 888 797 l 258 486 l 888 176 m 1067 486 q 1074 516 1067 502 q 1090 540 1080 530 q 1114 556 1100 550 q 1143 562 1128 562 q 1173 556 1159 562 q 1197 540 1187 550 q 1213 516 1207 530 q 1219 486 1219 502 q 1213 457 1219 471 q 1197 433 1207 443 q 1173 416 1187 422 q 1143 410 1159 410 q 1114 416 1128 410 q 1090 433 1100 422 q 1074 457 1080 443 q 1067 486 1067 471 z "},"ᐙ":{"ha":1267,"x_min":7,"x_max":1219,"o":"m 227 479 l 227 493 l 1199 972 l 1199 0 l 227 479 m 1088 176 l 1088 797 l 458 486 l 1088 176 m 7 486 q 13 516 7 502 q 29 540 19 530 q 53 556 39 550 q 83 562 67 562 q 112 556 98 562 q 136 540 126 550 q 153 516 146 530 q 159 486 159 502 q 153 457 159 471 q 136 433 146 443 q 112 416 126 422 q 83 410 98 410 q 53 416 67 410 q 29 433 39 422 q 13 457 19 443 q 7 486 7 471 m 1067 1184 q 1074 1214 1067 1200 q 1090 1238 1080 1227 q 1114 1254 1100 1248 q 1143 1260 1128 1260 q 1173 1254 1159 1260 q 1197 1238 1187 1248 q 1213 1214 1207 1227 q 1219 1184 1219 1200 q 1213 1155 1219 1168 q 1197 1131 1207 1141 q 1173 1114 1187 1120 q 1143 1108 1159 1108 q 1114 1114 1128 1108 q 1090 1131 1100 1120 q 1074 1155 1080 1141 q 1067 1184 1067 1168 z "},"ᐚ":{"ha":1226,"x_min":27,"x_max":1219,"o":"m 27 479 l 27 493 l 1000 972 l 1000 0 l 27 479 m 888 176 l 888 797 l 258 486 l 888 176 m 1067 486 q 1074 516 1067 502 q 1090 540 1080 530 q 1114 556 1100 550 q 1143 562 1128 562 q 1173 556 1159 562 q 1197 540 1187 550 q 1213 516 1207 530 q 1219 486 1219 502 q 1213 457 1219 471 q 1197 433 1207 443 q 1173 416 1187 422 q 1143 410 1159 410 q 1114 416 1128 410 q 1090 433 1100 422 q 1074 457 1080 443 q 1067 486 1067 471 m 868 1184 q 874 1214 868 1200 q 890 1238 880 1227 q 915 1254 901 1248 q 944 1260 928 1260 q 974 1254 960 1260 q 998 1238 987 1248 q 1014 1214 1008 1227 q 1020 1184 1020 1200 q 1014 1155 1020 1168 q 998 1131 1008 1141 q 974 1114 987 1120 q 944 1108 960 1108 q 915 1114 928 1108 q 890 1131 901 1120 q 874 1155 880 1141 q 868 1184 868 1168 z "},"ᐛ":{"ha":1067,"x_min":27,"x_max":1020,"o":"m 27 479 l 27 493 l 1000 972 l 1000 0 l 27 479 m 888 176 l 888 797 l 258 486 l 888 176 m 868 1184 q 874 1214 868 1200 q 890 1238 880 1227 q 915 1254 901 1248 q 944 1260 928 1260 q 974 1254 960 1260 q 998 1238 987 1248 q 1014 1214 1008 1227 q 1020 1184 1020 1200 q 1014 1155 1020 1168 q 998 1131 1008 1141 q 974 1114 987 1120 q 944 1108 960 1108 q 915 1114 928 1108 q 890 1131 901 1120 q 874 1155 880 1141 q 868 1184 868 1168 m 437 985 q 444 1014 437 1000 q 460 1038 450 1028 q 484 1055 470 1048 q 513 1061 498 1061 q 543 1055 529 1061 q 567 1038 557 1048 q 583 1014 577 1028 q 589 985 589 1000 q 583 955 589 969 q 567 931 577 941 q 543 915 557 921 q 513 909 529 909 q 484 915 498 909 q 460 931 470 921 q 444 955 450 941 q 437 985 437 969 z "},"ᐜ":{"ha":814,"x_min":68,"x_max":746,"o":"m 152 972 l 152 703 q 157 647 152 673 q 175 603 163 621 q 208 574 188 585 q 258 564 229 564 q 309 574 288 564 q 341 602 329 584 q 359 646 354 620 q 365 703 365 671 l 365 972 l 449 972 l 449 703 q 455 646 449 671 q 473 602 460 620 q 506 574 486 584 q 555 564 526 564 q 606 574 585 564 q 638 602 626 584 q 656 646 651 620 q 662 703 662 671 l 662 972 l 746 972 l 746 703 q 733 614 746 654 q 695 546 720 574 q 635 502 670 517 q 555 486 600 486 q 469 505 507 486 q 407 557 431 523 q 345 505 382 523 q 258 486 307 486 q 179 502 214 486 q 119 546 144 517 q 81 614 94 574 q 68 703 68 654 l 68 972 l 152 972 z "},"ᐝ":{"ha":711,"x_min":68,"x_max":643,"o":"m 423 829 q 429 799 423 813 q 446 775 435 785 q 470 759 456 765 q 499 753 484 753 q 529 759 515 753 q 553 775 543 765 q 569 799 563 785 q 575 829 575 813 q 569 858 575 844 q 553 882 563 872 q 529 899 543 892 q 499 905 515 905 q 470 899 484 905 q 446 882 456 892 q 429 858 435 872 q 423 829 423 844 m 355 831 q 367 886 355 860 q 398 931 378 911 q 443 961 417 950 q 498 972 469 972 q 554 961 528 972 q 600 931 580 950 q 631 886 620 911 q 643 831 643 860 q 631 775 643 802 q 600 729 620 749 q 554 697 580 709 q 498 685 528 685 q 443 697 469 685 q 398 729 417 709 q 367 775 378 749 q 355 831 355 802 m 136 630 q 142 601 136 614 q 158 576 148 587 q 182 560 168 566 q 212 554 196 554 q 241 560 227 554 q 265 576 255 566 q 281 601 275 587 q 288 630 288 614 q 281 660 288 646 q 265 684 275 673 q 241 700 255 694 q 212 706 227 706 q 182 700 196 706 q 158 684 168 694 q 142 660 148 673 q 136 630 136 646 m 68 632 q 79 687 68 661 q 110 732 91 713 q 156 763 130 751 q 211 774 182 774 q 266 763 240 774 q 312 732 292 751 q 344 687 332 713 q 355 632 355 661 q 344 576 355 603 q 312 530 332 550 q 266 498 292 510 q 211 486 240 486 q 156 498 182 486 q 110 530 130 510 q 79 576 91 550 q 68 632 68 603 z "},"ᐞ":{"ha":622,"x_min":68,"x_max":553,"o":"m 307 972 l 314 972 l 553 486 l 68 486 l 307 972 m 203 570 l 418 570 l 311 789 l 203 570 z "},"ᐟ":{"ha":469,"x_min":68,"x_max":401,"o":"m 68 486 l 309 972 l 401 972 l 159 486 l 68 486 z "},"ᐠ":{"ha":469,"x_min":68,"x_max":401,"o":"m 309 486 l 68 972 l 159 972 l 401 486 l 309 486 z "},"ᐡ":{"ha":568,"x_min":68,"x_max":500,"o":"m 500 729 q 485 634 500 679 q 442 557 470 590 q 374 505 414 524 q 283 486 334 486 q 193 505 233 486 q 125 557 153 524 q 83 634 98 590 q 68 729 68 679 l 68 972 l 153 972 l 153 729 q 161 668 153 697 q 185 618 169 640 q 226 583 201 596 q 283 570 250 570 q 341 583 317 570 q 382 618 366 596 q 407 668 399 640 q 414 729 414 697 l 414 972 l 500 972 l 500 729 z "},"ᐢ":{"ha":568,"x_min":68,"x_max":500,"o":"m 68 730 q 83 824 68 780 q 125 902 98 869 q 193 954 153 935 q 284 972 233 972 q 374 954 334 972 q 442 902 414 935 q 485 824 470 869 q 500 730 500 780 l 500 486 l 414 486 l 414 730 q 407 790 414 762 q 382 841 399 819 q 342 876 366 863 q 284 888 317 888 q 226 876 251 888 q 185 841 201 863 q 161 790 169 819 q 153 730 153 762 l 153 486 l 68 486 l 68 730 z "},"ᐣ":{"ha":622,"x_min":68,"x_max":554,"o":"m 68 486 l 68 572 l 311 572 q 372 584 343 572 q 422 617 401 596 q 457 668 444 639 q 470 730 470 696 q 457 791 470 763 q 422 841 444 820 q 372 875 401 863 q 311 887 343 887 l 68 887 l 68 972 l 311 972 q 406 954 361 972 q 483 902 450 935 q 535 824 516 869 q 554 730 554 780 q 535 635 554 679 q 483 557 516 591 q 406 505 450 524 q 311 486 361 486 l 68 486 z "},"ᐤ":{"ha":622,"x_min":68,"x_max":554,"o":"m 68 729 q 87 824 68 779 q 139 901 106 868 q 216 953 172 934 q 311 972 260 972 q 405 953 361 972 q 483 901 450 934 q 535 824 515 868 q 554 729 554 779 q 535 634 554 679 q 483 557 515 590 q 405 505 450 524 q 311 486 361 486 q 216 505 260 486 q 139 557 172 524 q 87 634 106 590 q 68 729 68 679 m 152 729 q 164 667 152 696 q 198 617 177 637 q 248 583 218 596 q 310 570 277 570 q 373 583 343 570 q 423 617 403 596 q 457 667 444 637 q 470 729 470 696 q 457 792 470 762 q 423 842 444 822 q 373 876 403 863 q 310 888 343 888 q 248 876 277 888 q 198 842 218 863 q 164 792 177 822 q 152 729 152 762 z "},"ᐥ":{"ha":652,"x_min":68,"x_max":584,"o":"m 68 486 l 309 972 l 401 972 l 159 486 l 68 486 m 251 486 l 492 972 l 584 972 l 342 486 l 251 486 z "},"ᐦ":{"ha":388,"x_min":68,"x_max":320,"o":"m 68 486 l 68 972 l 152 972 l 152 486 l 68 486 m 236 486 l 236 972 l 320 972 l 320 486 l 236 486 z "},"ᐧ":{"ha":288,"x_min":68,"x_max":220,"o":"m 68 486 q 74 516 68 502 q 90 540 80 530 q 114 556 100 550 q 144 562 128 562 q 173 556 159 562 q 197 540 187 550 q 214 516 208 530 q 220 486 220 502 q 214 457 220 471 q 197 433 208 443 q 173 416 187 422 q 144 410 159 410 q 114 416 128 410 q 90 433 100 422 q 74 457 80 443 q 68 486 68 471 z "},"ᐨ":{"ha":622,"x_min":68,"x_max":554,"o":"m 68 771 l 554 771 l 554 687 l 68 687 l 68 771 z "},"ᐩ":{"ha":622,"x_min":68,"x_max":554,"o":"m 68 771 l 269 771 l 269 972 l 353 972 l 353 771 l 554 771 l 554 687 l 353 687 l 353 486 l 269 486 l 269 687 l 68 687 l 68 771 z "},"ᐪ":{"ha":622,"x_min":68,"x_max":554,"o":"m 269 486 l 269 888 l 68 888 l 68 972 l 554 972 l 554 888 l 353 888 l 353 486 l 269 486 z "},"ᐫ":{"ha":1407,"x_min":27,"x_max":1400,"o":"m 27 972 l 1000 972 l 520 0 l 507 0 l 27 972 m 513 231 l 824 861 l 203 861 l 513 231 m 1309 486 l 1067 972 l 1159 972 l 1400 486 l 1309 486 z "},"ᐬ":{"ha":1098,"x_min":27,"x_max":1091,"o":"m 507 972 l 520 972 l 1000 0 l 27 0 l 507 972 m 203 111 l 824 111 l 513 741 l 203 111 m 1000 486 l 758 972 l 850 972 l 1091 486 l 1000 486 z "},"ᐭ":{"ha":1289,"x_min":68,"x_max":1282,"o":"m 68 0 l 68 972 l 1040 493 l 1040 479 l 68 0 m 809 486 l 179 797 l 179 176 l 809 486 m 1190 486 l 949 972 l 1040 972 l 1282 486 l 1190 486 z "},"ᐮ":{"ha":1407,"x_min":27,"x_max":1400,"o":"m 27 479 l 27 493 l 1000 972 l 1000 0 l 27 479 m 888 176 l 888 797 l 258 486 l 888 176 m 1309 486 l 1067 972 l 1159 972 l 1400 486 l 1309 486 z "},"ᐯ":{"ha":1027,"x_min":27,"x_max":1000,"o":"m 27 972 l 148 972 l 513 231 l 879 972 l 1000 972 l 520 0 l 507 0 l 27 972 z "},"ᐰ":{"ha":1027,"x_min":27,"x_max":1000,"o":"m 507 972 l 520 972 l 1000 0 l 879 0 l 513 741 l 148 0 l 27 0 l 507 972 m 437 1184 q 444 1155 437 1168 q 460 1131 450 1141 q 484 1114 470 1120 q 513 1108 498 1108 q 543 1114 529 1108 q 567 1131 557 1120 q 583 1155 577 1141 q 589 1184 589 1168 q 583 1214 589 1200 q 567 1238 577 1227 q 543 1254 557 1248 q 513 1260 529 1260 q 484 1254 498 1260 q 460 1238 470 1248 q 444 1214 450 1227 q 437 1184 437 1200 m 370 1186 q 381 1241 370 1215 q 412 1286 393 1267 q 457 1317 431 1305 q 513 1328 484 1328 q 568 1317 542 1328 q 614 1286 594 1305 q 646 1241 634 1267 q 657 1186 657 1215 q 646 1131 657 1157 q 614 1084 634 1104 q 568 1052 594 1064 q 513 1040 542 1040 q 457 1052 484 1040 q 412 1084 431 1064 q 381 1131 393 1104 q 370 1186 370 1157 z "},"ᐱ":{"ha":1027,"x_min":27,"x_max":1000,"o":"m 507 972 l 520 972 l 1000 0 l 879 0 l 513 741 l 148 0 l 27 0 l 507 972 z "},"ᐲ":{"ha":1027,"x_min":27,"x_max":1000,"o":"m 507 972 l 520 972 l 1000 0 l 879 0 l 513 741 l 148 0 l 27 0 l 507 972 m 437 1184 q 444 1214 437 1200 q 460 1238 450 1227 q 484 1254 470 1248 q 513 1260 498 1260 q 543 1254 529 1260 q 567 1238 557 1248 q 583 1214 577 1227 q 589 1184 589 1200 q 583 1155 589 1168 q 567 1131 577 1141 q 543 1114 557 1120 q 513 1108 529 1108 q 484 1114 498 1108 q 460 1131 470 1120 q 444 1155 450 1141 q 437 1184 437 1168 z "},"ᐳ":{"ha":1067,"x_min":68,"x_max":1040,"o":"m 1040 493 l 1040 479 l 68 0 l 68 121 l 809 486 l 68 852 l 68 972 l 1040 493 z "},"ᐴ":{"ha":1067,"x_min":47,"x_max":1040,"o":"m 1040 493 l 1040 479 l 68 0 l 68 121 l 809 486 l 68 852 l 68 972 l 1040 493 m 47 1184 q 54 1214 47 1200 q 70 1238 60 1227 q 94 1254 80 1248 q 123 1260 108 1260 q 153 1254 139 1260 q 177 1238 167 1248 q 193 1214 187 1227 q 199 1184 199 1200 q 193 1155 199 1168 q 177 1131 187 1141 q 153 1114 167 1120 q 123 1108 139 1108 q 94 1114 108 1108 q 70 1131 80 1120 q 54 1155 60 1141 q 47 1184 47 1168 z "},"ᐵ":{"ha":1067,"x_min":47,"x_max":1040,"o":"m 1040 493 l 1040 479 l 68 0 l 68 121 l 809 486 l 68 852 l 68 972 l 1040 493 m 47 1184 q 54 1214 47 1200 q 70 1238 60 1227 q 94 1254 80 1248 q 123 1260 108 1260 q 153 1254 139 1260 q 177 1238 167 1248 q 193 1214 187 1227 q 199 1184 199 1200 q 193 1155 199 1168 q 177 1131 187 1141 q 153 1114 167 1120 q 123 1108 139 1108 q 94 1114 108 1108 q 70 1131 80 1120 q 54 1155 60 1141 q 47 1184 47 1168 m 478 1184 q 484 1214 478 1200 q 500 1238 490 1227 q 525 1254 511 1248 q 554 1260 538 1260 q 584 1254 570 1260 q 608 1238 597 1248 q 624 1214 618 1227 q 630 1184 630 1200 q 624 1155 630 1168 q 608 1131 618 1141 q 584 1114 597 1120 q 554 1108 570 1108 q 525 1114 538 1108 q 500 1131 511 1120 q 484 1155 490 1141 q 478 1184 478 1168 z "},"ᐶ":{"ha":1067,"x_min":68,"x_max":1040,"o":"m 1040 493 l 1040 479 l 68 0 l 68 121 l 809 486 l 68 852 l 68 972 l 1040 493 m 395 345 l 283 345 l 283 627 l 395 627 l 395 345 z "},"ᐷ":{"ha":1067,"x_min":68,"x_max":1040,"o":"m 1040 493 l 1040 479 l 68 0 l 68 121 l 809 486 l 68 852 l 68 972 l 1040 493 m 290 486 q 296 516 290 502 q 313 540 302 530 q 337 556 323 550 q 366 562 351 562 q 396 556 382 562 q 420 540 410 550 q 436 516 430 530 q 442 486 442 502 q 436 457 442 471 q 420 433 430 443 q 396 416 410 422 q 366 410 382 410 q 337 416 351 410 q 313 433 323 422 q 296 457 302 443 q 290 486 290 471 z "},"ᐸ":{"ha":1067,"x_min":27,"x_max":1000,"o":"m 1000 972 l 1000 852 l 258 486 l 1000 121 l 1000 0 l 27 479 l 27 493 l 1000 972 z "},"ᐹ":{"ha":1067,"x_min":27,"x_max":1020,"o":"m 1000 972 l 1000 852 l 258 486 l 1000 121 l 1000 0 l 27 479 l 27 493 l 1000 972 m 868 1184 q 874 1214 868 1200 q 890 1238 880 1227 q 915 1254 901 1248 q 944 1260 928 1260 q 974 1254 960 1260 q 998 1238 987 1248 q 1014 1214 1008 1227 q 1020 1184 1020 1200 q 1014 1155 1020 1168 q 998 1131 1008 1141 q 974 1114 987 1120 q 944 1108 960 1108 q 915 1114 928 1108 q 890 1131 901 1120 q 874 1155 880 1141 q 868 1184 868 1168 z "},"ᐺ":{"ha":1027,"x_min":7,"x_max":1000,"o":"m 27 972 l 148 972 l 513 231 l 879 972 l 1000 972 l 520 0 l 507 0 l 27 972 m 7 486 q 13 516 7 502 q 29 540 19 530 q 53 556 39 550 q 83 562 67 562 q 112 556 98 562 q 136 540 126 550 q 153 516 146 530 q 159 486 159 502 q 153 457 159 471 q 136 433 146 443 q 112 416 126 422 q 83 410 98 410 q 53 416 67 410 q 29 433 39 422 q 13 457 19 443 q 7 486 7 471 z "},"ᐻ":{"ha":1027,"x_min":27,"x_max":1020,"o":"m 27 972 l 148 972 l 513 231 l 879 972 l 1000 972 l 520 0 l 507 0 l 27 972 m 868 486 q 874 516 868 502 q 890 540 880 530 q 915 556 901 550 q 944 562 928 562 q 974 556 960 562 q 998 540 987 550 q 1014 516 1008 530 q 1020 486 1020 502 q 1014 457 1020 471 q 998 433 1008 443 q 974 416 987 422 q 944 410 960 410 q 915 416 928 410 q 890 433 901 422 q 874 457 880 443 q 868 486 868 471 z "},"ᐼ":{"ha":1027,"x_min":7,"x_max":1000,"o":"m 507 972 l 520 972 l 1000 0 l 879 0 l 513 741 l 148 0 l 27 0 l 507 972 m 7 486 q 13 516 7 502 q 29 540 19 530 q 53 556 39 550 q 83 562 67 562 q 112 556 98 562 q 136 540 126 550 q 153 516 146 530 q 159 486 159 502 q 153 457 159 471 q 136 433 146 443 q 112 416 126 422 q 83 410 98 410 q 53 416 67 410 q 29 433 39 422 q 13 457 19 443 q 7 486 7 471 z "},"ᐽ":{"ha":1027,"x_min":27,"x_max":1020,"o":"m 507 972 l 520 972 l 1000 0 l 879 0 l 513 741 l 148 0 l 27 0 l 507 972 m 868 486 q 874 516 868 502 q 890 540 880 530 q 915 556 901 550 q 944 562 928 562 q 974 556 960 562 q 998 540 987 550 q 1014 516 1008 530 q 1020 486 1020 502 q 1014 457 1020 471 q 998 433 1008 443 q 974 416 987 422 q 944 410 960 410 q 915 416 928 410 q 890 433 901 422 q 874 457 880 443 q 868 486 868 471 z "},"ᐾ":{"ha":1027,"x_min":7,"x_max":1000,"o":"m 507 972 l 520 972 l 1000 0 l 879 0 l 513 741 l 148 0 l 27 0 l 507 972 m 437 1184 q 444 1214 437 1200 q 460 1238 450 1227 q 484 1254 470 1248 q 513 1260 498 1260 q 543 1254 529 1260 q 567 1238 557 1248 q 583 1214 577 1227 q 589 1184 589 1200 q 583 1155 589 1168 q 567 1131 577 1141 q 543 1114 557 1120 q 513 1108 529 1108 q 484 1114 498 1108 q 460 1131 470 1120 q 444 1155 450 1141 q 437 1184 437 1168 m 7 486 q 13 516 7 502 q 29 540 19 530 q 53 556 39 550 q 83 562 67 562 q 112 556 98 562 q 136 540 126 550 q 153 516 146 530 q 159 486 159 502 q 153 457 159 471 q 136 433 146 443 q 112 416 126 422 q 83 410 98 410 q 53 416 67 410 q 29 433 39 422 q 13 457 19 443 q 7 486 7 471 z "},"ᐿ":{"ha":1027,"x_min":27,"x_max":1020,"o":"m 507 972 l 520 972 l 1000 0 l 879 0 l 513 741 l 148 0 l 27 0 l 507 972 m 437 1184 q 444 1214 437 1200 q 460 1238 450 1227 q 484 1254 470 1248 q 513 1260 498 1260 q 543 1254 529 1260 q 567 1238 557 1248 q 583 1214 577 1227 q 589 1184 589 1200 q 583 1155 589 1168 q 567 1131 577 1141 q 543 1114 557 1120 q 513 1108 529 1108 q 484 1114 498 1108 q 460 1131 470 1120 q 444 1155 450 1141 q 437 1184 437 1168 m 868 486 q 874 516 868 502 q 890 540 880 530 q 915 556 901 550 q 944 562 928 562 q 974 556 960 562 q 998 540 987 550 q 1014 516 1008 530 q 1020 486 1020 502 q 1014 457 1020 471 q 998 433 1008 443 q 974 416 987 422 q 944 410 960 410 q 915 416 928 410 q 890 433 901 422 q 874 457 880 443 q 868 486 868 471 z "},"ᑀ":{"ha":1226,"x_min":7,"x_max":1199,"o":"m 1199 493 l 1199 479 l 227 0 l 227 121 l 968 486 l 227 852 l 227 972 l 1199 493 m 7 486 q 13 516 7 502 q 29 540 19 530 q 53 556 39 550 q 83 562 67 562 q 112 556 98 562 q 136 540 126 550 q 153 516 146 530 q 159 486 159 502 q 153 457 159 471 q 136 433 146 443 q 112 416 126 422 q 83 410 98 410 q 53 416 67 410 q 29 433 39 422 q 13 457 19 443 q 7 486 7 471 z "},"ᑁ":{"ha":1267,"x_min":68,"x_max":1260,"o":"m 1040 493 l 1040 479 l 68 0 l 68 121 l 809 486 l 68 852 l 68 972 l 1040 493 m 1108 486 q 1114 516 1108 502 q 1131 540 1120 530 q 1155 556 1141 550 q 1184 562 1168 562 q 1214 556 1200 562 q 1238 540 1227 550 q 1254 516 1248 530 q 1260 486 1260 502 q 1254 457 1260 471 q 1238 433 1248 443 q 1214 416 1227 422 q 1184 410 1200 410 q 1155 416 1168 410 q 1131 433 1141 422 q 1114 457 1120 443 q 1108 486 1108 471 z "},"ᑂ":{"ha":1226,"x_min":7,"x_max":1199,"o":"m 1199 493 l 1199 479 l 227 0 l 227 121 l 968 486 l 227 852 l 227 972 l 1199 493 m 7 486 q 13 516 7 502 q 29 540 19 530 q 53 556 39 550 q 83 562 67 562 q 112 556 98 562 q 136 540 126 550 q 153 516 146 530 q 159 486 159 502 q 153 457 159 471 q 136 433 146 443 q 112 416 126 422 q 83 410 98 410 q 53 416 67 410 q 29 433 39 422 q 13 457 19 443 q 7 486 7 471 m 206 1184 q 212 1214 206 1200 q 229 1238 218 1227 q 253 1254 239 1248 q 282 1260 267 1260 q 312 1254 298 1260 q 336 1238 326 1248 q 352 1214 346 1227 q 358 1184 358 1200 q 352 1155 358 1168 q 336 1131 346 1141 q 312 1114 326 1120 q 282 1108 298 1108 q 253 1114 267 1108 q 229 1131 239 1120 q 212 1155 218 1141 q 206 1184 206 1168 z "},"ᑃ":{"ha":1267,"x_min":47,"x_max":1260,"o":"m 1040 493 l 1040 479 l 68 0 l 68 121 l 809 486 l 68 852 l 68 972 l 1040 493 m 1108 486 q 1114 516 1108 502 q 1131 540 1120 530 q 1155 556 1141 550 q 1184 562 1168 562 q 1214 556 1200 562 q 1238 540 1227 550 q 1254 516 1248 530 q 1260 486 1260 502 q 1254 457 1260 471 q 1238 433 1248 443 q 1214 416 1227 422 q 1184 410 1200 410 q 1155 416 1168 410 q 1131 433 1141 422 q 1114 457 1120 443 q 1108 486 1108 471 m 47 1184 q 54 1214 47 1200 q 70 1238 60 1227 q 94 1254 80 1248 q 123 1260 108 1260 q 153 1254 139 1260 q 177 1238 167 1248 q 193 1214 187 1227 q 199 1184 199 1200 q 193 1155 199 1168 q 177 1131 187 1141 q 153 1114 167 1120 q 123 1108 139 1108 q 94 1114 108 1108 q 70 1131 80 1120 q 54 1155 60 1141 q 47 1184 47 1168 z "},"ᑄ":{"ha":1267,"x_min":7,"x_max":1199,"o":"m 1199 972 l 1199 852 l 458 486 l 1199 121 l 1199 0 l 227 479 l 227 493 l 1199 972 m 7 486 q 13 516 7 502 q 29 540 19 530 q 53 556 39 550 q 83 562 67 562 q 112 556 98 562 q 136 540 126 550 q 153 516 146 530 q 159 486 159 502 q 153 457 159 471 q 136 433 146 443 q 112 416 126 422 q 83 410 98 410 q 53 416 67 410 q 29 433 39 422 q 13 457 19 443 q 7 486 7 471 z "},"ᑅ":{"ha":1226,"x_min":27,"x_max":1219,"o":"m 1000 972 l 1000 852 l 258 486 l 1000 121 l 1000 0 l 27 479 l 27 493 l 1000 972 m 1067 486 q 1074 516 1067 502 q 1090 540 1080 530 q 1114 556 1100 550 q 1143 562 1128 562 q 1173 556 1159 562 q 1197 540 1187 550 q 1213 516 1207 530 q 1219 486 1219 502 q 1213 457 1219 471 q 1197 433 1207 443 q 1173 416 1187 422 q 1143 410 1159 410 q 1114 416 1128 410 q 1090 433 1100 422 q 1074 457 1080 443 q 1067 486 1067 471 z "},"ᑆ":{"ha":1267,"x_min":7,"x_max":1219,"o":"m 1199 972 l 1199 852 l 458 486 l 1199 121 l 1199 0 l 227 479 l 227 493 l 1199 972 m 7 486 q 13 516 7 502 q 29 540 19 530 q 53 556 39 550 q 83 562 67 562 q 112 556 98 562 q 136 540 126 550 q 153 516 146 530 q 159 486 159 502 q 153 457 159 471 q 136 433 146 443 q 112 416 126 422 q 83 410 98 410 q 53 416 67 410 q 29 433 39 422 q 13 457 19 443 q 7 486 7 471 m 1067 1184 q 1074 1214 1067 1200 q 1090 1238 1080 1227 q 1114 1254 1100 1248 q 1143 1260 1128 1260 q 1173 1254 1159 1260 q 1197 1238 1187 1248 q 1213 1214 1207 1227 q 1219 1184 1219 1200 q 1213 1155 1219 1168 q 1197 1131 1207 1141 q 1173 1114 1187 1120 q 1143 1108 1159 1108 q 1114 1114 1128 1108 q 1090 1131 1100 1120 q 1074 1155 1080 1141 q 1067 1184 1067 1168 z "},"ᑇ":{"ha":1226,"x_min":27,"x_max":1219,"o":"m 1000 972 l 1000 852 l 258 486 l 1000 121 l 1000 0 l 27 479 l 27 493 l 1000 972 m 1067 486 q 1074 516 1067 502 q 1090 540 1080 530 q 1114 556 1100 550 q 1143 562 1128 562 q 1173 556 1159 562 q 1197 540 1187 550 q 1213 516 1207 530 q 1219 486 1219 502 q 1213 457 1219 471 q 1197 433 1207 443 q 1173 416 1187 422 q 1143 410 1159 410 q 1114 416 1128 410 q 1090 433 1100 422 q 1074 457 1080 443 q 1067 486 1067 471 m 868 1184 q 874 1214 868 1200 q 890 1238 880 1227 q 915 1254 901 1248 q 944 1260 928 1260 q 974 1254 960 1260 q 998 1238 987 1248 q 1014 1214 1008 1227 q 1020 1184 1020 1200 q 1014 1155 1020 1168 q 998 1131 1008 1141 q 974 1114 987 1120 q 944 1108 960 1108 q 915 1114 928 1108 q 890 1131 901 1120 q 874 1155 880 1141 q 868 1184 868 1168 z "},"ᑈ":{"ha":1067,"x_min":27,"x_max":1020,"o":"m 1000 972 l 1000 852 l 258 486 l 1000 121 l 1000 0 l 27 479 l 27 493 l 1000 972 m 868 1184 q 874 1214 868 1200 q 890 1238 880 1227 q 915 1254 901 1248 q 944 1260 928 1260 q 974 1254 960 1260 q 998 1238 987 1248 q 1014 1214 1008 1227 q 1020 1184 1020 1200 q 1014 1155 1020 1168 q 998 1131 1008 1141 q 974 1114 987 1120 q 944 1108 960 1108 q 915 1114 928 1108 q 890 1131 901 1120 q 874 1155 880 1141 q 868 1184 868 1168 m 437 985 q 444 1014 437 1000 q 460 1038 450 1028 q 484 1055 470 1048 q 513 1061 498 1061 q 543 1055 529 1061 q 567 1038 557 1048 q 583 1014 577 1028 q 589 985 589 1000 q 583 955 589 969 q 567 931 577 941 q 543 915 557 921 q 513 909 529 909 q 484 915 498 909 q 460 931 470 921 q 444 955 450 941 q 437 985 437 969 z "},"ᑉ":{"ha":622,"x_min":72,"x_max":558,"o":"m 558 486 l 72 726 l 72 732 l 558 972 l 558 881 l 255 729 l 558 578 l 558 486 z "},"ᑊ":{"ha":220,"x_min":68,"x_max":152,"o":"m 68 486 l 68 972 l 152 972 l 152 486 l 68 486 z "},"ᑋ":{"ha":435,"x_min":68,"x_max":368,"o":"m 368 486 l 283 486 l 283 648 q 266 710 283 690 q 218 729 248 729 q 171 709 191 729 q 152 648 152 689 l 152 486 l 68 486 l 68 972 l 152 972 l 152 785 q 172 796 160 791 q 194 804 181 800 q 224 807 208 807 q 284 795 258 807 q 329 762 311 783 q 358 712 348 741 q 368 648 368 682 l 368 486 z "},"ᑌ":{"ha":1000,"x_min":68,"x_max":932,"o":"m 182 482 q 199 339 182 407 q 254 221 216 272 q 352 141 292 170 q 500 111 413 111 q 649 141 588 111 q 747 221 709 170 q 801 339 785 272 q 818 482 818 407 l 818 972 l 932 972 l 932 482 q 908 296 932 384 q 832 142 884 208 q 698 38 780 77 q 500 0 616 0 q 302 38 384 0 q 168 142 220 77 q 92 296 116 208 q 68 482 68 384 l 68 972 l 182 972 l 182 482 z "},"ᑍ":{"ha":1000,"x_min":68,"x_max":932,"o":"m 818 490 q 801 633 818 566 q 746 751 784 701 q 647 832 708 802 q 500 861 587 861 q 351 832 412 861 q 253 751 290 802 q 198 633 215 701 q 182 490 182 566 l 182 0 l 68 0 l 68 490 q 92 676 68 589 q 168 830 116 764 q 302 934 220 896 q 500 972 384 972 q 698 934 616 972 q 832 830 780 896 q 908 676 884 764 q 932 490 932 589 l 932 0 l 818 0 l 818 490 m 425 1184 q 431 1155 425 1168 q 447 1131 437 1141 q 471 1114 457 1120 q 500 1108 485 1108 q 530 1114 516 1108 q 554 1131 544 1120 q 570 1155 564 1141 q 576 1184 576 1168 q 570 1214 576 1200 q 554 1238 564 1227 q 530 1254 544 1248 q 500 1260 516 1260 q 471 1254 485 1260 q 447 1238 457 1248 q 431 1214 437 1227 q 425 1184 425 1200 m 357 1186 q 368 1241 357 1215 q 399 1286 380 1267 q 445 1317 418 1305 q 500 1328 471 1328 q 555 1317 529 1328 q 601 1286 581 1305 q 633 1241 621 1267 q 644 1186 644 1215 q 633 1131 644 1157 q 601 1084 621 1104 q 555 1052 581 1064 q 500 1040 529 1040 q 445 1052 471 1040 q 399 1084 418 1064 q 368 1131 380 1104 q 357 1186 357 1157 z "},"ᑎ":{"ha":1000,"x_min":68,"x_max":932,"o":"m 818 490 q 801 633 818 566 q 746 751 784 701 q 647 832 708 802 q 500 861 587 861 q 351 832 412 861 q 253 751 290 802 q 198 633 215 701 q 182 490 182 566 l 182 0 l 68 0 l 68 490 q 92 676 68 589 q 168 830 116 764 q 302 934 220 896 q 500 972 384 972 q 698 934 616 972 q 832 830 780 896 q 908 676 884 764 q 932 490 932 589 l 932 0 l 818 0 l 818 490 z "},"ᑏ":{"ha":1000,"x_min":68,"x_max":932,"o":"m 818 490 q 801 633 818 566 q 746 751 784 701 q 647 832 708 802 q 500 861 587 861 q 351 832 412 861 q 253 751 290 802 q 198 633 215 701 q 182 490 182 566 l 182 0 l 68 0 l 68 490 q 92 676 68 589 q 168 830 116 764 q 302 934 220 896 q 500 972 384 972 q 698 934 616 972 q 832 830 780 896 q 908 676 884 764 q 932 490 932 589 l 932 0 l 818 0 l 818 490 m 424 1184 q 430 1214 424 1200 q 446 1238 436 1227 q 470 1254 456 1248 q 500 1260 484 1260 q 529 1254 515 1260 q 553 1238 543 1248 q 570 1214 564 1227 q 576 1184 576 1200 q 570 1155 576 1168 q 553 1131 564 1141 q 529 1114 543 1120 q 500 1108 515 1108 q 470 1114 484 1108 q 446 1131 456 1120 q 430 1155 436 1141 q 424 1184 424 1168 z "},"ᑐ":{"ha":1108,"x_min":68,"x_max":1040,"o":"m 68 859 l 68 972 l 558 972 q 744 944 656 972 q 898 856 832 916 q 1002 704 964 796 q 1040 486 1040 612 q 1002 269 1040 361 q 898 118 964 178 q 744 29 832 58 q 558 0 656 0 l 68 0 l 68 114 l 558 114 q 701 135 633 114 q 819 202 768 157 q 900 317 870 247 q 929 486 929 388 q 900 653 929 583 q 819 769 870 724 q 701 837 768 815 q 558 859 633 859 l 68 859 z "},"ᑑ":{"ha":1108,"x_min":68,"x_max":1040,"o":"m 68 859 l 68 972 l 558 972 q 744 944 656 972 q 898 856 832 916 q 1002 704 964 796 q 1040 486 1040 612 q 1002 269 1040 361 q 898 118 964 178 q 744 29 832 58 q 558 0 656 0 l 68 0 l 68 114 l 558 114 q 701 135 633 114 q 819 202 768 157 q 900 317 870 247 q 929 486 929 388 q 900 653 929 583 q 819 769 870 724 q 701 837 768 815 q 558 859 633 859 l 68 859 m 235 1184 q 241 1214 235 1200 q 257 1238 247 1227 q 281 1254 267 1248 q 311 1260 295 1260 q 340 1254 326 1260 q 364 1238 354 1248 q 380 1214 374 1227 q 387 1184 387 1200 q 380 1155 387 1168 q 364 1131 374 1141 q 340 1114 354 1120 q 311 1108 326 1108 q 281 1114 295 1108 q 257 1131 267 1120 q 241 1155 247 1141 q 235 1184 235 1168 z "},"ᑒ":{"ha":1108,"x_min":68,"x_max":1040,"o":"m 68 859 l 68 972 l 558 972 q 744 944 656 972 q 898 856 832 916 q 1002 704 964 796 q 1040 486 1040 612 q 1002 269 1040 361 q 898 118 964 178 q 744 29 832 58 q 558 0 656 0 l 68 0 l 68 114 l 558 114 q 701 135 633 114 q 819 202 768 157 q 900 317 870 247 q 929 486 929 388 q 900 653 929 583 q 819 769 870 724 q 701 837 768 815 q 558 859 633 859 l 68 859 m 235 1184 q 241 1214 235 1200 q 257 1238 247 1227 q 281 1254 267 1248 q 311 1260 295 1260 q 340 1254 326 1260 q 364 1238 354 1248 q 380 1214 374 1227 q 387 1184 387 1200 q 380 1155 387 1168 q 364 1131 374 1141 q 340 1114 354 1120 q 311 1108 326 1108 q 281 1114 295 1108 q 257 1131 267 1120 q 241 1155 247 1141 q 235 1184 235 1168 m 478 1184 q 484 1214 478 1200 q 500 1238 490 1227 q 525 1254 511 1248 q 554 1260 538 1260 q 584 1254 570 1260 q 608 1238 597 1248 q 624 1214 618 1227 q 630 1184 630 1200 q 624 1155 630 1168 q 608 1131 618 1141 q 584 1114 597 1120 q 554 1108 570 1108 q 525 1114 538 1108 q 500 1131 511 1120 q 484 1155 490 1141 q 478 1184 478 1168 z "},"ᑓ":{"ha":1108,"x_min":68,"x_max":1040,"o":"m 68 859 l 68 972 l 558 972 q 744 944 656 972 q 898 856 832 916 q 1002 704 964 796 q 1040 486 1040 612 q 1002 269 1040 361 q 898 118 964 178 q 744 29 832 58 q 558 0 656 0 l 68 0 l 68 114 l 558 114 q 701 135 633 114 q 819 202 768 157 q 900 317 870 247 q 929 486 929 388 q 900 653 929 583 q 819 769 870 724 q 701 837 768 815 q 558 859 633 859 l 68 859 m 374 345 l 263 345 l 263 627 l 374 627 l 374 345 z "},"ᑔ":{"ha":1108,"x_min":68,"x_max":1040,"o":"m 68 859 l 68 972 l 558 972 q 744 944 656 972 q 898 856 832 916 q 1002 704 964 796 q 1040 486 1040 612 q 1002 269 1040 361 q 898 118 964 178 q 744 29 832 58 q 558 0 656 0 l 68 0 l 68 114 l 558 114 q 701 135 633 114 q 819 202 768 157 q 900 317 870 247 q 929 486 929 388 q 900 653 929 583 q 819 769 870 724 q 701 837 768 815 q 558 859 633 859 l 68 859 m 250 486 q 256 516 250 502 q 272 540 262 530 q 296 556 282 550 q 326 562 310 562 q 355 556 341 562 q 379 540 369 550 q 395 516 389 530 q 401 486 401 502 q 395 457 401 471 q 379 433 389 443 q 355 416 369 422 q 326 410 341 410 q 296 416 310 410 q 272 433 282 422 q 256 457 262 443 q 250 486 250 471 z "},"ᑕ":{"ha":1108,"x_min":68,"x_max":1040,"o":"m 550 859 q 407 837 475 859 q 289 769 340 815 q 209 653 238 724 q 179 486 179 583 q 209 317 179 388 q 289 202 238 247 q 407 135 340 157 q 550 114 475 114 l 1040 114 l 1040 0 l 550 0 q 364 29 452 0 q 210 118 276 58 q 106 269 144 178 q 68 486 68 361 q 106 704 68 612 q 210 856 144 796 q 364 944 276 916 q 550 972 452 972 l 1040 972 l 1040 859 l 550 859 z "},"ᑖ":{"ha":1108,"x_min":68,"x_max":1040,"o":"m 550 859 q 407 837 475 859 q 289 769 340 815 q 209 653 238 724 q 179 486 179 583 q 209 317 179 388 q 289 202 238 247 q 407 135 340 157 q 550 114 475 114 l 1040 114 l 1040 0 l 550 0 q 364 29 452 0 q 210 118 276 58 q 106 269 144 178 q 68 486 68 361 q 106 704 68 612 q 210 856 144 796 q 364 944 276 916 q 550 972 452 972 l 1040 972 l 1040 859 l 550 859 m 722 1184 q 728 1214 722 1200 q 744 1238 734 1227 q 768 1254 754 1248 q 798 1260 782 1260 q 827 1254 813 1260 q 851 1238 841 1248 q 867 1214 861 1227 q 873 1184 873 1200 q 867 1155 873 1168 q 851 1131 861 1141 q 827 1114 841 1120 q 798 1108 813 1108 q 768 1114 782 1108 q 744 1131 754 1120 q 728 1155 734 1141 q 722 1184 722 1168 z "},"ᑗ":{"ha":1158,"x_min":7,"x_max":1090,"o":"m 340 482 q 357 339 340 407 q 412 221 374 272 q 511 141 450 170 q 659 111 572 111 q 807 141 747 111 q 906 221 868 170 q 960 339 943 272 q 977 482 977 407 l 977 972 l 1090 972 l 1090 482 q 1066 296 1090 384 q 990 142 1042 208 q 857 38 939 77 q 659 0 774 0 q 460 38 543 0 q 327 142 378 77 q 251 296 275 208 q 227 482 227 384 l 227 972 l 340 972 l 340 482 m 7 486 q 13 516 7 502 q 29 540 19 530 q 53 556 39 550 q 83 562 67 562 q 112 556 98 562 q 136 540 126 550 q 153 516 146 530 q 159 486 159 502 q 153 457 159 471 q 136 433 146 443 q 112 416 126 422 q 83 410 98 410 q 53 416 67 410 q 29 433 39 422 q 13 457 19 443 q 7 486 7 471 z "},"ᑘ":{"ha":1158,"x_min":68,"x_max":1152,"o":"m 182 482 q 199 339 182 407 q 254 221 216 272 q 352 141 292 170 q 500 111 413 111 q 649 141 588 111 q 747 221 709 170 q 801 339 785 272 q 818 482 818 407 l 818 972 l 932 972 l 932 482 q 908 296 932 384 q 832 142 884 208 q 698 38 780 77 q 500 0 616 0 q 302 38 384 0 q 168 142 220 77 q 92 296 116 208 q 68 482 68 384 l 68 972 l 182 972 l 182 482 m 1000 486 q 1006 516 1000 502 q 1022 540 1012 530 q 1046 556 1032 550 q 1076 562 1060 562 q 1105 556 1091 562 q 1129 540 1119 550 q 1145 516 1139 530 q 1152 486 1152 502 q 1145 457 1152 471 q 1129 433 1139 443 q 1105 416 1119 422 q 1076 410 1091 410 q 1046 416 1060 410 q 1022 433 1032 422 q 1006 457 1012 443 q 1000 486 1000 471 z "},"ᑙ":{"ha":1158,"x_min":7,"x_max":1090,"o":"m 977 490 q 960 633 977 566 q 905 751 943 701 q 806 832 867 802 q 659 861 745 861 q 510 832 570 861 q 411 751 449 802 q 357 633 374 701 q 340 490 340 566 l 340 0 l 227 0 l 227 490 q 251 676 227 589 q 327 830 275 764 q 460 934 378 896 q 659 972 543 972 q 857 934 774 972 q 990 830 939 896 q 1066 676 1042 764 q 1090 490 1090 589 l 1090 0 l 977 0 l 977 490 m 7 486 q 13 516 7 502 q 29 540 19 530 q 53 556 39 550 q 83 562 67 562 q 112 556 98 562 q 136 540 126 550 q 153 516 146 530 q 159 486 159 502 q 153 457 159 471 q 136 433 146 443 q 112 416 126 422 q 83 410 98 410 q 53 416 67 410 q 29 433 39 422 q 13 457 19 443 q 7 486 7 471 z "},"ᑚ":{"ha":1158,"x_min":68,"x_max":1152,"o":"m 818 490 q 801 633 818 566 q 746 751 784 701 q 647 832 708 802 q 500 861 587 861 q 351 832 412 861 q 253 751 290 802 q 198 633 215 701 q 182 490 182 566 l 182 0 l 68 0 l 68 490 q 92 676 68 589 q 168 830 116 764 q 302 934 220 896 q 500 972 384 972 q 698 934 616 972 q 832 830 780 896 q 908 676 884 764 q 932 490 932 589 l 932 0 l 818 0 l 818 490 m 1000 486 q 1006 516 1000 502 q 1022 540 1012 530 q 1046 556 1032 550 q 1076 562 1060 562 q 1105 556 1091 562 q 1129 540 1119 550 q 1145 516 1139 530 q 1152 486 1152 502 q 1145 457 1152 471 q 1129 433 1139 443 q 1105 416 1119 422 q 1076 410 1091 410 q 1046 416 1060 410 q 1022 433 1032 422 q 1006 457 1012 443 q 1000 486 1000 471 z "},"ᑛ":{"ha":1158,"x_min":7,"x_max":1090,"o":"m 977 490 q 960 633 977 566 q 905 751 943 701 q 806 832 867 802 q 659 861 745 861 q 510 832 570 861 q 411 751 449 802 q 357 633 374 701 q 340 490 340 566 l 340 0 l 227 0 l 227 490 q 251 676 227 589 q 327 830 275 764 q 460 934 378 896 q 659 972 543 972 q 857 934 774 972 q 990 830 939 896 q 1066 676 1042 764 q 1090 490 1090 589 l 1090 0 l 977 0 l 977 490 m 7 486 q 13 516 7 502 q 29 540 19 530 q 53 556 39 550 q 83 562 67 562 q 112 556 98 562 q 136 540 126 550 q 153 516 146 530 q 159 486 159 502 q 153 457 159 471 q 136 433 146 443 q 112 416 126 422 q 83 410 98 410 q 53 416 67 410 q 29 433 39 422 q 13 457 19 443 q 7 486 7 471 m 583 1184 q 589 1214 583 1200 q 605 1238 595 1227 q 629 1254 615 1248 q 659 1260 643 1260 q 688 1254 674 1260 q 712 1238 702 1248 q 728 1214 722 1227 q 734 1184 734 1200 q 728 1155 734 1168 q 712 1131 722 1141 q 688 1114 702 1120 q 659 1108 674 1108 q 629 1114 643 1108 q 605 1131 615 1120 q 589 1155 595 1141 q 583 1184 583 1168 z "},"ᑜ":{"ha":1158,"x_min":68,"x_max":1152,"o":"m 818 490 q 801 633 818 566 q 746 751 784 701 q 647 832 708 802 q 500 861 587 861 q 351 832 412 861 q 253 751 290 802 q 198 633 215 701 q 182 490 182 566 l 182 0 l 68 0 l 68 490 q 92 676 68 589 q 168 830 116 764 q 302 934 220 896 q 500 972 384 972 q 698 934 616 972 q 832 830 780 896 q 908 676 884 764 q 932 490 932 589 l 932 0 l 818 0 l 818 490 m 1000 486 q 1006 516 1000 502 q 1022 540 1012 530 q 1046 556 1032 550 q 1076 562 1060 562 q 1105 556 1091 562 q 1129 540 1119 550 q 1145 516 1139 530 q 1152 486 1152 502 q 1145 457 1152 471 q 1129 433 1139 443 q 1105 416 1119 422 q 1076 410 1091 410 q 1046 416 1060 410 q 1022 433 1032 422 q 1006 457 1012 443 q 1000 486 1000 471 m 424 1184 q 430 1214 424 1200 q 446 1238 436 1227 q 470 1254 456 1248 q 500 1260 484 1260 q 529 1254 515 1260 q 553 1238 543 1248 q 570 1214 564 1227 q 576 1184 576 1200 q 570 1155 576 1168 q 553 1131 564 1141 q 529 1114 543 1120 q 500 1108 515 1108 q 470 1114 484 1108 q 446 1131 456 1120 q 430 1155 436 1141 q 424 1184 424 1168 z "},"ᑝ":{"ha":1267,"x_min":7,"x_max":1199,"o":"m 227 859 l 227 972 l 717 972 q 903 944 815 972 q 1057 856 991 916 q 1161 704 1122 796 q 1199 486 1199 612 q 1161 269 1199 361 q 1057 118 1122 178 q 903 29 991 58 q 717 0 815 0 l 227 0 l 227 114 l 717 114 q 860 135 792 114 q 978 202 927 157 q 1058 317 1029 247 q 1088 486 1088 388 q 1058 653 1088 583 q 978 769 1029 724 q 860 837 927 815 q 717 859 792 859 l 227 859 m 7 486 q 13 516 7 502 q 29 540 19 530 q 53 556 39 550 q 83 562 67 562 q 112 556 98 562 q 136 540 126 550 q 153 516 146 530 q 159 486 159 502 q 153 457 159 471 q 136 433 146 443 q 112 416 126 422 q 83 410 98 410 q 53 416 67 410 q 29 433 39 422 q 13 457 19 443 q 7 486 7 471 z "},"ᑞ":{"ha":1267,"x_min":68,"x_max":1260,"o":"m 68 859 l 68 972 l 558 972 q 744 944 656 972 q 898 856 832 916 q 1002 704 964 796 q 1040 486 1040 612 q 1002 269 1040 361 q 898 118 964 178 q 744 29 832 58 q 558 0 656 0 l 68 0 l 68 114 l 558 114 q 701 135 633 114 q 819 202 768 157 q 900 317 870 247 q 929 486 929 388 q 900 653 929 583 q 819 769 870 724 q 701 837 768 815 q 558 859 633 859 l 68 859 m 1108 486 q 1114 516 1108 502 q 1131 540 1120 530 q 1155 556 1141 550 q 1184 562 1168 562 q 1214 556 1200 562 q 1238 540 1227 550 q 1254 516 1248 530 q 1260 486 1260 502 q 1254 457 1260 471 q 1238 433 1248 443 q 1214 416 1227 422 q 1184 410 1200 410 q 1155 416 1168 410 q 1131 433 1141 422 q 1114 457 1120 443 q 1108 486 1108 471 z "},"ᑟ":{"ha":1267,"x_min":7,"x_max":1199,"o":"m 227 859 l 227 972 l 717 972 q 903 944 815 972 q 1057 856 991 916 q 1161 704 1122 796 q 1199 486 1199 612 q 1161 269 1199 361 q 1057 118 1122 178 q 903 29 991 58 q 717 0 815 0 l 227 0 l 227 114 l 717 114 q 860 135 792 114 q 978 202 927 157 q 1058 317 1029 247 q 1088 486 1088 388 q 1058 653 1088 583 q 978 769 1029 724 q 860 837 927 815 q 717 859 792 859 l 227 859 m 7 486 q 13 516 7 502 q 29 540 19 530 q 53 556 39 550 q 83 562 67 562 q 112 556 98 562 q 136 540 126 550 q 153 516 146 530 q 159 486 159 502 q 153 457 159 471 q 136 433 146 443 q 112 416 126 422 q 83 410 98 410 q 53 416 67 410 q 29 433 39 422 q 13 457 19 443 q 7 486 7 471 m 393 1184 q 399 1214 393 1200 q 416 1238 406 1227 q 440 1254 426 1248 q 469 1260 454 1260 q 499 1254 485 1260 q 523 1238 513 1248 q 539 1214 533 1227 q 545 1184 545 1200 q 539 1155 545 1168 q 523 1131 533 1141 q 499 1114 513 1120 q 469 1108 485 1108 q 440 1114 454 1108 q 416 1131 426 1120 q 399 1155 406 1141 q 393 1184 393 1168 z "},"ᑠ":{"ha":1267,"x_min":68,"x_max":1260,"o":"m 68 859 l 68 972 l 558 972 q 744 944 656 972 q 898 856 832 916 q 1002 704 964 796 q 1040 486 1040 612 q 1002 269 1040 361 q 898 118 964 178 q 744 29 832 58 q 558 0 656 0 l 68 0 l 68 114 l 558 114 q 701 135 633 114 q 819 202 768 157 q 900 317 870 247 q 929 486 929 388 q 900 653 929 583 q 819 769 870 724 q 701 837 768 815 q 558 859 633 859 l 68 859 m 1108 486 q 1114 516 1108 502 q 1131 540 1120 530 q 1155 556 1141 550 q 1184 562 1168 562 q 1214 556 1200 562 q 1238 540 1227 550 q 1254 516 1248 530 q 1260 486 1260 502 q 1254 457 1260 471 q 1238 433 1248 443 q 1214 416 1227 422 q 1184 410 1200 410 q 1155 416 1168 410 q 1131 433 1141 422 q 1114 457 1120 443 q 1108 486 1108 471 m 235 1184 q 241 1214 235 1200 q 257 1238 247 1227 q 281 1254 267 1248 q 311 1260 295 1260 q 340 1254 326 1260 q 364 1238 354 1248 q 380 1214 374 1227 q 387 1184 387 1200 q 380 1155 387 1168 q 364 1131 374 1141 q 340 1114 354 1120 q 311 1108 326 1108 q 281 1114 295 1108 q 257 1131 267 1120 q 241 1155 247 1141 q 235 1184 235 1168 z "},"ᑡ":{"ha":1267,"x_min":7,"x_max":1199,"o":"m 709 859 q 566 837 633 859 q 448 769 498 815 q 367 653 397 724 q 338 486 338 583 q 367 317 338 388 q 448 202 397 247 q 566 135 498 157 q 709 114 633 114 l 1199 114 l 1199 0 l 709 0 q 523 29 610 0 q 369 118 435 58 q 265 269 303 178 q 227 486 227 361 q 265 704 227 612 q 369 856 303 796 q 523 944 435 916 q 709 972 610 972 l 1199 972 l 1199 859 l 709 859 m 7 486 q 13 516 7 502 q 29 540 19 530 q 53 556 39 550 q 83 562 67 562 q 112 556 98 562 q 136 540 126 550 q 153 516 146 530 q 159 486 159 502 q 153 457 159 471 q 136 433 146 443 q 112 416 126 422 q 83 410 98 410 q 53 416 67 410 q 29 433 39 422 q 13 457 19 443 q 7 486 7 471 z "},"ᑢ":{"ha":1267,"x_min":68,"x_max":1260,"o":"m 550 859 q 407 837 475 859 q 289 769 340 815 q 209 653 238 724 q 179 486 179 583 q 209 317 179 388 q 289 202 238 247 q 407 135 340 157 q 550 114 475 114 l 1040 114 l 1040 0 l 550 0 q 364 29 452 0 q 210 118 276 58 q 106 269 144 178 q 68 486 68 361 q 106 704 68 612 q 210 856 144 796 q 364 944 276 916 q 550 972 452 972 l 1040 972 l 1040 859 l 550 859 m 1108 486 q 1114 516 1108 502 q 1131 540 1120 530 q 1155 556 1141 550 q 1184 562 1168 562 q 1214 556 1200 562 q 1238 540 1227 550 q 1254 516 1248 530 q 1260 486 1260 502 q 1254 457 1260 471 q 1238 433 1248 443 q 1214 416 1227 422 q 1184 410 1200 410 q 1155 416 1168 410 q 1131 433 1141 422 q 1114 457 1120 443 q 1108 486 1108 471 z "},"ᑣ":{"ha":1267,"x_min":7,"x_max":1199,"o":"m 709 859 q 566 837 633 859 q 448 769 498 815 q 367 653 397 724 q 338 486 338 583 q 367 317 338 388 q 448 202 397 247 q 566 135 498 157 q 709 114 633 114 l 1199 114 l 1199 0 l 709 0 q 523 29 610 0 q 369 118 435 58 q 265 269 303 178 q 227 486 227 361 q 265 704 227 612 q 369 856 303 796 q 523 944 435 916 q 709 972 610 972 l 1199 972 l 1199 859 l 709 859 m 7 486 q 13 516 7 502 q 29 540 19 530 q 53 556 39 550 q 83 562 67 562 q 112 556 98 562 q 136 540 126 550 q 153 516 146 530 q 159 486 159 502 q 153 457 159 471 q 136 433 146 443 q 112 416 126 422 q 83 410 98 410 q 53 416 67 410 q 29 433 39 422 q 13 457 19 443 q 7 486 7 471 m 880 1184 q 886 1214 880 1200 q 903 1238 892 1227 q 927 1254 913 1248 q 956 1260 941 1260 q 986 1254 972 1260 q 1010 1238 1000 1248 q 1026 1214 1020 1227 q 1032 1184 1032 1200 q 1026 1155 1032 1168 q 1010 1131 1020 1141 q 986 1114 1000 1120 q 956 1108 972 1108 q 927 1114 941 1108 q 903 1131 913 1120 q 886 1155 892 1141 q 880 1184 880 1168 z "},"ᑤ":{"ha":1267,"x_min":68,"x_max":1260,"o":"m 550 859 q 407 837 475 859 q 289 769 340 815 q 209 653 238 724 q 179 486 179 583 q 209 317 179 388 q 289 202 238 247 q 407 135 340 157 q 550 114 475 114 l 1040 114 l 1040 0 l 550 0 q 364 29 452 0 q 210 118 276 58 q 106 269 144 178 q 68 486 68 361 q 106 704 68 612 q 210 856 144 796 q 364 944 276 916 q 550 972 452 972 l 1040 972 l 1040 859 l 550 859 m 1108 486 q 1114 516 1108 502 q 1131 540 1120 530 q 1155 556 1141 550 q 1184 562 1168 562 q 1214 556 1200 562 q 1238 540 1227 550 q 1254 516 1248 530 q 1260 486 1260 502 q 1254 457 1260 471 q 1238 433 1248 443 q 1214 416 1227 422 q 1184 410 1200 410 q 1155 416 1168 410 q 1131 433 1141 422 q 1114 457 1120 443 q 1108 486 1108 471 m 722 1184 q 728 1214 722 1200 q 744 1238 734 1227 q 768 1254 754 1248 q 798 1260 782 1260 q 827 1254 813 1260 q 851 1238 841 1248 q 867 1214 861 1227 q 873 1184 873 1200 q 867 1155 873 1168 q 851 1131 861 1141 q 827 1114 841 1120 q 798 1108 813 1108 q 768 1114 782 1108 q 744 1131 754 1120 q 728 1155 734 1141 q 722 1184 722 1168 z "},"ᑥ":{"ha":1267,"x_min":7,"x_max":1199,"o":"m 709 859 q 566 837 633 859 q 448 769 498 815 q 367 653 397 724 q 338 486 338 583 q 367 317 338 388 q 448 202 397 247 q 566 135 498 157 q 709 114 633 114 l 1199 114 l 1199 0 l 709 0 q 523 29 610 0 q 369 118 435 58 q 265 269 303 178 q 227 486 227 361 q 265 704 227 612 q 369 856 303 796 q 523 944 435 916 q 709 972 610 972 l 1199 972 l 1199 859 l 709 859 m 7 729 q 13 759 7 745 q 29 783 19 772 q 53 799 39 793 q 83 805 67 805 q 112 799 98 805 q 136 783 126 793 q 153 759 146 772 q 159 729 159 745 q 153 700 159 713 q 136 675 146 686 q 112 659 126 665 q 83 653 98 653 q 53 659 67 653 q 29 675 39 665 q 13 700 19 686 q 7 729 7 713 m 7 243 q 13 272 7 258 q 29 296 19 286 q 53 313 39 307 q 83 319 67 319 q 112 313 98 319 q 136 296 126 307 q 153 272 146 286 q 159 243 159 258 q 153 213 159 227 q 136 189 146 199 q 112 173 126 179 q 83 167 98 167 q 53 173 67 167 q 29 189 39 179 q 13 213 19 199 q 7 243 7 227 z "},"ᑦ":{"ha":622,"x_min":68,"x_max":554,"o":"m 311 486 q 216 505 260 486 q 139 557 172 524 q 87 635 106 591 q 68 730 68 679 q 87 824 68 780 q 139 902 106 869 q 216 954 172 935 q 311 972 260 972 l 554 972 l 554 887 l 316 887 q 254 875 284 887 q 202 841 224 863 q 165 791 179 820 q 152 730 152 763 q 165 668 152 696 q 202 617 179 639 q 254 584 224 596 q 316 572 284 572 l 554 572 l 554 486 l 311 486 z "},"ᑧ":{"ha":1152,"x_min":68,"x_max":1084,"o":"m 182 482 q 199 339 182 407 q 254 221 216 272 q 352 141 292 170 q 500 111 413 111 q 649 141 588 111 q 747 221 709 170 q 801 339 785 272 q 818 482 818 407 l 818 972 l 932 972 l 932 482 q 908 296 932 384 q 832 142 884 208 q 698 38 780 77 q 500 0 616 0 q 302 38 384 0 q 168 142 220 77 q 92 296 116 208 q 68 482 68 384 l 68 972 l 182 972 l 182 482 m 1000 486 l 1000 972 l 1084 972 l 1084 486 l 1000 486 z "},"ᑨ":{"ha":1152,"x_min":68,"x_max":1084,"o":"m 818 490 q 801 633 818 566 q 746 751 784 701 q 647 832 708 802 q 500 861 587 861 q 351 832 412 861 q 253 751 290 802 q 198 633 215 701 q 182 490 182 566 l 182 0 l 68 0 l 68 490 q 92 676 68 589 q 168 830 116 764 q 302 934 220 896 q 500 972 384 972 q 698 934 616 972 q 832 830 780 896 q 908 676 884 764 q 932 490 932 589 l 932 0 l 818 0 l 818 490 m 1000 486 l 1000 972 l 1084 972 l 1084 486 l 1000 486 z "},"ᑩ":{"ha":1260,"x_min":68,"x_max":1192,"o":"m 68 859 l 68 972 l 558 972 q 744 944 656 972 q 898 856 832 916 q 1002 704 964 796 q 1040 486 1040 612 q 1002 269 1040 361 q 898 118 964 178 q 744 29 832 58 q 558 0 656 0 l 68 0 l 68 114 l 558 114 q 701 135 633 114 q 819 202 768 157 q 900 317 870 247 q 929 486 929 388 q 900 653 929 583 q 819 769 870 724 q 701 837 768 815 q 558 859 633 859 l 68 859 m 1108 486 l 1108 972 l 1192 972 l 1192 486 l 1108 486 z "},"ᑪ":{"ha":1260,"x_min":68,"x_max":1192,"o":"m 550 859 q 407 837 475 859 q 289 769 340 815 q 209 653 238 724 q 179 486 179 583 q 209 317 179 388 q 289 202 238 247 q 407 135 340 157 q 550 114 475 114 l 1040 114 l 1040 0 l 550 0 q 364 29 452 0 q 210 118 276 58 q 106 269 144 178 q 68 486 68 361 q 106 704 68 612 q 210 856 144 796 q 364 944 276 916 q 550 972 452 972 l 1040 972 l 1040 859 l 550 859 m 1108 486 l 1108 972 l 1192 972 l 1192 486 l 1108 486 z "},"ᑫ":{"ha":736,"x_min":68,"x_max":668,"o":"m 554 372 l 368 372 q 251 396 306 372 q 156 460 197 419 q 92 555 115 500 q 68 672 68 610 q 92 789 68 734 q 156 884 115 844 q 251 949 197 925 q 368 972 306 972 q 485 949 430 972 q 580 884 539 925 q 644 789 621 844 q 668 672 668 734 l 668 0 l 554 0 l 554 372 m 554 672 q 539 746 554 712 q 499 805 524 781 q 439 844 473 830 q 367 859 406 859 q 294 844 328 859 q 235 805 260 830 q 196 746 210 781 q 182 672 182 712 q 196 599 182 633 q 235 540 210 565 q 294 500 260 515 q 367 486 328 486 l 554 486 l 554 672 z "},"ᑬ":{"ha":736,"x_min":68,"x_max":668,"o":"m 182 0 l 68 0 l 68 672 q 91 789 68 734 q 155 884 115 844 q 251 949 196 925 q 368 972 305 972 q 484 949 429 972 q 580 884 539 925 q 644 789 621 844 q 668 672 668 734 q 644 555 668 610 q 580 460 621 500 q 484 396 539 419 q 368 372 429 372 l 182 372 l 182 0 m 182 486 l 369 486 q 441 500 408 486 q 500 540 475 515 q 540 599 526 565 q 554 672 554 633 q 540 746 554 712 q 500 805 526 781 q 441 844 475 830 q 369 859 408 859 q 296 844 330 859 q 237 805 262 830 q 197 746 212 781 q 182 672 182 712 l 182 486 m 292 1184 q 298 1155 292 1168 q 314 1131 304 1141 q 338 1114 324 1120 q 368 1108 352 1108 q 397 1114 383 1108 q 421 1131 411 1120 q 437 1155 431 1141 q 444 1184 444 1168 q 437 1214 444 1200 q 421 1238 431 1227 q 397 1254 411 1248 q 368 1260 383 1260 q 338 1254 352 1260 q 314 1238 324 1248 q 298 1214 304 1227 q 292 1184 292 1200 m 224 1186 q 235 1241 224 1215 q 266 1286 247 1267 q 312 1317 286 1305 q 367 1328 338 1328 q 422 1317 396 1328 q 468 1286 448 1305 q 500 1241 488 1267 q 511 1186 511 1215 q 500 1131 511 1157 q 468 1084 488 1104 q 422 1052 448 1064 q 367 1040 396 1040 q 312 1052 338 1040 q 266 1084 286 1064 q 235 1131 247 1104 q 224 1186 224 1157 z "},"ᑭ":{"ha":736,"x_min":68,"x_max":668,"o":"m 182 0 l 68 0 l 68 672 q 91 789 68 734 q 155 884 115 844 q 251 949 196 925 q 368 972 305 972 q 484 949 429 972 q 580 884 539 925 q 644 789 621 844 q 668 672 668 734 q 644 555 668 610 q 580 460 621 500 q 484 396 539 419 q 368 372 429 372 l 182 372 l 182 0 m 182 486 l 369 486 q 441 500 408 486 q 500 540 475 515 q 540 599 526 565 q 554 672 554 633 q 540 746 554 712 q 500 805 526 781 q 441 844 475 830 q 369 859 408 859 q 296 844 330 859 q 237 805 262 830 q 197 746 212 781 q 182 672 182 712 l 182 486 z "},"ᑮ":{"ha":736,"x_min":68,"x_max":668,"o":"m 182 0 l 68 0 l 68 672 q 91 789 68 734 q 155 884 115 844 q 251 949 196 925 q 368 972 305 972 q 484 949 429 972 q 580 884 539 925 q 644 789 621 844 q 668 672 668 734 q 644 555 668 610 q 580 460 621 500 q 484 396 539 419 q 368 372 429 372 l 182 372 l 182 0 m 182 486 l 369 486 q 441 500 408 486 q 500 540 475 515 q 540 599 526 565 q 554 672 554 633 q 540 746 554 712 q 500 805 526 781 q 441 844 475 830 q 369 859 408 859 q 296 844 330 859 q 237 805 262 830 q 197 746 212 781 q 182 672 182 712 l 182 486 m 292 1184 q 298 1214 292 1200 q 314 1238 304 1227 q 338 1254 324 1248 q 368 1260 352 1260 q 397 1254 383 1260 q 421 1238 411 1248 q 437 1214 431 1227 q 444 1184 444 1200 q 437 1155 444 1168 q 421 1131 431 1141 q 397 1114 411 1120 q 368 1108 383 1108 q 338 1114 352 1108 q 314 1131 324 1120 q 298 1155 304 1141 q 292 1184 292 1168 z "},"ᑯ":{"ha":736,"x_min":68,"x_max":668,"o":"m 554 972 l 668 972 l 668 300 q 644 183 668 238 q 580 88 621 129 q 485 24 539 47 q 368 0 430 0 q 251 24 306 0 q 156 88 197 47 q 92 183 115 129 q 68 300 68 238 q 92 417 68 362 q 156 512 115 471 q 251 576 197 553 q 368 600 306 600 l 554 600 l 554 972 m 554 486 l 367 486 q 294 472 328 486 q 235 433 260 458 q 196 374 210 408 q 182 300 182 340 q 196 226 182 260 q 235 167 210 192 q 294 128 260 142 q 367 114 328 114 q 439 128 406 114 q 499 167 473 142 q 539 226 524 192 q 554 300 554 260 l 554 486 z "},"ᑰ":{"ha":736,"x_min":68,"x_max":687,"o":"m 554 972 l 668 972 l 668 300 q 644 183 668 238 q 580 88 621 129 q 485 24 539 47 q 368 0 430 0 q 251 24 306 0 q 156 88 197 47 q 92 183 115 129 q 68 300 68 238 q 92 417 68 362 q 156 512 115 471 q 251 576 197 553 q 368 600 306 600 l 554 600 l 554 972 m 554 486 l 367 486 q 294 472 328 486 q 235 433 260 458 q 196 374 210 408 q 182 300 182 340 q 196 226 182 260 q 235 167 210 192 q 294 128 260 142 q 367 114 328 114 q 439 128 406 114 q 499 167 473 142 q 539 226 524 192 q 554 300 554 260 l 554 486 m 535 1184 q 541 1214 535 1200 q 557 1238 547 1227 q 582 1254 568 1248 q 611 1260 595 1260 q 641 1254 627 1260 q 665 1238 654 1248 q 681 1214 675 1227 q 687 1184 687 1200 q 681 1155 687 1168 q 665 1131 675 1141 q 641 1114 654 1120 q 611 1108 627 1108 q 582 1114 595 1108 q 557 1131 568 1120 q 541 1155 547 1141 q 535 1184 535 1168 z "},"ᑱ":{"ha":736,"x_min":68,"x_max":687,"o":"m 554 972 l 668 972 l 668 300 q 644 183 668 238 q 580 88 621 129 q 485 24 539 47 q 368 0 430 0 q 251 24 306 0 q 156 88 197 47 q 92 183 115 129 q 68 300 68 238 q 92 417 68 362 q 156 512 115 471 q 251 576 197 553 q 368 600 306 600 l 554 600 l 554 972 m 554 486 l 367 486 q 294 472 328 486 q 235 433 260 458 q 196 374 210 408 q 182 300 182 340 q 196 226 182 260 q 235 167 210 192 q 294 128 260 142 q 367 114 328 114 q 439 128 406 114 q 499 167 473 142 q 539 226 524 192 q 554 300 554 260 l 554 486 m 535 1184 q 541 1214 535 1200 q 557 1238 547 1227 q 582 1254 568 1248 q 611 1260 595 1260 q 641 1254 627 1260 q 665 1238 654 1248 q 681 1214 675 1227 q 687 1184 687 1200 q 681 1155 687 1168 q 665 1131 675 1141 q 641 1114 654 1120 q 611 1108 627 1108 q 582 1114 595 1108 q 557 1131 568 1120 q 541 1155 547 1141 q 535 1184 535 1168 m 291 1184 q 297 1214 291 1200 q 313 1238 303 1227 q 337 1254 323 1248 q 367 1260 351 1260 q 396 1254 382 1260 q 420 1238 410 1248 q 437 1214 431 1227 q 443 1184 443 1200 q 437 1155 443 1168 q 420 1131 431 1141 q 396 1114 410 1120 q 367 1108 382 1108 q 337 1114 351 1108 q 313 1131 323 1120 q 297 1155 303 1141 q 291 1184 291 1168 z "}}}
